<ttFont>
    <TTGlyph name=".notdef" xMin="256" yMin="0" xMax="1280" yMax="1280">
      <contour>
        <pt x="256" y="0" on="1"/>
        <pt x="256" y="1280" on="1"/>
        <pt x="1280" y="1280" on="1"/>
        <pt x="1280" y="0" on="1"/>
      </contour>
      <contour>
        <pt x="288" y="32" on="1"/>
        <pt x="1248" y="32" on="1"/>
        <pt x="1248" y="1248" on="1"/>
        <pt x="288" y="1248" on="1"/>
      </contour>
    </TTGlyph>
    <TTGlyph name="ampersand" xMin="106" yMin="-47" xMax="1304" yMax="1452">
      <contour>
        <pt x="1009" y="684" on="1"/>
        <pt x="1173" y="684" on="1"/>
        <pt x="1173" y="492" on="0"/>
        <pt x="1054" y="309" on="1"/>
        <pt x="1304" y="0" on="1"/>
        <pt x="1081" y="0" on="1"/>
        <pt x="954" y="160" on="1"/>
        <pt x="854" y="61" on="0"/>
        <pt x="796" y="27" on="1"/>
        <pt x="681" y="-47" on="0"/>
        <pt x="526" y="-47" on="1"/>
        <pt x="288" y="-47" on="0"/>
        <pt x="174" y="121" on="1"/>
        <pt x="106" y="221" on="0"/>
        <pt x="106" y="360" on="1"/>
        <pt x="106" y="526" on="0"/>
        <pt x="212" y="635" on="1"/>
        <pt x="286" y="709" on="0"/>
        <pt x="438" y="797" on="1"/>
        <pt x="294" y="977" on="0"/>
        <pt x="276" y="1075" on="1"/>
        <pt x="272" y="1102" on="0"/>
        <pt x="272" y="1130" on="1"/>
        <pt x="272" y="1288" on="0"/>
        <pt x="405" y="1384" on="1"/>
        <pt x="499" y="1452" on="0"/>
        <pt x="622" y="1452" on="1"/>
        <pt x="806" y="1452" on="0"/>
        <pt x="901" y="1317" on="1"/>
        <pt x="931" y="1260" on="1"/>
        <pt x="950" y="1217" on="0"/>
        <pt x="954" y="1167" on="1"/>
        <pt x="956" y="1149" on="0"/>
        <pt x="956" y="1130" on="1"/>
        <pt x="956" y="989" on="0"/>
        <pt x="843" y="889" on="1"/>
        <pt x="784" y="836" on="0"/>
        <pt x="673" y="774" on="1"/>
        <pt x="946" y="440" on="1"/>
        <pt x="1009" y="552" on="0"/>
        <pt x="1009" y="676" on="1"/>
      </contour>
      <contour>
        <pt x="583" y="883" on="1"/>
        <pt x="749" y="987" on="0"/>
        <pt x="780" y="1063" on="1"/>
        <pt x="794" y="1094" on="0"/>
        <pt x="794" y="1135" on="1"/>
        <pt x="794" y="1241" on="0"/>
        <pt x="702" y="1288" on="1"/>
        <pt x="663" y="1309" on="0"/>
        <pt x="616" y="1309" on="1"/>
        <pt x="493" y="1309" on="0"/>
        <pt x="452" y="1206" on="1"/>
        <pt x="440" y="1174" on="0"/>
        <pt x="440" y="1133" on="1"/>
        <pt x="440" y="1065" on="0"/>
        <pt x="491" y="993" on="1"/>
      </contour>
      <contour>
        <pt x="856" y="281" on="1"/>
        <pt x="528" y="690" on="1"/>
        <pt x="335" y="567" on="0"/>
        <pt x="294" y="465" on="1"/>
        <pt x="278" y="424" on="0"/>
        <pt x="278" y="375" on="1"/>
        <pt x="278" y="242" on="0"/>
        <pt x="389" y="164" on="1"/>
        <pt x="460" y="113" on="0"/>
        <pt x="546" y="113" on="1"/>
        <pt x="684" y="113" on="0"/>
        <pt x="823" y="246" on="1"/>
        <pt x="839" y="262" on="0"/>
      </contour>
    </TTGlyph>
    <TTGlyph name="asterisk" xMin="450" yMin="903" xMax="1071" yMax="1493">
      <contour>
        <pt x="696" y="1493" on="1"/>
        <pt x="825" y="1493" on="1"/>
        <pt x="815" y="1264" on="1"/>
        <pt x="1032" y="1341" on="1"/>
        <pt x="1071" y="1221" on="1"/>
        <pt x="849" y="1159" on="1"/>
        <pt x="993" y="977" on="1"/>
        <pt x="888" y="903" on="1"/>
        <pt x="761" y="1094" on="1"/>
        <pt x="632" y="903" on="1"/>
        <pt x="530" y="977" on="1"/>
        <pt x="671" y="1159" on="1"/>
        <pt x="450" y="1221" on="1"/>
        <pt x="489" y="1341" on="1"/>
        <pt x="706" y="1264" on="1"/>
      </contour>
    </TTGlyph>
    <TTGlyph name="at" xMin="69" yMin="-290" xMax="1947" yMax="1518">
      <contour>
        <pt x="1361" y="1026" on="1"/>
        <pt x="1531" y="1026" on="1"/>
        <pt x="1347" y="453" on="1"/>
        <pt x="1322" y="381" on="0"/>
        <pt x="1322" y="350" on="1"/>
        <pt x="1322" y="295" on="0"/>
        <pt x="1382" y="268" on="1"/>
        <pt x="1402" y="260" on="0"/>
        <pt x="1425" y="260" on="1"/>
        <pt x="1556" y="260" on="0"/>
        <pt x="1664" y="408" on="1"/>
        <pt x="1769" y="553" on="0"/>
        <pt x="1769" y="731" on="1"/>
        <pt x="1769" y="977" on="0"/>
        <pt x="1570" y="1159" on="1"/>
        <pt x="1367" y="1348" on="0"/>
        <pt x="1079" y="1360" on="1"/>
        <pt x="1048" y="1360" on="1"/>
        <pt x="747" y="1360" on="0"/>
        <pt x="515" y="1151" on="1"/>
        <pt x="446" y="1081" on="1"/>
        <pt x="243" y="850" on="0"/>
        <pt x="243" y="559" on="1"/>
        <pt x="243" y="270" on="0"/>
        <pt x="458" y="72" on="1"/>
        <pt x="679" y="-133" on="0"/>
        <pt x="1011" y="-133" on="1"/>
        <pt x="1173" y="-133" on="0"/>
        <pt x="1406" y="-67" on="1"/>
        <pt x="1464" y="-204" on="1"/>
        <pt x="1234" y="-290" on="0"/>
        <pt x="1001" y="-290" on="1"/>
        <pt x="632" y="-290" on="0"/>
        <pt x="364" y="-71" on="1"/>
        <pt x="114" y="133" on="0"/>
        <pt x="75" y="434" on="1"/>
        <pt x="69" y="481" on="0"/>
        <pt x="69" y="528" on="1"/>
        <pt x="69" y="844" on="0"/>
        <pt x="264" y="1110" on="1"/>
        <pt x="321" y="1190" on="0"/>
        <pt x="393" y="1253" on="1"/>
        <pt x="614" y="1454" on="0"/>
        <pt x="923" y="1505" on="1"/>
        <pt x="999" y="1518" on="0"/>
        <pt x="1075" y="1518" on="1"/>
        <pt x="1415" y="1518" on="0"/>
        <pt x="1666" y="1311" on="1"/>
        <pt x="1904" y="1118" on="0"/>
        <pt x="1941" y="842" on="1"/>
        <pt x="1947" y="799" on="0"/>
        <pt x="1947" y="756" on="1"/>
        <pt x="1947" y="508" on="0"/>
        <pt x="1771" y="299" on="1"/>
        <pt x="1615" y="117" on="0"/>
        <pt x="1390" y="117" on="1"/>
        <pt x="1193" y="117" on="0"/>
        <pt x="1165" y="274" on="1"/>
        <pt x="1030" y="127" on="0"/>
        <pt x="874" y="127" on="1"/>
        <pt x="706" y="127" on="0"/>
        <pt x="610" y="268" on="1"/>
        <pt x="540" y="369" on="0"/>
        <pt x="540" y="502" on="1"/>
        <pt x="540" y="725" on="0"/>
        <pt x="702" y="897" on="1"/>
        <pt x="860" y="1067" on="0"/>
        <pt x="1066" y="1069" on="1"/>
        <pt x="1238" y="1069" on="0"/>
        <pt x="1316" y="891" on="1"/>
      </contour>
      <contour>
        <pt x="1054" y="938" on="1"/>
        <pt x="919" y="938" on="0"/>
        <pt x="817" y="793" on="1"/>
        <pt x="724" y="664" on="0"/>
        <pt x="724" y="500" on="1"/>
        <pt x="724" y="362" on="0"/>
        <pt x="821" y="293" on="1"/>
        <pt x="870" y="258" on="0"/>
        <pt x="927" y="258" on="1"/>
        <pt x="1046" y="258" on="0"/>
        <pt x="1136" y="391" on="1"/>
        <pt x="1204" y="489" on="0"/>
        <pt x="1236" y="662" on="1"/>
        <pt x="1245" y="707" on="0"/>
        <pt x="1247" y="741" on="1"/>
        <pt x="1247" y="755" on="1"/>
        <pt x="1247" y="856" on="0"/>
        <pt x="1163" y="909" on="1"/>
        <pt x="1113" y="938" on="0"/>
      </contour>
    </TTGlyph>
    <TTGlyph name="colon" xMin="225" yMin="0" xMax="438" yMax="1073">
      <contour>
        <pt x="438" y="213" on="1"/>
        <pt x="438" y="0" on="1"/>
        <pt x="225" y="0" on="1"/>
        <pt x="225" y="213" on="1"/>
      </contour>
      <contour>
        <pt x="438" y="1073" on="1"/>
        <pt x="438" y="860" on="1"/>
        <pt x="225" y="860" on="1"/>
        <pt x="225" y="1073" on="1"/>
      </contour>
    </TTGlyph>
    <TTGlyph name="comma" xMin="178" yMin="-301" xMax="393" yMax="213">
      <contour>
        <pt x="178" y="213" on="1"/>
        <pt x="393" y="213" on="1"/>
        <pt x="393" y="-32" on="1"/>
        <pt x="393" y="-301" on="0"/>
        <pt x="178" y="-301" on="1"/>
        <pt x="178" y="-223" on="1"/>
        <pt x="266" y="-219" on="0"/>
        <pt x="287" y="-155" on="1"/>
        <pt x="301" y="-116" on="0"/>
        <pt x="301" y="-36" on="1"/>
        <pt x="301" y="0" on="1"/>
        <pt x="178" y="0" on="1"/>
      </contour>
    </TTGlyph>
    <TTGlyph name="dollar" xMin="70" yMin="-258" xMax="1064" yMax="1577">
      <contour>
        <pt x="501" y="1577" on="1"/>
        <pt x="622" y="1577" on="1"/>
        <pt x="622" y="1466" on="1"/>
        <pt x="880" y="1448" on="0"/>
        <pt x="976" y="1257" on="1"/>
        <pt x="1015" y="1180" on="0"/>
        <pt x="1019" y="1083" on="1"/>
        <pt x="1019" y="1063" on="1"/>
        <pt x="858" y="1063" on="1"/>
        <pt x="856" y="1221" on="0"/>
        <pt x="739" y="1290" on="1"/>
        <pt x="698" y="1313" on="0"/>
        <pt x="649" y="1321" on="1"/>
        <pt x="636" y="1323" on="0"/>
        <pt x="622" y="1323" on="1"/>
        <pt x="622" y="813" on="1"/>
        <pt x="827" y="750" on="0"/>
        <pt x="890" y="715" on="1"/>
        <pt x="1064" y="616" on="0"/>
        <pt x="1064" y="399" on="1"/>
        <pt x="1064" y="186" on="0"/>
        <pt x="925" y="61" on="1"/>
        <pt x="903" y="41" on="0"/>
        <pt x="876" y="25" on="1"/>
        <pt x="776" y="-34" on="0"/>
        <pt x="622" y="-47" on="1"/>
        <pt x="622" y="-258" on="1"/>
        <pt x="501" y="-258" on="1"/>
        <pt x="501" y="-47" on="1"/>
        <pt x="186" y="-26" on="0"/>
        <pt x="98" y="213" on="1"/>
        <pt x="70" y="293" on="0"/>
        <pt x="70" y="390" on="1"/>
        <pt x="70" y="408" on="0"/>
        <pt x="71" y="426" on="1"/>
        <pt x="233" y="426" on="1"/>
        <pt x="247" y="274" on="0"/>
        <pt x="276" y="225" on="1"/>
        <pt x="280" y="219" on="0"/>
        <pt x="284" y="211" on="1"/>
        <pt x="356" y="113" on="0"/>
        <pt x="501" y="94" on="1"/>
        <pt x="501" y="651" on="1"/>
        <pt x="311" y="709" on="0"/>
        <pt x="243" y="758" on="1"/>
        <pt x="98" y="862" on="0"/>
        <pt x="98" y="1057" on="1"/>
        <pt x="98" y="1356" on="0"/>
        <pt x="384" y="1442" on="1"/>
        <pt x="438" y="1458" on="0"/>
        <pt x="501" y="1466" on="1"/>
      </contour>
      <contour>
        <pt x="501" y="829" on="1"/>
        <pt x="501" y="1321" on="1"/>
        <pt x="305" y="1294" on="0"/>
        <pt x="270" y="1139" on="1"/>
        <pt x="264" y="1110" on="0"/>
        <pt x="264" y="1077" on="1"/>
        <pt x="264" y="893" on="0"/>
      </contour>
      <contour>
        <pt x="622" y="633" on="1"/>
        <pt x="622" y="94" on="1"/>
        <pt x="747" y="109" on="0"/>
        <pt x="810" y="170" on="1"/>
        <pt x="896" y="252" on="0"/>
        <pt x="896" y="375" on="1"/>
        <pt x="896" y="500" on="0"/>
        <pt x="800" y="561" on="1"/>
        <pt x="741" y="598" on="0"/>
      </contour>
    </TTGlyph>
    <TTGlyph name="eight" xMin="74" yMin="0" xMax="1004" yMax="1500">
      <contour>
        <pt x="539" y="1350" on="1"/>
        <pt x="254" y="1350" on="0"/>
        <pt x="254" y="1100" on="1"/>
        <pt x="254" y="850" on="0"/>
        <pt x="539" y="850" on="1"/>
        <pt x="824" y="850" on="0"/>
        <pt x="824" y="1100" on="1"/>
        <pt x="824" y="1350" on="0"/>
      </contour>
      <contour>
        <pt x="539" y="700" on="1"/>
        <pt x="224" y="700" on="0"/>
        <pt x="224" y="425" on="1"/>
        <pt x="224" y="150" on="0"/>
        <pt x="539" y="150" on="1"/>
        <pt x="854" y="150" on="0"/>
        <pt x="854" y="425" on="1"/>
        <pt x="854" y="700" on="0"/>
      </contour>
      <contour>
        <pt x="237" y="780" on="1"/>
        <pt x="104" y="878" on="0"/>
        <pt x="104" y="1100" on="1"/>
        <pt x="104" y="1500" on="0"/>
        <pt x="539" y="1500" on="1"/>
        <pt x="974" y="1500" on="0"/>
        <pt x="974" y="1100" on="1"/>
        <pt x="974" y="878" on="0"/>
        <pt x="841" y="780" on="1"/>
        <pt x="1004" y="677" on="0"/>
        <pt x="1004" y="425" on="1"/>
        <pt x="1004" y="0" on="0"/>
        <pt x="539" y="0" on="1"/>
        <pt x="74" y="0" on="0"/>
        <pt x="74" y="425" on="1"/>
        <pt x="74" y="677" on="0"/>
      </contour>
    </TTGlyph>
    <TTGlyph name="equal" xMin="102" yMin="227" xMax="1093" yMax="723">
      <contour>
        <pt x="1093" y="723" on="1"/>
        <pt x="1093" y="580" on="1"/>
        <pt x="102" y="580" on="1"/>
        <pt x="102" y="723" on="1"/>
      </contour>
      <contour>
        <pt x="1093" y="371" on="1"/>
        <pt x="1093" y="227" on="1"/>
        <pt x="102" y="227" on="1"/>
        <pt x="102" y="371" on="1"/>
      </contour>
    </TTGlyph>
    <TTGlyph name="exclam" xMin="450" yMin="0" xMax="622" yMax="1493">
      <contour>
        <pt x="612" y="1493" on="1"/>
        <pt x="612" y="801" on="1"/>
        <pt x="572" y="344" on="1"/>
        <pt x="502" y="344" on="1"/>
        <pt x="462" y="801" on="1"/>
        <pt x="462" y="1493" on="1"/>
      </contour>
      <contour>
        <pt x="622" y="213" on="1"/>
        <pt x="622" y="0" on="1"/>
        <pt x="450" y="0" on="1"/>
        <pt x="450" y="213" on="1"/>
      </contour>
    </TTGlyph>
    <TTGlyph name="five" xMin="124" yMin="0" xMax="1039" yMax="1500">
      <contour>
        <pt x="1039" y="500" on="1"/>
        <pt x="1039" y="0" on="0"/>
        <pt x="602" y="0" on="1"/>
        <pt x="174" y="0" on="0"/>
        <pt x="124" y="397" on="1"/>
        <pt x="274" y="397" on="1"/>
        <pt x="324" y="150" on="0"/>
        <pt x="602" y="150" on="1"/>
        <pt x="889" y="150" on="0"/>
        <pt x="889" y="500" on="1"/>
        <pt x="889" y="850" on="0"/>
        <pt x="612" y="850" on="1"/>
        <pt x="410" y="850" on="0"/>
        <pt x="324" y="722" on="1"/>
        <pt x="179" y="722" on="1"/>
        <pt x="249" y="1500" on="1"/>
        <pt x="969" y="1500" on="1"/>
        <pt x="969" y="1322" on="1"/>
        <pt x="384" y="1322" on="1"/>
        <pt x="347" y="949" on="1"/>
        <pt x="454" y="1000" on="0"/>
        <pt x="612" y="1000" on="1"/>
        <pt x="1039" y="1000" on="0"/>
      </contour>
    </TTGlyph>
    <TTGlyph name="four" xMin="40" yMin="0" xMax="1040" yMax="1500">
      <contour>
        <pt x="698" y="1231" on="1"/>
        <pt x="221" y="519" on="1"/>
        <pt x="698" y="519" on="1"/>
      </contour>
      <contour>
        <pt x="698" y="1500" on="1"/>
        <pt x="848" y="1500" on="1"/>
        <pt x="848" y="519" on="1"/>
        <pt x="1040" y="519" on="1"/>
        <pt x="1040" y="369" on="1"/>
        <pt x="848" y="369" on="1"/>
        <pt x="848" y="0" on="1"/>
        <pt x="698" y="0" on="1"/>
        <pt x="698" y="369" on="1"/>
        <pt x="40" y="369" on="1"/>
        <pt x="40" y="519" on="1"/>
      </contour>
    </TTGlyph>
    <TTGlyph name="glyph139" xMin="-1100" yMin="-700" xMax="500" yMax="1500">
      <contour>
        <pt x="500" y="-500" on="1"/>
        <pt x="500" y="-700" on="0"/>
        <pt x="250" y="-700" on="1"/>
        <pt x="-800" y="-700" on="1"/>
        <pt x="-1050" y="-700" on="0"/>
        <pt x="-1050" y="-500" on="1"/>
        <pt x="-1050" y="-220" on="1"/>
        <pt x="-1100" y="-220" on="1"/>
        <pt x="-1100" y="-100" on="1"/>
        <pt x="-750" y="-100" on="1"/>
        <pt x="-750" y="-500" on="1"/>
        <pt x="-450" y="-500" on="1"/>
        <pt x="-450" y="-100" on="1"/>
        <pt x="-150" y="-100" on="1"/>
        <pt x="-150" y="-500" on="1"/>
        <pt x="150" y="-500" on="1"/>
        <pt x="150" y="1000" on="1"/>
        <pt x="0" y="1157" on="1"/>
        <pt x="200" y="1500" on="1"/>
        <pt x="500" y="1500" on="1"/>
        <pt x="500" y="1250" on="1"/>
        <pt x="210" y="1250" on="1"/>
        <pt x="500" y="1000" on="1"/>
      </contour>
    </TTGlyph>
    <TTGlyph name="glyph144" xMin="-1350" yMin="-700" xMax="500" yMax="1500">
      <contour>
        <pt x="500" y="-500" on="1"/>
        <pt x="500" y="-700" on="0"/>
        <pt x="250" y="-700" on="1"/>
        <pt x="-600" y="-700" on="1"/>
        <pt x="-850" y="-700" on="0"/>
        <pt x="-850" y="-500" on="1"/>
        <pt x="-850" y="-250" on="1"/>
        <pt x="-1050" y="-250" on="1"/>
        <pt x="-1050" y="-500" on="1"/>
        <pt x="-950" y="-500" on="1"/>
        <pt x="-950" y="-700" on="1"/>
        <pt x="-1350" y="-700" on="1"/>
        <pt x="-1350" y="-250" on="1"/>
        <pt x="-1350" y="-100" on="0"/>
        <pt x="-1100" y="-100" on="1"/>
        <pt x="-800" y="-100" on="1"/>
        <pt x="-550" y="-100" on="0"/>
        <pt x="-550" y="-250" on="1"/>
        <pt x="-550" y="-500" on="1"/>
        <pt x="-350" y="-500" on="1"/>
        <pt x="-350" y="-100" on="1"/>
        <pt x="-50" y="-100" on="1"/>
        <pt x="-50" y="-500" on="1"/>
        <pt x="150" y="-500" on="1"/>
        <pt x="150" y="1000" on="1"/>
        <pt x="0" y="1157" on="1"/>
        <pt x="200" y="1500" on="1"/>
        <pt x="500" y="1500" on="1"/>
        <pt x="500" y="1250" on="1"/>
        <pt x="210" y="1250" on="1"/>
        <pt x="500" y="1000" on="1"/>
      </contour>
    </TTGlyph>
    <TTGlyph name="glyph146" xMin="-1800" yMin="-700" xMax="-150" yMax="-50">
      <contour>
        <pt x="-500" y="-410" on="1"/>
        <pt x="-500" y="-161" on="1"/>
        <pt x="-750" y="-161" on="1"/>
        <pt x="-750" y="-50" on="1"/>
        <pt x="-150" y="-50" on="1"/>
        <pt x="-150" y="-410" on="1"/>
      </contour>
      <contour>
        <pt x="-1450" y="-277" on="1"/>
        <pt x="-1360" y="-277" on="1"/>
        <pt x="-1360" y="-410" on="1"/>
        <pt x="-1800" y="-410" on="1"/>
        <pt x="-1800" y="-50" on="1"/>
        <pt x="-1450" y="-50" on="1"/>
        <pt x="-1300" y="-115" on="1"/>
        <pt x="-1150" y="-50" on="1"/>
        <pt x="-800" y="-50" on="1"/>
        <pt x="-800" y="-410" on="1"/>
        <pt x="-1150" y="-410" on="1"/>
        <pt x="-1150" y="-180" on="1"/>
        <pt x="-1300" y="-245" on="1"/>
        <pt x="-1450" y="-180" on="1"/>
      </contour>
      <contour>
        <pt x="-1800" y="-477" on="1"/>
        <pt x="-1500" y="-477" on="1"/>
        <pt x="-1152" y="-477" on="0"/>
        <pt x="-746" y="-610" on="1"/>
        <pt x="-500" y="-610" on="1"/>
        <pt x="-500" y="-566" on="1"/>
        <pt x="-650" y="-566" on="1"/>
        <pt x="-650" y="-455" on="1"/>
        <pt x="-150" y="-455" on="1"/>
        <pt x="-150" y="-610" on="1"/>
        <pt x="-150" y="-700" on="0"/>
        <pt x="-350" y="-700" on="1"/>
        <pt x="-888" y="-700" on="1"/>
        <pt x="-1253" y="-588" on="0"/>
        <pt x="-1500" y="-588" on="1"/>
        <pt x="-1800" y="-588" on="1"/>
      </contour>
    </TTGlyph>
    <TTGlyph name="glyph150" xMin="-1100" yMin="-700" xMax="500" yMax="1500">
      <contour>
        <pt x="500" y="-700" on="1"/>
        <pt x="150" y="-700" on="1"/>
        <pt x="150" y="-643" on="0"/>
        <pt x="-4" y="-540" on="0"/>
        <pt x="-100" y="-540" on="1"/>
        <pt x="-200" y="-540" on="1"/>
        <pt x="-200" y="-700" on="1"/>
        <pt x="-500" y="-700" on="1"/>
        <pt x="-500" y="-295" on="1"/>
        <pt x="-650" y="-392" on="1"/>
        <pt x="-800" y="-295" on="1"/>
        <pt x="-800" y="-500" on="1"/>
        <pt x="-700" y="-500" on="1"/>
        <pt x="-700" y="-700" on="1"/>
        <pt x="-1100" y="-700" on="1"/>
        <pt x="-1100" y="-100" on="1"/>
        <pt x="-800" y="-100" on="1"/>
        <pt x="-650" y="-197" on="1"/>
        <pt x="-500" y="-100" on="1"/>
        <pt x="-200" y="-100" on="1"/>
        <pt x="-200" y="-390" on="1"/>
        <pt x="-100" y="-390" on="1"/>
        <pt x="47" y="-390" on="0"/>
        <pt x="150" y="-479" on="1"/>
        <pt x="150" y="1000" on="1"/>
        <pt x="0" y="1157" on="1"/>
        <pt x="200" y="1500" on="1"/>
        <pt x="500" y="1500" on="1"/>
        <pt x="500" y="1250" on="1"/>
        <pt x="210" y="1250" on="1"/>
        <pt x="500" y="1000" on="1"/>
      </contour>
    </TTGlyph>
    <TTGlyph name="glyph157" xMin="-500" yMin="-700" xMax="500" yMax="1500">
      <contour>
        <pt x="500" y="-700" on="1"/>
        <pt x="150" y="-700" on="1"/>
        <pt x="0" y="-554" on="1"/>
        <pt x="-150" y="-700" on="1"/>
        <pt x="-500" y="-700" on="1"/>
        <pt x="-500" y="-100" on="1"/>
        <pt x="-100" y="-100" on="1"/>
        <pt x="-100" y="-250" on="1"/>
        <pt x="-150" y="-250" on="1"/>
        <pt x="-150" y="-407" on="1"/>
        <pt x="0" y="-261" on="1"/>
        <pt x="150" y="-407" on="1"/>
        <pt x="150" y="1000" on="1"/>
        <pt x="0" y="1157" on="1"/>
        <pt x="200" y="1500" on="1"/>
        <pt x="500" y="1500" on="1"/>
        <pt x="500" y="1250" on="1"/>
        <pt x="210" y="1250" on="1"/>
        <pt x="500" y="1000" on="1"/>
      </contour>
    </TTGlyph>
    <TTGlyph name="glyph162" xMin="-500" yMin="-700" xMax="500" yMax="1500">
      <contour>
        <pt x="500" y="-500" on="1"/>
        <pt x="500" y="-700" on="0"/>
        <pt x="250" y="-700" on="1"/>
        <pt x="-250" y="-700" on="1"/>
        <pt x="-500" y="-700" on="0"/>
        <pt x="-500" y="-500" on="1"/>
        <pt x="-500" y="-100" on="1"/>
        <pt x="-100" y="-100" on="1"/>
        <pt x="-100" y="-300" on="1"/>
        <pt x="-150" y="-300" on="1"/>
        <pt x="-150" y="-500" on="1"/>
        <pt x="150" y="-500" on="1"/>
        <pt x="150" y="1000" on="1"/>
        <pt x="0" y="1157" on="1"/>
        <pt x="200" y="1500" on="1"/>
        <pt x="500" y="1500" on="1"/>
        <pt x="500" y="1250" on="1"/>
        <pt x="210" y="1250" on="1"/>
        <pt x="500" y="1000" on="1"/>
      </contour>
    </TTGlyph>
    <TTGlyph name="glyph166" xMin="-550" yMin="-700" xMax="600" yMax="1500">
      <contour>
        <pt x="500" y="250" on="1"/>
        <pt x="600" y="250" on="1"/>
        <pt x="600" y="0" on="1"/>
        <pt x="500" y="0" on="1"/>
        <pt x="500" y="-500" on="1"/>
        <pt x="500" y="-700" on="0"/>
        <pt x="250" y="-700" on="1"/>
        <pt x="-250" y="-700" on="1"/>
        <pt x="-500" y="-700" on="0"/>
        <pt x="-500" y="-500" on="1"/>
        <pt x="-500" y="-300" on="1"/>
        <pt x="-550" y="-300" on="1"/>
        <pt x="-550" y="-100" on="1"/>
        <pt x="-150" y="-100" on="1"/>
        <pt x="-150" y="-500" on="1"/>
        <pt x="150" y="-500" on="1"/>
        <pt x="150" y="0" on="1"/>
        <pt x="0" y="0" on="1"/>
        <pt x="0" y="250" on="1"/>
        <pt x="150" y="250" on="1"/>
        <pt x="150" y="1000" on="1"/>
        <pt x="0" y="1157" on="1"/>
        <pt x="200" y="1500" on="1"/>
        <pt x="500" y="1500" on="1"/>
        <pt x="500" y="1250" on="1"/>
        <pt x="210" y="1250" on="1"/>
        <pt x="500" y="1000" on="1"/>
      </contour>
    </TTGlyph>
    <TTGlyph name="glyph169" xMin="-500" yMin="-1200" xMax="-200" yMax="-750">
      <contour>
        <pt x="-200" y="-750" on="1"/>
        <pt x="-200" y="-1200" on="1"/>
        <pt x="-500" y="-1200" on="1"/>
        <pt x="-500" y="-750" on="1"/>
      </contour>
    </TTGlyph>
    <TTGlyph name="glyph170" xMin="-850" yMin="-1200" xMax="-200" yMax="-750">
      <contour>
        <pt x="-850" y="-750" on="1"/>
        <pt x="-650" y="-750" on="1"/>
        <pt x="-650" y="-1050" on="1"/>
        <pt x="-500" y="-1050" on="1"/>
        <pt x="-500" y="-750" on="1"/>
        <pt x="-200" y="-750" on="1"/>
        <pt x="-200" y="-1050" on="1"/>
        <pt x="-200" y="-1200" on="0"/>
        <pt x="-450" y="-1200" on="1"/>
        <pt x="-650" y="-1200" on="1"/>
        <pt x="-850" y="-1200" on="0"/>
        <pt x="-850" y="-1050" on="1"/>
      </contour>
    </TTGlyph>
    <TTGlyph name="glyph171" xMin="-900" yMin="-1200" xMax="-200" yMax="-750">
      <contour>
        <pt x="-900" y="-750" on="1"/>
        <pt x="-700" y="-750" on="1"/>
        <pt x="-700" y="-1045" on="1"/>
        <pt x="-600" y="-947" on="1"/>
        <pt x="-500" y="-1045" on="1"/>
        <pt x="-500" y="-750" on="1"/>
        <pt x="-200" y="-750" on="1"/>
        <pt x="-200" y="-1200" on="1"/>
        <pt x="-500" y="-1200" on="1"/>
        <pt x="-600" y="-1102" on="1"/>
        <pt x="-700" y="-1200" on="1"/>
        <pt x="-900" y="-1200" on="1"/>
      </contour>
    </TTGlyph>
    <TTGlyph name="glyph172" xMin="-1050" yMin="1950" xMax="-150" yMax="2350">
      <contour>
        <pt x="-1050" y="2050" on="1"/>
        <pt x="-1050" y="2200" on="0"/>
        <pt x="-960" y="2275" on="1"/>
        <pt x="-870" y="2350" on="0"/>
        <pt x="-690" y="2350" on="1"/>
        <pt x="-541" y="2350" on="0"/>
        <pt x="-405" y="2275" on="1"/>
        <pt x="-270" y="2200" on="0"/>
        <pt x="-150" y="2050" on="1"/>
        <pt x="-150" y="1950" on="1"/>
        <pt x="-1050" y="1950" on="1"/>
      </contour>
      <contour>
        <pt x="-690" y="2150" on="1"/>
        <pt x="-750" y="2150" on="0"/>
        <pt x="-780" y="2125" on="1"/>
        <pt x="-810" y="2100" on="0"/>
        <pt x="-810" y="2050" on="1"/>
        <pt x="-342" y="2050" on="1"/>
        <pt x="-394" y="2100" on="0"/>
        <pt x="-482" y="2125" on="1"/>
        <pt x="-570" y="2150" on="0"/>
      </contour>
    </TTGlyph>
    <TTGlyph name="glyph173" xMin="-1050" yMin="1950" xMax="-150" yMax="2400">
      <contour>
        <pt x="-1050" y="2050" on="1"/>
        <pt x="-1050" y="2200" on="0"/>
        <pt x="-960" y="2275" on="1"/>
        <pt x="-870" y="2350" on="0"/>
        <pt x="-690" y="2350" on="1"/>
        <pt x="-594" y="2350" on="0"/>
        <pt x="-504" y="2319" on="1"/>
        <pt x="-414" y="2288" on="0"/>
        <pt x="-330" y="2226" on="1"/>
        <pt x="-330" y="2400" on="1"/>
        <pt x="-150" y="2400" on="1"/>
        <pt x="-150" y="1950" on="1"/>
        <pt x="-1050" y="1950" on="1"/>
      </contour>
      <contour>
        <pt x="-690" y="2150" on="1"/>
        <pt x="-750" y="2150" on="0"/>
        <pt x="-780" y="2125" on="1"/>
        <pt x="-810" y="2100" on="0"/>
        <pt x="-810" y="2050" on="1"/>
        <pt x="-342" y="2050" on="1"/>
        <pt x="-394" y="2100" on="0"/>
        <pt x="-482" y="2125" on="1"/>
        <pt x="-570" y="2150" on="0"/>
      </contour>
    </TTGlyph>
    <TTGlyph name="glyph174" xMin="-1050" yMin="1950" xMax="-100" yMax="2399">
      <contour>
        <pt x="-1050" y="2050" on="1"/>
        <pt x="-1050" y="2200" on="0"/>
        <pt x="-960" y="2275" on="1"/>
        <pt x="-871" y="2350" on="0"/>
        <pt x="-693" y="2350" on="1"/>
        <pt x="-590" y="2350" on="0"/>
        <pt x="-495" y="2314" on="1"/>
        <pt x="-451" y="2399" on="0"/>
        <pt x="-307" y="2399" on="1"/>
        <pt x="-204" y="2399" on="0"/>
        <pt x="-152" y="2355" on="1"/>
        <pt x="-100" y="2312" on="0"/>
        <pt x="-100" y="2224" on="1"/>
        <pt x="-100" y="2115" on="0"/>
        <pt x="-178" y="2074" on="1"/>
        <pt x="-168" y="2062" on="0"/>
        <pt x="-159" y="2050" on="1"/>
        <pt x="-159" y="1950" on="1"/>
        <pt x="-1050" y="1950" on="1"/>
      </contour>
      <contour>
        <pt x="-218" y="2224" on="1"/>
        <pt x="-218" y="2262" on="0"/>
        <pt x="-241" y="2280" on="1"/>
        <pt x="-263" y="2299" on="0"/>
        <pt x="-307" y="2299" on="1"/>
        <pt x="-370" y="2299" on="0"/>
        <pt x="-388" y="2261" on="1"/>
        <pt x="-320" y="2219" on="0"/>
        <pt x="-256" y="2157" on="1"/>
        <pt x="-218" y="2175" on="0"/>
      </contour>
      <contour>
        <pt x="-693" y="2150" on="1"/>
        <pt x="-753" y="2150" on="0"/>
        <pt x="-782" y="2125" on="1"/>
        <pt x="-812" y="2100" on="0"/>
        <pt x="-812" y="2050" on="1"/>
        <pt x="-349" y="2050" on="1"/>
        <pt x="-401" y="2100" on="0"/>
        <pt x="-488" y="2125" on="1"/>
        <pt x="-575" y="2150" on="0"/>
      </contour>
    </TTGlyph>
    <TTGlyph name="glyph175" xMin="-1050" yMin="1950" xMax="-150" yMax="2400">
      <contour>
        <pt x="-1050" y="2050" on="1"/>
        <pt x="-1050" y="2200" on="0"/>
        <pt x="-960" y="2275" on="1"/>
        <pt x="-870" y="2350" on="0"/>
        <pt x="-690" y="2350" on="1"/>
        <pt x="-597" y="2350" on="0"/>
        <pt x="-510" y="2321" on="1"/>
        <pt x="-510" y="2400" on="1"/>
        <pt x="-390" y="2400" on="1"/>
        <pt x="-390" y="2266" on="1"/>
        <pt x="-327" y="2229" on="0"/>
        <pt x="-270" y="2177" on="1"/>
        <pt x="-270" y="2400" on="1"/>
        <pt x="-150" y="2400" on="1"/>
        <pt x="-150" y="1950" on="1"/>
        <pt x="-1050" y="1950" on="1"/>
      </contour>
      <contour>
        <pt x="-690" y="2150" on="1"/>
        <pt x="-750" y="2150" on="0"/>
        <pt x="-780" y="2125" on="1"/>
        <pt x="-810" y="2100" on="0"/>
        <pt x="-810" y="2050" on="1"/>
        <pt x="-342" y="2050" on="1"/>
        <pt x="-394" y="2100" on="0"/>
        <pt x="-482" y="2125" on="1"/>
        <pt x="-570" y="2150" on="0"/>
      </contour>
    </TTGlyph>
    <TTGlyph name="glyph176" xMin="-950" yMin="1900" xMax="-350" yMax="2500">
      <contour>
        <pt x="-675" y="2300" on="0"/>
        <pt x="-723" y="2274" on="0"/>
        <pt x="-750" y="2226" on="0"/>
        <pt x="-750" y="2200" on="1"/>
        <pt x="-750" y="2174" on="0"/>
        <pt x="-723" y="2126" on="0"/>
        <pt x="-675" y="2100" on="0"/>
        <pt x="-650" y="2100" on="1"/>
        <pt x="-624" y="2100" on="0"/>
        <pt x="-576" y="2126" on="0"/>
        <pt x="-550" y="2174" on="0"/>
        <pt x="-550" y="2200" on="1"/>
        <pt x="-550" y="2226" on="0"/>
        <pt x="-577" y="2274" on="0"/>
        <pt x="-624" y="2300" on="0"/>
        <pt x="-650" y="2300" on="1"/>
      </contour>
      <contour>
        <pt x="-650" y="2500" on="1"/>
        <pt x="-574" y="2500" on="0"/>
        <pt x="-431" y="2423" on="0"/>
        <pt x="-350" y="2278" on="0"/>
        <pt x="-350" y="2200" on="1"/>
        <pt x="-350" y="2122" on="0"/>
        <pt x="-429" y="1979" on="0"/>
        <pt x="-572" y="1900" on="0"/>
        <pt x="-650" y="1900" on="1"/>
        <pt x="-727" y="1900" on="0"/>
        <pt x="-870" y="1979" on="0"/>
        <pt x="-950" y="2122" on="0"/>
        <pt x="-950" y="2200" on="1"/>
        <pt x="-950" y="2278" on="0"/>
        <pt x="-869" y="2423" on="0"/>
        <pt x="-726" y="2500" on="0"/>
      </contour>
    </TTGlyph>
    <TTGlyph name="glyph177" xMin="-950" yMin="1900" xMax="-350" yMax="2500">
      <contour>
        <pt x="-550" y="2300" on="1"/>
        <pt x="-350" y="2300" on="1"/>
        <pt x="-350" y="2100" on="1"/>
        <pt x="-550" y="2100" on="1"/>
        <pt x="-550" y="1900" on="1"/>
        <pt x="-750" y="1900" on="1"/>
        <pt x="-750" y="2100" on="1"/>
        <pt x="-950" y="2100" on="1"/>
        <pt x="-950" y="2300" on="1"/>
        <pt x="-750" y="2300" on="1"/>
        <pt x="-750" y="2500" on="1"/>
        <pt x="-550" y="2500" on="1"/>
      </contour>
    </TTGlyph>
    <TTGlyph name="glyph178" xMin="-900" yMin="1950" xMax="0" yMax="2350">
      <contour>
        <pt x="-900" y="2300" on="1"/>
        <pt x="-506" y="2300" on="1"/>
        <pt x="-506" y="2200" on="1"/>
        <pt x="-618" y="2200" on="1"/>
        <pt x="-618" y="2150" on="1"/>
        <pt x="-281" y="2150" on="1"/>
        <pt x="-281" y="2350" on="1"/>
        <pt x="0" y="2350" on="1"/>
        <pt x="0" y="2100" on="1"/>
        <pt x="0" y="1950" on="0"/>
        <pt x="-225" y="1950" on="1"/>
        <pt x="-900" y="1950" on="1"/>
      </contour>
    </TTGlyph>
    <TTGlyph name="glyph179" xMin="150" yMin="0" xMax="1800" yMax="1500">
      <contour>
        <pt x="1450" y="0" on="1"/>
        <pt x="1450" y="1250" on="1"/>
        <pt x="1200" y="1250" on="1"/>
        <pt x="1200" y="1500" on="1"/>
        <pt x="1800" y="1500" on="1"/>
        <pt x="1800" y="0" on="1"/>
      </contour>
      <contour>
        <pt x="500" y="250" on="1"/>
        <pt x="600" y="250" on="1"/>
        <pt x="600" y="0" on="1"/>
        <pt x="150" y="0" on="1"/>
        <pt x="150" y="1500" on="1"/>
        <pt x="500" y="1500" on="1"/>
        <pt x="650" y="1354" on="1"/>
        <pt x="800" y="1500" on="1"/>
        <pt x="1150" y="1500" on="1"/>
        <pt x="1150" y="0" on="1"/>
        <pt x="800" y="0" on="1"/>
        <pt x="800" y="1207" on="1"/>
        <pt x="650" y="1061" on="1"/>
        <pt x="500" y="1207" on="1"/>
      </contour>
    </TTGlyph>
    <TTGlyph name="glyph180" xMin="-1750" yMin="-700" xMax="-850" yMax="-100">
      <contour>
        <pt x="-1150" y="-700" on="1"/>
        <pt x="-1150" y="-250" on="1"/>
        <pt x="-1450" y="-250" on="1"/>
        <pt x="-1450" y="-500" on="1"/>
        <pt x="-1350" y="-500" on="1"/>
        <pt x="-1350" y="-700" on="1"/>
        <pt x="-1750" y="-700" on="1"/>
        <pt x="-1750" y="-250" on="1"/>
        <pt x="-1750" y="-100" on="0"/>
        <pt x="-1500" y="-100" on="1"/>
        <pt x="-1100" y="-100" on="1"/>
        <pt x="-850" y="-100" on="0"/>
        <pt x="-850" y="-250" on="1"/>
        <pt x="-850" y="-700" on="1"/>
      </contour>
    </TTGlyph>
    <TTGlyph name="glyph181" xMin="-1150" yMin="-1200" xMax="-850" yMax="-750">
      <contour>
        <pt x="-850" y="-750" on="1"/>
        <pt x="-850" y="-1200" on="1"/>
        <pt x="-1150" y="-1200" on="1"/>
        <pt x="-1150" y="-750" on="1"/>
      </contour>
    </TTGlyph>
    <TTGlyph name="glyph182" xMin="-1500" yMin="-1200" xMax="-850" yMax="-750">
      <contour>
        <pt x="-1500" y="-750" on="1"/>
        <pt x="-1300" y="-750" on="1"/>
        <pt x="-1300" y="-1050" on="1"/>
        <pt x="-1150" y="-1050" on="1"/>
        <pt x="-1150" y="-750" on="1"/>
        <pt x="-850" y="-750" on="1"/>
        <pt x="-850" y="-1050" on="1"/>
        <pt x="-850" y="-1200" on="0"/>
        <pt x="-1050" y="-1200" on="1"/>
        <pt x="-1300" y="-1200" on="1"/>
        <pt x="-1500" y="-1200" on="0"/>
        <pt x="-1500" y="-1050" on="1"/>
      </contour>
    </TTGlyph>
    <TTGlyph name="glyph183" xMin="-1550" yMin="-1200" xMax="-850" yMax="-750">
      <contour>
        <pt x="-1550" y="-750" on="1"/>
        <pt x="-1350" y="-750" on="1"/>
        <pt x="-1350" y="-1025" on="1"/>
        <pt x="-1250" y="-927" on="1"/>
        <pt x="-1150" y="-1025" on="1"/>
        <pt x="-1150" y="-750" on="1"/>
        <pt x="-850" y="-750" on="1"/>
        <pt x="-850" y="-1200" on="1"/>
        <pt x="-1150" y="-1200" on="1"/>
        <pt x="-1250" y="-1102" on="1"/>
        <pt x="-1350" y="-1200" on="1"/>
        <pt x="-1550" y="-1200" on="1"/>
      </contour>
    </TTGlyph>
    <TTGlyph name="glyph185" xMin="-600" yMin="-1200" xMax="500" yMax="2200">
      <contour>
        <pt x="-240" y="1950" on="1"/>
        <pt x="-300" y="1950" on="0"/>
        <pt x="-330" y="1925" on="1"/>
        <pt x="-360" y="1900" on="0"/>
        <pt x="-360" y="1850" on="1"/>
        <pt x="108" y="1850" on="1"/>
        <pt x="55" y="1900" on="0"/>
        <pt x="-32" y="1925" on="1"/>
        <pt x="-120" y="1950" on="0"/>
      </contour>
      <contour>
        <pt x="500" y="-1000" on="1"/>
        <pt x="500" y="-1200" on="0"/>
        <pt x="250" y="-1200" on="1"/>
        <pt x="-250" y="-1200" on="1"/>
        <pt x="-500" y="-1200" on="0"/>
        <pt x="-500" y="-1000" on="1"/>
        <pt x="-500" y="-750" on="1"/>
        <pt x="-150" y="-750" on="1"/>
        <pt x="-150" y="-1000" on="1"/>
        <pt x="150" y="-1000" on="1"/>
        <pt x="150" y="1650" on="1"/>
        <pt x="150" y="1750" on="0"/>
        <pt x="0" y="1750" on="1"/>
        <pt x="-600" y="1750" on="1"/>
        <pt x="-600" y="1850" on="1"/>
        <pt x="-600" y="2000" on="0"/>
        <pt x="-510" y="2075" on="1"/>
        <pt x="-420" y="2150" on="0"/>
        <pt x="-240" y="2150" on="1"/>
        <pt x="-147" y="2150" on="0"/>
        <pt x="-60" y="2121" on="1"/>
        <pt x="-60" y="2200" on="1"/>
        <pt x="60" y="2200" on="1"/>
        <pt x="60" y="2066" on="1"/>
        <pt x="122" y="2029" on="0"/>
        <pt x="180" y="1977" on="1"/>
        <pt x="180" y="2200" on="1"/>
        <pt x="300" y="2200" on="1"/>
        <pt x="300" y="1896" on="1"/>
        <pt x="500" y="1823" on="0"/>
        <pt x="500" y="1650" on="1"/>
      </contour>
    </TTGlyph>
    <TTGlyph name="glyph186" xMin="-500" yMin="-1200" xMax="500" yMax="2350">
      <contour>
        <pt x="150" y="1800" on="1"/>
        <pt x="-150" y="1800" on="1"/>
        <pt x="-150" y="1700" on="1"/>
        <pt x="-500" y="1700" on="1"/>
        <pt x="-500" y="2350" on="1"/>
        <pt x="-150" y="2350" on="1"/>
        <pt x="-150" y="2000" on="1"/>
        <pt x="250" y="2000" on="1"/>
        <pt x="500" y="2000" on="0"/>
        <pt x="500" y="1800" on="1"/>
        <pt x="500" y="-1000" on="1"/>
        <pt x="500" y="-1200" on="0"/>
        <pt x="250" y="-1200" on="1"/>
        <pt x="-250" y="-1200" on="1"/>
        <pt x="-500" y="-1200" on="0"/>
        <pt x="-500" y="-1000" on="1"/>
        <pt x="-500" y="-750" on="1"/>
        <pt x="-150" y="-750" on="1"/>
        <pt x="-150" y="-1000" on="1"/>
        <pt x="150" y="-1000" on="1"/>
      </contour>
    </TTGlyph>
    <TTGlyph name="glyph187" xMin="-1100" yMin="-1200" xMax="500" yMax="1500">
      <contour>
        <pt x="150" y="1000" on="1"/>
        <pt x="0" y="1157" on="1"/>
        <pt x="200" y="1500" on="1"/>
        <pt x="500" y="1500" on="1"/>
        <pt x="500" y="1250" on="1"/>
        <pt x="210" y="1250" on="1"/>
        <pt x="500" y="1000" on="1"/>
        <pt x="500" y="-1000" on="1"/>
        <pt x="500" y="-1200" on="0"/>
        <pt x="250" y="-1200" on="1"/>
        <pt x="-800" y="-1200" on="1"/>
        <pt x="-1050" y="-1200" on="0"/>
        <pt x="-1050" y="-1000" on="1"/>
        <pt x="-1050" y="-870" on="1"/>
        <pt x="-1100" y="-870" on="1"/>
        <pt x="-1100" y="-750" on="1"/>
        <pt x="-750" y="-750" on="1"/>
        <pt x="-750" y="-1000" on="1"/>
        <pt x="-450" y="-1000" on="1"/>
        <pt x="-450" y="-750" on="1"/>
        <pt x="-150" y="-750" on="1"/>
        <pt x="-150" y="-1000" on="1"/>
        <pt x="150" y="-1000" on="1"/>
      </contour>
    </TTGlyph>
    <TTGlyph name="glyph188" xMin="-1350" yMin="-1200" xMax="500" yMax="1500">
      <contour>
        <pt x="150" y="1000" on="1"/>
        <pt x="0" y="1157" on="1"/>
        <pt x="200" y="1500" on="1"/>
        <pt x="500" y="1500" on="1"/>
        <pt x="500" y="1250" on="1"/>
        <pt x="210" y="1250" on="1"/>
        <pt x="500" y="1000" on="1"/>
        <pt x="500" y="-1000" on="1"/>
        <pt x="500" y="-1200" on="0"/>
        <pt x="250" y="-1200" on="1"/>
        <pt x="-600" y="-1200" on="1"/>
        <pt x="-850" y="-1200" on="0"/>
        <pt x="-850" y="-1000" on="1"/>
        <pt x="-850" y="-900" on="1"/>
        <pt x="-1050" y="-900" on="1"/>
        <pt x="-1050" y="-1050" on="1"/>
        <pt x="-950" y="-1050" on="1"/>
        <pt x="-950" y="-1200" on="1"/>
        <pt x="-1350" y="-1200" on="1"/>
        <pt x="-1350" y="-900" on="1"/>
        <pt x="-1350" y="-750" on="0"/>
        <pt x="-1100" y="-750" on="1"/>
        <pt x="-800" y="-750" on="1"/>
        <pt x="-550" y="-750" on="0"/>
        <pt x="-550" y="-900" on="1"/>
        <pt x="-550" y="-1000" on="1"/>
        <pt x="-350" y="-1000" on="1"/>
        <pt x="-350" y="-750" on="1"/>
        <pt x="-50" y="-750" on="1"/>
        <pt x="-50" y="-1000" on="1"/>
        <pt x="150" y="-1000" on="1"/>
      </contour>
    </TTGlyph>
    <TTGlyph name="glyph189" xMin="-1100" yMin="-1200" xMax="500" yMax="1500">
      <contour>
        <pt x="500" y="-1200" on="1"/>
        <pt x="150" y="-1200" on="1"/>
        <pt x="150" y="-1143" on="0"/>
        <pt x="-4" y="-1090" on="0"/>
        <pt x="-100" y="-1090" on="1"/>
        <pt x="-200" y="-1090" on="1"/>
        <pt x="-200" y="-1200" on="1"/>
        <pt x="-500" y="-1200" on="1"/>
        <pt x="-500" y="-945" on="1"/>
        <pt x="-650" y="-1042" on="1"/>
        <pt x="-800" y="-945" on="1"/>
        <pt x="-800" y="-1050" on="1"/>
        <pt x="-700" y="-1050" on="1"/>
        <pt x="-700" y="-1200" on="1"/>
        <pt x="-1100" y="-1200" on="1"/>
        <pt x="-1100" y="-750" on="1"/>
        <pt x="-800" y="-750" on="1"/>
        <pt x="-650" y="-847" on="1"/>
        <pt x="-500" y="-750" on="1"/>
        <pt x="-200" y="-750" on="1"/>
        <pt x="-200" y="-940" on="1"/>
        <pt x="-100" y="-940" on="1"/>
        <pt x="47" y="-940" on="0"/>
        <pt x="150" y="-979" on="1"/>
        <pt x="150" y="1000" on="1"/>
        <pt x="0" y="1157" on="1"/>
        <pt x="200" y="1500" on="1"/>
        <pt x="500" y="1500" on="1"/>
        <pt x="500" y="1250" on="1"/>
        <pt x="210" y="1250" on="1"/>
        <pt x="500" y="1000" on="1"/>
      </contour>
    </TTGlyph>
    <TTGlyph name="glyph190" xMin="-500" yMin="-1200" xMax="500" yMax="1500">
      <contour>
        <pt x="500" y="-1200" on="1"/>
        <pt x="150" y="-1200" on="1"/>
        <pt x="0" y="-1090" on="1"/>
        <pt x="-150" y="-1200" on="1"/>
        <pt x="-500" y="-1200" on="1"/>
        <pt x="-500" y="-750" on="1"/>
        <pt x="-100" y="-750" on="1"/>
        <pt x="-100" y="-862" on="1"/>
        <pt x="-150" y="-862" on="1"/>
        <pt x="-150" y="-980" on="1"/>
        <pt x="0" y="-870" on="1"/>
        <pt x="150" y="-980" on="1"/>
        <pt x="150" y="1000" on="1"/>
        <pt x="0" y="1157" on="1"/>
        <pt x="200" y="1500" on="1"/>
        <pt x="500" y="1500" on="1"/>
        <pt x="500" y="1250" on="1"/>
        <pt x="210" y="1250" on="1"/>
        <pt x="500" y="1000" on="1"/>
      </contour>
    </TTGlyph>
    <TTGlyph name="glyph191" xMin="-500" yMin="-1200" xMax="500" yMax="1500">
      <contour>
        <pt x="500" y="-1000" on="1"/>
        <pt x="500" y="-1200" on="0"/>
        <pt x="250" y="-1200" on="1"/>
        <pt x="-250" y="-1200" on="1"/>
        <pt x="-500" y="-1200" on="0"/>
        <pt x="-500" y="-1000" on="1"/>
        <pt x="-500" y="-750" on="1"/>
        <pt x="-100" y="-750" on="1"/>
        <pt x="-100" y="-900" on="1"/>
        <pt x="-150" y="-900" on="1"/>
        <pt x="-150" y="-1000" on="1"/>
        <pt x="150" y="-1000" on="1"/>
        <pt x="150" y="1000" on="1"/>
        <pt x="0" y="1157" on="1"/>
        <pt x="200" y="1500" on="1"/>
        <pt x="500" y="1500" on="1"/>
        <pt x="500" y="1250" on="1"/>
        <pt x="210" y="1250" on="1"/>
        <pt x="500" y="1000" on="1"/>
      </contour>
    </TTGlyph>
    <TTGlyph name="glyph192" xMin="0" yMin="-1200" xMax="1150" yMax="1500">
      <contour>
        <pt x="500" y="-1000" on="1"/>
        <pt x="800" y="-1000" on="1"/>
        <pt x="800" y="-750" on="1"/>
        <pt x="1150" y="-750" on="1"/>
        <pt x="1150" y="-1000" on="1"/>
        <pt x="1150" y="-1200" on="0"/>
        <pt x="900" y="-1200" on="1"/>
        <pt x="400" y="-1200" on="1"/>
        <pt x="150" y="-1200" on="0"/>
        <pt x="150" y="-1000" on="1"/>
        <pt x="150" y="1000" on="1"/>
        <pt x="0" y="1157" on="1"/>
        <pt x="200" y="1500" on="1"/>
        <pt x="500" y="1500" on="1"/>
        <pt x="500" y="1250" on="1"/>
        <pt x="210" y="1250" on="1"/>
        <pt x="500" y="1000" on="1"/>
      </contour>
    </TTGlyph>
    <TTGlyph name="glyph193" xMin="-550" yMin="-1200" xMax="600" yMax="1500">
      <contour>
        <pt x="500" y="-1000" on="1"/>
        <pt x="500" y="-1200" on="0"/>
        <pt x="250" y="-1200" on="1"/>
        <pt x="-250" y="-1200" on="1"/>
        <pt x="-500" y="-1200" on="0"/>
        <pt x="-500" y="-1000" on="1"/>
        <pt x="-500" y="-900" on="1"/>
        <pt x="-550" y="-900" on="1"/>
        <pt x="-550" y="-750" on="1"/>
        <pt x="-150" y="-750" on="1"/>
        <pt x="-150" y="-1000" on="1"/>
        <pt x="150" y="-1000" on="1"/>
        <pt x="150" y="0" on="1"/>
        <pt x="0" y="0" on="1"/>
        <pt x="0" y="250" on="1"/>
        <pt x="150" y="250" on="1"/>
        <pt x="150" y="1000" on="1"/>
        <pt x="0" y="1157" on="1"/>
        <pt x="200" y="1500" on="1"/>
        <pt x="500" y="1500" on="1"/>
        <pt x="500" y="1250" on="1"/>
        <pt x="210" y="1250" on="1"/>
        <pt x="500" y="1000" on="1"/>
        <pt x="500" y="250" on="1"/>
        <pt x="600" y="250" on="1"/>
        <pt x="600" y="0" on="1"/>
        <pt x="500" y="0" on="1"/>
      </contour>
    </TTGlyph>
    <TTGlyph name="glyph194" xMin="-900" yMin="1650" xMax="0" yMax="2050">
      <contour>
        <pt x="-900" y="1750" on="1"/>
        <pt x="-900" y="1900" on="0"/>
        <pt x="-810" y="1975" on="1"/>
        <pt x="-720" y="2050" on="0"/>
        <pt x="-540" y="2050" on="1"/>
        <pt x="-391" y="2050" on="0"/>
        <pt x="-255" y="1975" on="1"/>
        <pt x="-120" y="1900" on="0"/>
        <pt x="0" y="1750" on="1"/>
        <pt x="0" y="1650" on="1"/>
        <pt x="-900" y="1650" on="1"/>
      </contour>
      <contour>
        <pt x="-540" y="1850" on="1"/>
        <pt x="-600" y="1850" on="0"/>
        <pt x="-630" y="1825" on="1"/>
        <pt x="-660" y="1800" on="0"/>
        <pt x="-660" y="1750" on="1"/>
        <pt x="-192" y="1750" on="1"/>
        <pt x="-244" y="1800" on="0"/>
        <pt x="-332" y="1825" on="1"/>
        <pt x="-420" y="1850" on="0"/>
      </contour>
    </TTGlyph>
    <TTGlyph name="glyph195" xMin="-900" yMin="1650" xMax="0" yMax="2100">
      <contour>
        <pt x="-900" y="1750" on="1"/>
        <pt x="-900" y="1900" on="0"/>
        <pt x="-810" y="1975" on="1"/>
        <pt x="-720" y="2050" on="0"/>
        <pt x="-540" y="2050" on="1"/>
        <pt x="-444" y="2050" on="0"/>
        <pt x="-354" y="2019" on="1"/>
        <pt x="-264" y="1988" on="0"/>
        <pt x="-180" y="1926" on="1"/>
        <pt x="-180" y="2100" on="1"/>
        <pt x="0" y="2100" on="1"/>
        <pt x="0" y="1650" on="1"/>
        <pt x="-900" y="1650" on="1"/>
      </contour>
      <contour>
        <pt x="-540" y="1850" on="1"/>
        <pt x="-600" y="1850" on="0"/>
        <pt x="-630" y="1825" on="1"/>
        <pt x="-660" y="1800" on="0"/>
        <pt x="-660" y="1750" on="1"/>
        <pt x="-192" y="1750" on="1"/>
        <pt x="-244" y="1800" on="0"/>
        <pt x="-332" y="1825" on="1"/>
        <pt x="-420" y="1850" on="0"/>
      </contour>
    </TTGlyph>
    <TTGlyph name="glyph196" xMin="-900" yMin="1650" xMax="50" yMax="2099">
      <contour>
        <pt x="-900" y="1750" on="1"/>
        <pt x="-900" y="1900" on="0"/>
        <pt x="-810" y="1975" on="1"/>
        <pt x="-721" y="2050" on="0"/>
        <pt x="-543" y="2050" on="1"/>
        <pt x="-440" y="2050" on="0"/>
        <pt x="-345" y="2014" on="1"/>
        <pt x="-301" y="2099" on="0"/>
        <pt x="-157" y="2099" on="1"/>
        <pt x="-54" y="2099" on="0"/>
        <pt x="-2" y="2055" on="1"/>
        <pt x="50" y="2012" on="0"/>
        <pt x="50" y="1924" on="1"/>
        <pt x="50" y="1815" on="0"/>
        <pt x="-28" y="1774" on="1"/>
        <pt x="-18" y="1762" on="0"/>
        <pt x="-9" y="1750" on="1"/>
        <pt x="-9" y="1650" on="1"/>
        <pt x="-900" y="1650" on="1"/>
      </contour>
      <contour>
        <pt x="-68" y="1924" on="1"/>
        <pt x="-68" y="1962" on="0"/>
        <pt x="-91" y="1980" on="1"/>
        <pt x="-113" y="1999" on="0"/>
        <pt x="-157" y="1999" on="1"/>
        <pt x="-220" y="1999" on="0"/>
        <pt x="-238" y="1961" on="1"/>
        <pt x="-170" y="1919" on="0"/>
        <pt x="-106" y="1857" on="1"/>
        <pt x="-68" y="1875" on="0"/>
      </contour>
      <contour>
        <pt x="-543" y="1850" on="1"/>
        <pt x="-603" y="1850" on="0"/>
        <pt x="-632" y="1825" on="1"/>
        <pt x="-662" y="1800" on="0"/>
        <pt x="-662" y="1750" on="1"/>
        <pt x="-199" y="1750" on="1"/>
        <pt x="-251" y="1800" on="0"/>
        <pt x="-338" y="1825" on="1"/>
        <pt x="-425" y="1850" on="0"/>
      </contour>
    </TTGlyph>
    <TTGlyph name="glyph197" xMin="-900" yMin="1650" xMax="0" yMax="2100">
      <contour>
        <pt x="-900" y="1750" on="1"/>
        <pt x="-900" y="1900" on="0"/>
        <pt x="-810" y="1975" on="1"/>
        <pt x="-720" y="2050" on="0"/>
        <pt x="-540" y="2050" on="1"/>
        <pt x="-447" y="2050" on="0"/>
        <pt x="-360" y="2021" on="1"/>
        <pt x="-360" y="2100" on="1"/>
        <pt x="-240" y="2100" on="1"/>
        <pt x="-240" y="1966" on="1"/>
        <pt x="-177" y="1929" on="0"/>
        <pt x="-120" y="1877" on="1"/>
        <pt x="-120" y="2100" on="1"/>
        <pt x="0" y="2100" on="1"/>
        <pt x="0" y="1650" on="1"/>
        <pt x="-900" y="1650" on="1"/>
      </contour>
      <contour>
        <pt x="-540" y="1850" on="1"/>
        <pt x="-600" y="1850" on="0"/>
        <pt x="-630" y="1825" on="1"/>
        <pt x="-660" y="1800" on="0"/>
        <pt x="-660" y="1750" on="1"/>
        <pt x="-192" y="1750" on="1"/>
        <pt x="-244" y="1800" on="0"/>
        <pt x="-332" y="1825" on="1"/>
        <pt x="-420" y="1850" on="0"/>
      </contour>
    </TTGlyph>
    <TTGlyph name="glyph198" xMin="-700" yMin="1650" xMax="-100" yMax="2250">
      <contour>
        <pt x="-425" y="2050" on="0"/>
        <pt x="-473" y="2024" on="0"/>
        <pt x="-500" y="1976" on="0"/>
        <pt x="-500" y="1950" on="1"/>
        <pt x="-500" y="1924" on="0"/>
        <pt x="-473" y="1876" on="0"/>
        <pt x="-425" y="1850" on="0"/>
        <pt x="-400" y="1850" on="1"/>
        <pt x="-374" y="1850" on="0"/>
        <pt x="-326" y="1876" on="0"/>
        <pt x="-300" y="1924" on="0"/>
        <pt x="-300" y="1950" on="1"/>
        <pt x="-300" y="1976" on="0"/>
        <pt x="-327" y="2024" on="0"/>
        <pt x="-374" y="2050" on="0"/>
        <pt x="-400" y="2050" on="1"/>
      </contour>
      <contour>
        <pt x="-400" y="2250" on="1"/>
        <pt x="-324" y="2250" on="0"/>
        <pt x="-181" y="2173" on="0"/>
        <pt x="-100" y="2028" on="0"/>
        <pt x="-100" y="1950" on="1"/>
        <pt x="-100" y="1872" on="0"/>
        <pt x="-179" y="1729" on="0"/>
        <pt x="-322" y="1650" on="0"/>
        <pt x="-400" y="1650" on="1"/>
        <pt x="-477" y="1650" on="0"/>
        <pt x="-620" y="1729" on="0"/>
        <pt x="-700" y="1872" on="0"/>
        <pt x="-700" y="1950" on="1"/>
        <pt x="-700" y="2028" on="0"/>
        <pt x="-619" y="2173" on="0"/>
        <pt x="-476" y="2250" on="0"/>
      </contour>
    </TTGlyph>
    <TTGlyph name="glyph199" xMin="-675" yMin="1650" xMax="-125" yMax="2250">
      <contour>
        <pt x="-675" y="1650" on="1"/>
        <pt x="-675" y="2250" on="1"/>
        <pt x="-475" y="2250" on="1"/>
        <pt x="-475" y="1650" on="1"/>
      </contour>
      <contour>
        <pt x="-325" y="1650" on="1"/>
        <pt x="-325" y="2250" on="1"/>
        <pt x="-125" y="2250" on="1"/>
        <pt x="-125" y="1650" on="1"/>
      </contour>
    </TTGlyph>
    <TTGlyph name="glyph200" xMin="-900" yMin="1650" xMax="0" yMax="2100">
      <contour>
        <pt x="-590" y="1760" on="1"/>
        <pt x="-444" y="1760" on="1"/>
        <pt x="-444" y="1650" on="1"/>
        <pt x="-900" y="1650" on="1"/>
        <pt x="-900" y="1950" on="1"/>
        <pt x="-463" y="1950" on="1"/>
        <pt x="-309" y="1950" on="0"/>
        <pt x="-309" y="2100" on="1"/>
        <pt x="0" y="2100" on="1"/>
        <pt x="0" y="1950" on="1"/>
        <pt x="0" y="1850" on="0"/>
        <pt x="-281" y="1850" on="1"/>
        <pt x="-590" y="1850" on="1"/>
      </contour>
    </TTGlyph>
    <TTGlyph name="glyph201" xMin="-900" yMin="1650" xMax="100" yMax="2100">
      <contour>
        <pt x="-589" y="1850" on="1"/>
        <pt x="-641" y="1850" on="0"/>
        <pt x="-667" y="1825" on="1"/>
        <pt x="-693" y="1800" on="0"/>
        <pt x="-693" y="1750" on="1"/>
        <pt x="-289" y="1750" on="1"/>
        <pt x="-334" y="1800" on="0"/>
        <pt x="-410" y="1825" on="1"/>
        <pt x="-486" y="1850" on="0"/>
      </contour>
      <contour>
        <pt x="-900" y="1650" on="1"/>
        <pt x="-900" y="1750" on="1"/>
        <pt x="-900" y="1900" on="0"/>
        <pt x="-822" y="1975" on="1"/>
        <pt x="-744" y="2050" on="0"/>
        <pt x="-589" y="2050" on="1"/>
        <pt x="-461" y="2050" on="0"/>
        <pt x="-343" y="1975" on="1"/>
        <pt x="-315" y="1957" on="0"/>
        <pt x="-287" y="1934" on="1"/>
        <pt x="-287" y="1950" on="1"/>
        <pt x="-221" y="1950" on="1"/>
        <pt x="-88" y="1950" on="0"/>
        <pt x="-88" y="2100" on="1"/>
        <pt x="100" y="2100" on="1"/>
        <pt x="100" y="1950" on="1"/>
        <pt x="100" y="1850" on="0"/>
        <pt x="-64" y="1850" on="1"/>
        <pt x="-124" y="1850" on="1"/>
        <pt x="-124" y="1760" on="1"/>
        <pt x="2" y="1760" on="1"/>
        <pt x="2" y="1650" on="1"/>
      </contour>
    </TTGlyph>
    <TTGlyph name="glyph202" xMin="-850" yMin="-700" xMax="50" yMax="-100">
      <contour>
        <pt x="-250" y="-700" on="1"/>
        <pt x="-250" y="-250" on="1"/>
        <pt x="-550" y="-250" on="1"/>
        <pt x="-550" y="-700" on="1"/>
        <pt x="-850" y="-700" on="1"/>
        <pt x="-850" y="-250" on="1"/>
        <pt x="-850" y="-100" on="0"/>
        <pt x="-600" y="-100" on="1"/>
        <pt x="-200" y="-100" on="1"/>
        <pt x="50" y="-100" on="0"/>
        <pt x="50" y="-250" on="1"/>
        <pt x="50" y="-700" on="1"/>
      </contour>
    </TTGlyph>
    <TTGlyph name="glyph203" xMin="-850" yMin="-700" xMax="50" yMax="-100">
      <contour>
        <pt x="-550" y="-308" on="1"/>
        <pt x="-667" y="-308" on="1"/>
        <pt x="-850" y="-308" on="0"/>
        <pt x="-850" y="-274" on="1"/>
        <pt x="-850" y="-200" on="1"/>
        <pt x="-850" y="-100" on="0"/>
        <pt x="-600" y="-100" on="1"/>
        <pt x="-200" y="-100" on="1"/>
        <pt x="50" y="-100" on="0"/>
        <pt x="50" y="-200" on="1"/>
        <pt x="50" y="-318" on="1"/>
        <pt x="50" y="-387" on="0"/>
        <pt x="-550" y="-455" on="0"/>
        <pt x="-550" y="-522" on="1"/>
        <pt x="-550" y="-600" on="1"/>
        <pt x="-250" y="-600" on="1"/>
        <pt x="-250" y="-491" on="1"/>
        <pt x="50" y="-437" on="1"/>
        <pt x="50" y="-600" on="1"/>
        <pt x="50" y="-700" on="0"/>
        <pt x="-200" y="-700" on="1"/>
        <pt x="-600" y="-700" on="1"/>
        <pt x="-850" y="-700" on="0"/>
        <pt x="-850" y="-600" on="1"/>
        <pt x="-850" y="-481" on="1"/>
        <pt x="-850" y="-412" on="0"/>
        <pt x="-250" y="-344" on="0"/>
        <pt x="-250" y="-297" on="1"/>
        <pt x="-250" y="-200" on="1"/>
        <pt x="-550" y="-200" on="1"/>
      </contour>
    </TTGlyph>
    <TTGlyph name="glyph204" xMin="-850" yMin="-700" xMax="50" yMax="-100">
      <contour>
        <pt x="-550" y="-481" on="1"/>
        <pt x="-452" y="-375" on="1"/>
        <pt x="-362" y="-464" on="1"/>
        <pt x="-550" y="-688" on="1"/>
        <pt x="-550" y="-700" on="1"/>
        <pt x="-850" y="-700" on="1"/>
        <pt x="-850" y="-250" on="1"/>
        <pt x="-850" y="-100" on="0"/>
        <pt x="-600" y="-100" on="1"/>
        <pt x="-200" y="-100" on="1"/>
        <pt x="50" y="-100" on="0"/>
        <pt x="50" y="-250" on="1"/>
        <pt x="50" y="-700" on="1"/>
        <pt x="-250" y="-700" on="1"/>
        <pt x="-250" y="-250" on="1"/>
        <pt x="-550" y="-250" on="1"/>
      </contour>
    </TTGlyph>
    <TTGlyph name="glyph205" xMin="-850" yMin="-700" xMax="50" yMax="-100">
      <contour>
        <pt x="-452" y="-700" on="1"/>
        <pt x="-850" y="-700" on="0"/>
        <pt x="-850" y="-450" on="1"/>
        <pt x="-850" y="-400" on="1"/>
        <pt x="-850" y="-200" on="0"/>
        <pt x="-600" y="-200" on="1"/>
        <pt x="-450" y="-200" on="1"/>
        <pt x="-450" y="-350" on="1"/>
        <pt x="-550" y="-350" on="0"/>
        <pt x="-550" y="-450" on="1"/>
        <pt x="-550" y="-550" on="0"/>
        <pt x="-452" y="-550" on="1"/>
        <pt x="-250" y="-550" on="0"/>
        <pt x="-250" y="-100" on="1"/>
        <pt x="50" y="-100" on="1"/>
        <pt x="50" y="-700" on="0"/>
      </contour>
    </TTGlyph>
    <TTGlyph name="glyph206" xMin="-925" yMin="-700" xMax="125" yMax="-100">
      <contour>
        <pt x="25" y="-700" on="1"/>
        <pt x="-625" y="-700" on="1"/>
        <pt x="-875" y="-700" on="0"/>
        <pt x="-875" y="-550" on="1"/>
        <pt x="-875" y="-250" on="1"/>
        <pt x="-925" y="-250" on="1"/>
        <pt x="-925" y="-100" on="1"/>
        <pt x="-575" y="-100" on="1"/>
        <pt x="-575" y="-550" on="1"/>
        <pt x="-275" y="-550" on="1"/>
        <pt x="-275" y="-300" on="1"/>
        <pt x="-375" y="-300" on="1"/>
        <pt x="-375" y="-200" on="1"/>
        <pt x="-275" y="-200" on="1"/>
        <pt x="-275" y="-100" on="1"/>
        <pt x="25" y="-100" on="1"/>
        <pt x="25" y="-200" on="1"/>
        <pt x="125" y="-200" on="1"/>
        <pt x="125" y="-300" on="1"/>
        <pt x="25" y="-300" on="1"/>
      </contour>
    </TTGlyph>
    <TTGlyph name="glyph207" xMin="-950" yMin="-700" xMax="50" yMax="-100">
      <contour>
        <pt x="-250" y="-529" on="1"/>
        <pt x="-250" y="-300" on="1"/>
        <pt x="-350" y="-300" on="1"/>
        <pt x="-350" y="-100" on="1"/>
        <pt x="50" y="-100" on="1"/>
        <pt x="50" y="-700" on="1"/>
        <pt x="-250" y="-700" on="1"/>
        <pt x="-550" y="-540" on="1"/>
        <pt x="-550" y="-700" on="1"/>
        <pt x="-850" y="-700" on="1"/>
        <pt x="-850" y="-500" on="1"/>
        <pt x="-950" y="-500" on="1"/>
        <pt x="-950" y="-350" on="1"/>
        <pt x="-850" y="-350" on="1"/>
        <pt x="-850" y="-100" on="1"/>
        <pt x="-550" y="-100" on="1"/>
        <pt x="-550" y="-370" on="1"/>
      </contour>
    </TTGlyph>
    <TTGlyph name="glyph208" xMin="-850" yMin="-700" xMax="150" yMax="-100">
      <contour>
        <pt x="50" y="-700" on="1"/>
        <pt x="-250" y="-700" on="1"/>
        <pt x="-400" y="-554" on="1"/>
        <pt x="-550" y="-700" on="1"/>
        <pt x="-850" y="-700" on="1"/>
        <pt x="-850" y="-100" on="1"/>
        <pt x="-550" y="-100" on="1"/>
        <pt x="-550" y="-477" on="1"/>
        <pt x="-400" y="-331" on="1"/>
        <pt x="-250" y="-477" on="1"/>
        <pt x="-250" y="-300" on="1"/>
        <pt x="-350" y="-300" on="1"/>
        <pt x="-350" y="-200" on="1"/>
        <pt x="-250" y="-200" on="1"/>
        <pt x="-250" y="-100" on="1"/>
        <pt x="50" y="-100" on="1"/>
        <pt x="50" y="-200" on="1"/>
        <pt x="150" y="-200" on="1"/>
        <pt x="150" y="-300" on="1"/>
        <pt x="50" y="-300" on="1"/>
      </contour>
    </TTGlyph>
    <TTGlyph name="glyph209" xMin="-900" yMin="-650" xMax="100" yMax="-150">
      <contour>
        <pt x="-900" y="-200" on="1"/>
        <pt x="-817" y="-200" on="1"/>
        <pt x="-612" y="-200" on="0"/>
        <pt x="-481" y="-335" on="1"/>
        <pt x="-350" y="-470" on="0"/>
        <pt x="-263" y="-470" on="1"/>
        <pt x="-177" y="-470" on="0"/>
        <pt x="-177" y="-350" on="1"/>
        <pt x="-288" y="-350" on="1"/>
        <pt x="-288" y="-150" on="1"/>
        <pt x="100" y="-150" on="1"/>
        <pt x="100" y="-350" on="1"/>
        <pt x="100" y="-650" on="0"/>
        <pt x="-210" y="-650" on="1"/>
        <pt x="-396" y="-650" on="0"/>
        <pt x="-530" y="-550" on="1"/>
        <pt x="-663" y="-450" on="0"/>
        <pt x="-773" y="-450" on="1"/>
        <pt x="-900" y="-450" on="1"/>
      </contour>
    </TTGlyph>
    <TTGlyph name="glyph210" xMin="-850" yMin="-700" xMax="50" yMax="-100">
      <contour>
        <pt x="-250" y="-700" on="1"/>
        <pt x="-250" y="-250" on="1"/>
        <pt x="-550" y="-250" on="1"/>
        <pt x="-550" y="-500" on="1"/>
        <pt x="-450" y="-500" on="1"/>
        <pt x="-450" y="-700" on="1"/>
        <pt x="-850" y="-700" on="1"/>
        <pt x="-850" y="-250" on="1"/>
        <pt x="-850" y="-100" on="0"/>
        <pt x="-600" y="-100" on="1"/>
        <pt x="-200" y="-100" on="1"/>
        <pt x="50" y="-100" on="0"/>
        <pt x="50" y="-250" on="1"/>
        <pt x="50" y="-700" on="1"/>
      </contour>
    </TTGlyph>
    <TTGlyph name="glyph211" xMin="-850" yMin="-670" xMax="150" yMax="-70">
      <contour>
        <pt x="-850" y="-170" on="1"/>
        <pt x="-250" y="-170" on="1"/>
        <pt x="-250" y="-70" on="1"/>
        <pt x="50" y="-70" on="1"/>
        <pt x="50" y="-170" on="1"/>
        <pt x="150" y="-170" on="1"/>
        <pt x="150" y="-320" on="1"/>
        <pt x="50" y="-320" on="1"/>
        <pt x="50" y="-670" on="1"/>
        <pt x="-250" y="-670" on="1"/>
        <pt x="-400" y="-550" on="1"/>
        <pt x="-550" y="-670" on="1"/>
        <pt x="-850" y="-670" on="1"/>
      </contour>
      <contour>
        <pt x="-250" y="-470" on="1"/>
        <pt x="-250" y="-320" on="1"/>
        <pt x="-550" y="-320" on="1"/>
        <pt x="-550" y="-470" on="1"/>
        <pt x="-400" y="-370" on="1"/>
      </contour>
    </TTGlyph>
    <TTGlyph name="glyph212" xMin="-850" yMin="-700" xMax="50" yMax="-100">
      <contour>
        <pt x="50" y="-318" on="1"/>
        <pt x="50" y="-387" on="0"/>
        <pt x="-550" y="-455" on="1"/>
        <pt x="-550" y="-600" on="1"/>
        <pt x="-250" y="-533" on="1"/>
        <pt x="-250" y="-450" on="1"/>
        <pt x="50" y="-450" on="1"/>
        <pt x="50" y="-700" on="1"/>
        <pt x="-250" y="-700" on="1"/>
        <pt x="-250" y="-620" on="1"/>
        <pt x="-550" y="-700" on="1"/>
        <pt x="-850" y="-700" on="1"/>
        <pt x="-850" y="-412" on="1"/>
        <pt x="-250" y="-344" on="0"/>
        <pt x="-250" y="-297" on="1"/>
        <pt x="-250" y="-240" on="1"/>
        <pt x="-400" y="-306" on="1"/>
        <pt x="-550" y="-240" on="1"/>
        <pt x="-550" y="-328" on="1"/>
        <pt x="-850" y="-328" on="1"/>
        <pt x="-850" y="-100" on="1"/>
        <pt x="-565" y="-100" on="1"/>
        <pt x="-400" y="-188" on="1"/>
        <pt x="-235" y="-100" on="1"/>
        <pt x="50" y="-100" on="1"/>
      </contour>
    </TTGlyph>
    <TTGlyph name="glyph213" xMin="-850" yMin="-700" xMax="50" yMax="-100">
      <contour>
        <pt x="-250" y="-700" on="1"/>
        <pt x="-250" y="-250" on="1"/>
        <pt x="-550" y="-250" on="1"/>
        <pt x="-550" y="-500" on="1"/>
        <pt x="-450" y="-500" on="1"/>
        <pt x="-450" y="-700" on="1"/>
        <pt x="-850" y="-700" on="1"/>
        <pt x="-850" y="-250" on="1"/>
        <pt x="-850" y="-100" on="0"/>
        <pt x="-600" y="-100" on="1"/>
        <pt x="-200" y="-100" on="1"/>
        <pt x="50" y="-100" on="0"/>
        <pt x="50" y="-250" on="1"/>
        <pt x="50" y="-700" on="1"/>
      </contour>
    </TTGlyph>
    <TTGlyph name="glyph214" xMin="-900" yMin="-650" xMax="100" yMax="-100">
      <contour>
        <pt x="100" y="-650" on="1"/>
        <pt x="-20" y="-650" on="1"/>
        <pt x="-214" y="-650" on="0"/>
        <pt x="-408" y="-350" on="1"/>
        <pt x="-473" y="-250" on="0"/>
        <pt x="-554" y="-250" on="1"/>
        <pt x="-636" y="-250" on="0"/>
        <pt x="-636" y="-350" on="1"/>
        <pt x="-636" y="-400" on="1"/>
        <pt x="-531" y="-400" on="1"/>
        <pt x="-531" y="-600" on="1"/>
        <pt x="-900" y="-600" on="1"/>
        <pt x="-900" y="-300" on="1"/>
        <pt x="-900" y="-100" on="0"/>
        <pt x="-625" y="-100" on="1"/>
        <pt x="-543" y="-100" on="1"/>
        <pt x="-387" y="-100" on="0"/>
        <pt x="-255" y="-225" on="1"/>
        <pt x="-124" y="-350" on="0"/>
        <pt x="-20" y="-350" on="1"/>
        <pt x="100" y="-350" on="1"/>
      </contour>
    </TTGlyph>
    <TTGlyph name="glyph215" xMin="-850" yMin="-700" xMax="50" yMax="-100">
      <contour>
        <pt x="-250" y="-263" on="0"/>
        <pt x="-250" y="-200" on="1"/>
        <pt x="-363" y="-200" on="1"/>
        <pt x="-363" y="-100" on="1"/>
        <pt x="50" y="-100" on="1"/>
        <pt x="50" y="-219" on="1"/>
        <pt x="50" y="-338" on="0"/>
        <pt x="-180" y="-366" on="1"/>
        <pt x="-550" y="-394" on="1"/>
        <pt x="-550" y="-514" on="1"/>
        <pt x="50" y="-427" on="1"/>
        <pt x="50" y="-590" on="1"/>
        <pt x="50" y="-700" on="0"/>
        <pt x="-96" y="-700" on="1"/>
        <pt x="-356" y="-700" on="1"/>
        <pt x="-290" y="-645" on="1"/>
        <pt x="-290" y="-590" on="1"/>
        <pt x="-511" y="-645" on="1"/>
        <pt x="-850" y="-645" on="1"/>
        <pt x="-850" y="-318" on="1"/>
        <pt x="-425" y="-277" on="1"/>
      </contour>
    </TTGlyph>
    <TTGlyph name="glyph216" xMin="-850" yMin="-700" xMax="50" yMax="-100">
      <contour>
        <pt x="-220" y="-100" on="1"/>
        <pt x="50" y="-100" on="1"/>
        <pt x="50" y="-400" on="1"/>
        <pt x="50" y="-476" on="0"/>
        <pt x="-69" y="-552" on="0"/>
        <pt x="-234" y="-552" on="1"/>
        <pt x="-344" y="-518" on="1"/>
        <pt x="-344" y="-580" on="0"/>
        <pt x="-400" y="-640" on="1"/>
        <pt x="-454" y="-700" on="0"/>
        <pt x="-564" y="-700" on="1"/>
        <pt x="-850" y="-700" on="1"/>
        <pt x="-850" y="-326" on="1"/>
        <pt x="-564" y="-258" on="0"/>
        <pt x="-220" y="-145" on="0"/>
      </contour>
      <contour>
        <pt x="-380" y="-372" on="1"/>
        <pt x="-220" y="-409" on="1"/>
        <pt x="-220" y="-280" on="1"/>
      </contour>
      <contour>
        <pt x="-564" y="-475" on="1"/>
        <pt x="-564" y="-580" on="1"/>
        <pt x="-509" y="-580" on="0"/>
        <pt x="-481" y="-550" on="1"/>
        <pt x="-454" y="-521" on="0"/>
        <pt x="-454" y="-462" on="1"/>
        <pt x="-454" y="-427" on="1"/>
      </contour>
    </TTGlyph>
    <TTGlyph name="glyph217" xMin="-800" yMin="-700" xMax="150" yMax="-100">
      <contour>
        <pt x="-800" y="-600" on="0"/>
        <pt x="-800" y="-500" on="1"/>
        <pt x="-800" y="-300" on="1"/>
        <pt x="-800" y="-200" on="0"/>
        <pt x="-650" y="-200" on="1"/>
        <pt x="-250" y="-200" on="1"/>
        <pt x="-250" y="-100" on="1"/>
        <pt x="50" y="-100" on="1"/>
        <pt x="50" y="-200" on="1"/>
        <pt x="150" y="-200" on="1"/>
        <pt x="150" y="-350" on="1"/>
        <pt x="50" y="-350" on="1"/>
        <pt x="50" y="-450" on="1"/>
        <pt x="150" y="-450" on="1"/>
        <pt x="150" y="-700" on="1"/>
        <pt x="-250" y="-700" on="1"/>
        <pt x="-250" y="-600" on="1"/>
        <pt x="-650" y="-600" on="1"/>
      </contour>
      <contour>
        <pt x="-500" y="-450" on="1"/>
        <pt x="-250" y="-450" on="1"/>
        <pt x="-250" y="-350" on="1"/>
        <pt x="-500" y="-350" on="1"/>
      </contour>
    </TTGlyph>
    <TTGlyph name="glyph218" xMin="-850" yMin="-700" xMax="50" yMax="-100">
      <contour>
        <pt x="50" y="-700" on="1"/>
        <pt x="-250" y="-700" on="1"/>
        <pt x="-400" y="-554" on="1"/>
        <pt x="-550" y="-700" on="1"/>
        <pt x="-850" y="-700" on="1"/>
        <pt x="-850" y="-100" on="1"/>
        <pt x="-550" y="-100" on="1"/>
        <pt x="-550" y="-477" on="1"/>
        <pt x="-400" y="-331" on="1"/>
        <pt x="-250" y="-477" on="1"/>
        <pt x="-250" y="-300" on="1"/>
        <pt x="-350" y="-300" on="1"/>
        <pt x="-350" y="-100" on="1"/>
        <pt x="50" y="-100" on="1"/>
      </contour>
    </TTGlyph>
    <TTGlyph name="glyph219" xMin="-850" yMin="-700" xMax="50" yMax="-100">
      <contour>
        <pt x="50" y="-700" on="1"/>
        <pt x="-250" y="-700" on="1"/>
        <pt x="-250" y="-295" on="1"/>
        <pt x="-400" y="-392" on="1"/>
        <pt x="-550" y="-295" on="1"/>
        <pt x="-550" y="-500" on="1"/>
        <pt x="-450" y="-500" on="1"/>
        <pt x="-450" y="-700" on="1"/>
        <pt x="-850" y="-700" on="1"/>
        <pt x="-850" y="-100" on="1"/>
        <pt x="-550" y="-100" on="1"/>
        <pt x="-400" y="-197" on="1"/>
        <pt x="-250" y="-100" on="1"/>
        <pt x="50" y="-100" on="1"/>
      </contour>
    </TTGlyph>
    <TTGlyph name="glyph220" xMin="-950" yMin="-700" xMax="50" yMax="-100">
      <contour>
        <pt x="-550" y="-700" on="1"/>
        <pt x="-950" y="-700" on="1"/>
        <pt x="-950" y="-500" on="1"/>
        <pt x="-850" y="-500" on="1"/>
        <pt x="-850" y="-250" on="1"/>
        <pt x="-850" y="-100" on="0"/>
        <pt x="-600" y="-100" on="1"/>
        <pt x="-200" y="-100" on="1"/>
        <pt x="50" y="-100" on="0"/>
        <pt x="50" y="-250" on="1"/>
        <pt x="50" y="-700" on="1"/>
        <pt x="-250" y="-700" on="1"/>
        <pt x="-250" y="-250" on="1"/>
        <pt x="-550" y="-250" on="1"/>
      </contour>
    </TTGlyph>
    <TTGlyph name="glyph221" xMin="-1000" yMin="-700" xMax="100" yMax="-50">
      <contour>
        <pt x="-250" y="-300" on="1"/>
        <pt x="-250" y="-50" on="1"/>
        <pt x="50" y="-50" on="1"/>
        <pt x="50" y="-238" on="1"/>
        <pt x="-73" y="-301" on="1"/>
        <pt x="-36" y="-306" on="0"/>
        <pt x="-1" y="-325" on="1"/>
        <pt x="46" y="-351" on="0"/>
        <pt x="100" y="-447" on="0"/>
        <pt x="100" y="-500" on="1"/>
        <pt x="100" y="-700" on="0"/>
        <pt x="-68" y="-700" on="1"/>
        <pt x="-236" y="-700" on="0"/>
        <pt x="-243" y="-549" on="1"/>
        <pt x="-1000" y="-550" on="1"/>
        <pt x="-1000" y="-300" on="1"/>
      </contour>
    </TTGlyph>
    <TTGlyph name="glyph222" xMin="-850" yMin="-650" xMax="50" yMax="-150">
      <contour>
        <pt x="-250" y="-650" on="1"/>
        <pt x="-550" y="-400" on="1"/>
        <pt x="-550" y="-650" on="1"/>
        <pt x="-850" y="-650" on="1"/>
        <pt x="-850" y="-150" on="1"/>
        <pt x="-550" y="-150" on="1"/>
        <pt x="-250" y="-399" on="1"/>
        <pt x="-250" y="-150" on="1"/>
        <pt x="50" y="-150" on="1"/>
        <pt x="50" y="-650" on="1"/>
      </contour>
    </TTGlyph>
    <TTGlyph name="glyph223" xMin="-850" yMin="-700" xMax="50" yMax="-100">
      <contour>
        <pt x="-461" y="-700" on="1"/>
        <pt x="-705" y="-700" on="0"/>
        <pt x="-850" y="-570" on="0"/>
        <pt x="-850" y="-451" on="1"/>
        <pt x="-850" y="-350" on="1"/>
        <pt x="-736" y="-324" on="0"/>
        <pt x="-552" y="-262" on="1"/>
        <pt x="-369" y="-199" on="0"/>
        <pt x="-250" y="-100" on="1"/>
        <pt x="50" y="-100" on="1"/>
        <pt x="50" y="-201" on="1"/>
        <pt x="50" y="-448" on="0"/>
        <pt x="-252" y="-700" on="0"/>
      </contour>
      <contour>
        <pt x="-550" y="-447" on="1"/>
        <pt x="-550" y="-497" on="0"/>
        <pt x="-522" y="-524" on="1"/>
        <pt x="-495" y="-549" on="0"/>
        <pt x="-440" y="-549" on="1"/>
        <pt x="-329" y="-549" on="0"/>
        <pt x="-289" y="-483" on="1"/>
        <pt x="-250" y="-417" on="0"/>
        <pt x="-250" y="-276" on="1"/>
        <pt x="-302" y="-338" on="0"/>
        <pt x="-385" y="-381" on="1"/>
        <pt x="-467" y="-423" on="0"/>
      </contour>
    </TTGlyph>
    <TTGlyph name="glyph224" xMin="-850" yMin="-650" xMax="50" yMax="-150">
      <contour>
        <pt x="-600" y="-500" on="1"/>
        <pt x="-490" y="-500" on="1"/>
        <pt x="-490" y="-150" on="1"/>
        <pt x="-115" y="-150" on="1"/>
        <pt x="-32" y="-150" on="0"/>
        <pt x="9" y="-188" on="1"/>
        <pt x="50" y="-225" on="0"/>
        <pt x="50" y="-275" on="1"/>
        <pt x="50" y="-650" on="1"/>
        <pt x="-200" y="-650" on="1"/>
        <pt x="-200" y="-300" on="1"/>
        <pt x="-310" y="-300" on="1"/>
        <pt x="-310" y="-650" on="1"/>
        <pt x="-685" y="-650" on="1"/>
        <pt x="-767" y="-650" on="0"/>
        <pt x="-808" y="-612" on="1"/>
        <pt x="-850" y="-575" on="0"/>
        <pt x="-850" y="-525" on="1"/>
        <pt x="-850" y="-150" on="1"/>
        <pt x="-600" y="-150" on="1"/>
      </contour>
    </TTGlyph>
    <TTGlyph name="glyph225" xMin="-950" yMin="-700" xMax="50" yMax="-100">
      <contour>
        <pt x="-550" y="-100" on="1"/>
        <pt x="-550" y="-700" on="1"/>
        <pt x="-950" y="-700" on="1"/>
        <pt x="-950" y="-550" on="1"/>
        <pt x="-850" y="-550" on="1"/>
        <pt x="-850" y="-100" on="1"/>
      </contour>
      <contour>
        <pt x="-250" y="-250" on="1"/>
        <pt x="-250" y="-100" on="1"/>
        <pt x="50" y="-100" on="1"/>
        <pt x="50" y="-700" on="1"/>
        <pt x="-350" y="-700" on="1"/>
        <pt x="-350" y="-550" on="1"/>
        <pt x="-250" y="-550" on="1"/>
        <pt x="-250" y="-400" on="1"/>
        <pt x="-500" y="-400" on="1"/>
        <pt x="-500" y="-250" on="1"/>
      </contour>
    </TTGlyph>
    <TTGlyph name="glyph226" xMin="-1750" yMin="-700" xMax="-850" yMax="-100">
      <contour>
        <pt x="-1150" y="-700" on="1"/>
        <pt x="-1150" y="-250" on="1"/>
        <pt x="-1450" y="-250" on="1"/>
        <pt x="-1450" y="-700" on="1"/>
        <pt x="-1750" y="-700" on="1"/>
        <pt x="-1750" y="-250" on="1"/>
        <pt x="-1750" y="-100" on="0"/>
        <pt x="-1500" y="-100" on="1"/>
        <pt x="-1100" y="-100" on="1"/>
        <pt x="-850" y="-100" on="0"/>
        <pt x="-850" y="-250" on="1"/>
        <pt x="-850" y="-700" on="1"/>
      </contour>
    </TTGlyph>
    <TTGlyph name="glyph227" xMin="-1750" yMin="-700" xMax="-850" yMax="-100">
      <contour>
        <pt x="-1450" y="-308" on="1"/>
        <pt x="-1567" y="-308" on="1"/>
        <pt x="-1750" y="-308" on="0"/>
        <pt x="-1750" y="-274" on="1"/>
        <pt x="-1750" y="-200" on="1"/>
        <pt x="-1750" y="-100" on="0"/>
        <pt x="-1500" y="-100" on="1"/>
        <pt x="-1100" y="-100" on="1"/>
        <pt x="-850" y="-100" on="0"/>
        <pt x="-850" y="-200" on="1"/>
        <pt x="-850" y="-318" on="1"/>
        <pt x="-850" y="-387" on="0"/>
        <pt x="-1450" y="-455" on="0"/>
        <pt x="-1450" y="-522" on="1"/>
        <pt x="-1450" y="-600" on="1"/>
        <pt x="-1150" y="-600" on="1"/>
        <pt x="-1150" y="-491" on="1"/>
        <pt x="-850" y="-437" on="1"/>
        <pt x="-850" y="-600" on="1"/>
        <pt x="-850" y="-700" on="0"/>
        <pt x="-1100" y="-700" on="1"/>
        <pt x="-1500" y="-700" on="1"/>
        <pt x="-1750" y="-700" on="0"/>
        <pt x="-1750" y="-600" on="1"/>
        <pt x="-1750" y="-481" on="1"/>
        <pt x="-1750" y="-412" on="0"/>
        <pt x="-1150" y="-344" on="0"/>
        <pt x="-1150" y="-297" on="1"/>
        <pt x="-1150" y="-200" on="1"/>
        <pt x="-1450" y="-200" on="1"/>
      </contour>
    </TTGlyph>
    <TTGlyph name="glyph228" xMin="-1750" yMin="-700" xMax="-850" yMax="-100">
      <contour>
        <pt x="-1450" y="-481" on="1"/>
        <pt x="-1352" y="-375" on="1"/>
        <pt x="-1262" y="-464" on="1"/>
        <pt x="-1450" y="-688" on="1"/>
        <pt x="-1450" y="-700" on="1"/>
        <pt x="-1750" y="-700" on="1"/>
        <pt x="-1750" y="-250" on="1"/>
        <pt x="-1750" y="-100" on="0"/>
        <pt x="-1500" y="-100" on="1"/>
        <pt x="-1100" y="-100" on="1"/>
        <pt x="-850" y="-100" on="0"/>
        <pt x="-850" y="-250" on="1"/>
        <pt x="-850" y="-700" on="1"/>
        <pt x="-1150" y="-700" on="1"/>
        <pt x="-1150" y="-250" on="1"/>
        <pt x="-1450" y="-250" on="1"/>
      </contour>
    </TTGlyph>
    <TTGlyph name="glyph229" xMin="-1750" yMin="-700" xMax="-850" yMax="-100">
      <contour>
        <pt x="-1352" y="-700" on="1"/>
        <pt x="-1750" y="-700" on="0"/>
        <pt x="-1750" y="-450" on="1"/>
        <pt x="-1750" y="-400" on="1"/>
        <pt x="-1750" y="-200" on="0"/>
        <pt x="-1500" y="-200" on="1"/>
        <pt x="-1350" y="-200" on="1"/>
        <pt x="-1350" y="-350" on="1"/>
        <pt x="-1450" y="-350" on="0"/>
        <pt x="-1450" y="-450" on="1"/>
        <pt x="-1450" y="-550" on="0"/>
        <pt x="-1352" y="-550" on="1"/>
        <pt x="-1150" y="-550" on="0"/>
        <pt x="-1150" y="-100" on="1"/>
        <pt x="-850" y="-100" on="1"/>
        <pt x="-850" y="-700" on="0"/>
      </contour>
    </TTGlyph>
    <TTGlyph name="glyph230" xMin="-1825" yMin="-700" xMax="-775" yMax="-100">
      <contour>
        <pt x="-875" y="-700" on="1"/>
        <pt x="-1525" y="-700" on="1"/>
        <pt x="-1775" y="-700" on="0"/>
        <pt x="-1775" y="-550" on="1"/>
        <pt x="-1775" y="-250" on="1"/>
        <pt x="-1825" y="-250" on="1"/>
        <pt x="-1825" y="-100" on="1"/>
        <pt x="-1475" y="-100" on="1"/>
        <pt x="-1475" y="-550" on="1"/>
        <pt x="-1175" y="-550" on="1"/>
        <pt x="-1175" y="-300" on="1"/>
        <pt x="-1275" y="-300" on="1"/>
        <pt x="-1275" y="-200" on="1"/>
        <pt x="-1175" y="-200" on="1"/>
        <pt x="-1175" y="-100" on="1"/>
        <pt x="-875" y="-100" on="1"/>
        <pt x="-875" y="-200" on="1"/>
        <pt x="-775" y="-200" on="1"/>
        <pt x="-775" y="-300" on="1"/>
        <pt x="-875" y="-300" on="1"/>
      </contour>
    </TTGlyph>
    <TTGlyph name="glyph231" xMin="-1800" yMin="-700" xMax="-800" yMax="-100">
      <contour>
        <pt x="-1100" y="-529" on="1"/>
        <pt x="-1100" y="-300" on="1"/>
        <pt x="-1200" y="-300" on="1"/>
        <pt x="-1200" y="-100" on="1"/>
        <pt x="-800" y="-100" on="1"/>
        <pt x="-800" y="-700" on="1"/>
        <pt x="-1100" y="-700" on="1"/>
        <pt x="-1400" y="-540" on="1"/>
        <pt x="-1400" y="-700" on="1"/>
        <pt x="-1700" y="-700" on="1"/>
        <pt x="-1700" y="-500" on="1"/>
        <pt x="-1800" y="-500" on="1"/>
        <pt x="-1800" y="-350" on="1"/>
        <pt x="-1700" y="-350" on="1"/>
        <pt x="-1700" y="-100" on="1"/>
        <pt x="-1400" y="-100" on="1"/>
        <pt x="-1400" y="-370" on="1"/>
      </contour>
    </TTGlyph>
    <TTGlyph name="glyph232" xMin="-1800" yMin="-700" xMax="-800" yMax="-100">
      <contour>
        <pt x="-900" y="-700" on="1"/>
        <pt x="-1200" y="-700" on="1"/>
        <pt x="-1350" y="-554" on="1"/>
        <pt x="-1500" y="-700" on="1"/>
        <pt x="-1800" y="-700" on="1"/>
        <pt x="-1800" y="-100" on="1"/>
        <pt x="-1500" y="-100" on="1"/>
        <pt x="-1500" y="-477" on="1"/>
        <pt x="-1350" y="-331" on="1"/>
        <pt x="-1200" y="-477" on="1"/>
        <pt x="-1200" y="-300" on="1"/>
        <pt x="-1300" y="-300" on="1"/>
        <pt x="-1300" y="-200" on="1"/>
        <pt x="-1200" y="-200" on="1"/>
        <pt x="-1200" y="-100" on="1"/>
        <pt x="-900" y="-100" on="1"/>
        <pt x="-900" y="-200" on="1"/>
        <pt x="-800" y="-200" on="1"/>
        <pt x="-800" y="-300" on="1"/>
        <pt x="-900" y="-300" on="1"/>
      </contour>
    </TTGlyph>
    <TTGlyph name="glyph233" xMin="-1800" yMin="-650" xMax="-800" yMax="-150">
      <contour>
        <pt x="-1800" y="-200" on="1"/>
        <pt x="-1717" y="-200" on="1"/>
        <pt x="-1512" y="-200" on="0"/>
        <pt x="-1381" y="-335" on="1"/>
        <pt x="-1250" y="-470" on="0"/>
        <pt x="-1163" y="-470" on="1"/>
        <pt x="-1077" y="-470" on="0"/>
        <pt x="-1077" y="-350" on="1"/>
        <pt x="-1188" y="-350" on="1"/>
        <pt x="-1188" y="-150" on="1"/>
        <pt x="-800" y="-150" on="1"/>
        <pt x="-800" y="-350" on="1"/>
        <pt x="-800" y="-650" on="0"/>
        <pt x="-1110" y="-650" on="1"/>
        <pt x="-1296" y="-650" on="0"/>
        <pt x="-1430" y="-550" on="1"/>
        <pt x="-1563" y="-450" on="0"/>
        <pt x="-1673" y="-450" on="1"/>
        <pt x="-1800" y="-450" on="1"/>
      </contour>
    </TTGlyph>
    <TTGlyph name="glyph234" xMin="-1750" yMin="-700" xMax="-850" yMax="-100">
      <contour>
        <pt x="-1150" y="-700" on="1"/>
        <pt x="-1150" y="-250" on="1"/>
        <pt x="-1450" y="-250" on="1"/>
        <pt x="-1450" y="-500" on="1"/>
        <pt x="-1350" y="-500" on="1"/>
        <pt x="-1350" y="-700" on="1"/>
        <pt x="-1750" y="-700" on="1"/>
        <pt x="-1750" y="-250" on="1"/>
        <pt x="-1750" y="-100" on="0"/>
        <pt x="-1500" y="-100" on="1"/>
        <pt x="-1100" y="-100" on="1"/>
        <pt x="-850" y="-100" on="0"/>
        <pt x="-850" y="-250" on="1"/>
        <pt x="-850" y="-700" on="1"/>
      </contour>
    </TTGlyph>
    <TTGlyph name="glyph235" xMin="-1750" yMin="-670" xMax="-750" yMax="-70">
      <contour>
        <pt x="-1750" y="-170" on="1"/>
        <pt x="-1150" y="-170" on="1"/>
        <pt x="-1150" y="-70" on="1"/>
        <pt x="-850" y="-70" on="1"/>
        <pt x="-850" y="-170" on="1"/>
        <pt x="-750" y="-170" on="1"/>
        <pt x="-750" y="-320" on="1"/>
        <pt x="-850" y="-320" on="1"/>
        <pt x="-850" y="-670" on="1"/>
        <pt x="-1150" y="-670" on="1"/>
        <pt x="-1300" y="-550" on="1"/>
        <pt x="-1450" y="-670" on="1"/>
        <pt x="-1750" y="-670" on="1"/>
      </contour>
      <contour>
        <pt x="-1150" y="-470" on="1"/>
        <pt x="-1150" y="-320" on="1"/>
        <pt x="-1450" y="-320" on="1"/>
        <pt x="-1450" y="-470" on="1"/>
        <pt x="-1300" y="-370" on="1"/>
      </contour>
    </TTGlyph>
    <TTGlyph name="glyph236" xMin="-1750" yMin="-700" xMax="-850" yMax="-100">
      <contour>
        <pt x="-850" y="-318" on="1"/>
        <pt x="-850" y="-387" on="0"/>
        <pt x="-1450" y="-455" on="1"/>
        <pt x="-1450" y="-600" on="1"/>
        <pt x="-1150" y="-533" on="1"/>
        <pt x="-1150" y="-450" on="1"/>
        <pt x="-850" y="-450" on="1"/>
        <pt x="-850" y="-700" on="1"/>
        <pt x="-1150" y="-700" on="1"/>
        <pt x="-1150" y="-620" on="1"/>
        <pt x="-1450" y="-700" on="1"/>
        <pt x="-1750" y="-700" on="1"/>
        <pt x="-1750" y="-412" on="1"/>
        <pt x="-1150" y="-344" on="0"/>
        <pt x="-1150" y="-297" on="1"/>
        <pt x="-1150" y="-240" on="1"/>
        <pt x="-1300" y="-306" on="1"/>
        <pt x="-1450" y="-240" on="1"/>
        <pt x="-1450" y="-328" on="1"/>
        <pt x="-1750" y="-328" on="1"/>
        <pt x="-1750" y="-100" on="1"/>
        <pt x="-1465" y="-100" on="1"/>
        <pt x="-1300" y="-188" on="1"/>
        <pt x="-1135" y="-100" on="1"/>
        <pt x="-850" y="-100" on="1"/>
      </contour>
    </TTGlyph>
    <TTGlyph name="glyph237" xMin="-1750" yMin="-700" xMax="-850" yMax="-100">
      <contour>
        <pt x="-1150" y="-700" on="1"/>
        <pt x="-1150" y="-250" on="1"/>
        <pt x="-1450" y="-250" on="1"/>
        <pt x="-1450" y="-500" on="1"/>
        <pt x="-1350" y="-500" on="1"/>
        <pt x="-1350" y="-700" on="1"/>
        <pt x="-1750" y="-700" on="1"/>
        <pt x="-1750" y="-250" on="1"/>
        <pt x="-1750" y="-100" on="0"/>
        <pt x="-1500" y="-100" on="1"/>
        <pt x="-1100" y="-100" on="1"/>
        <pt x="-850" y="-100" on="0"/>
        <pt x="-850" y="-250" on="1"/>
        <pt x="-850" y="-700" on="1"/>
      </contour>
    </TTGlyph>
    <TTGlyph name="glyph238" xMin="-1800" yMin="-650" xMax="-800" yMax="-100">
      <contour>
        <pt x="-800" y="-650" on="1"/>
        <pt x="-920" y="-650" on="1"/>
        <pt x="-1114" y="-650" on="0"/>
        <pt x="-1308" y="-350" on="1"/>
        <pt x="-1373" y="-250" on="0"/>
        <pt x="-1454" y="-250" on="1"/>
        <pt x="-1536" y="-250" on="0"/>
        <pt x="-1536" y="-350" on="1"/>
        <pt x="-1536" y="-400" on="1"/>
        <pt x="-1431" y="-400" on="1"/>
        <pt x="-1431" y="-600" on="1"/>
        <pt x="-1800" y="-600" on="1"/>
        <pt x="-1800" y="-300" on="1"/>
        <pt x="-1800" y="-100" on="0"/>
        <pt x="-1525" y="-100" on="1"/>
        <pt x="-1443" y="-100" on="1"/>
        <pt x="-1287" y="-100" on="0"/>
        <pt x="-1155" y="-225" on="1"/>
        <pt x="-1024" y="-350" on="0"/>
        <pt x="-920" y="-350" on="1"/>
        <pt x="-800" y="-350" on="1"/>
      </contour>
    </TTGlyph>
    <TTGlyph name="glyph239" xMin="-1750" yMin="-700" xMax="-850" yMax="-100">
      <contour>
        <pt x="-1150" y="-263" on="0"/>
        <pt x="-1150" y="-200" on="1"/>
        <pt x="-1263" y="-200" on="1"/>
        <pt x="-1263" y="-100" on="1"/>
        <pt x="-850" y="-100" on="1"/>
        <pt x="-850" y="-219" on="1"/>
        <pt x="-850" y="-338" on="0"/>
        <pt x="-1080" y="-366" on="1"/>
        <pt x="-1450" y="-394" on="1"/>
        <pt x="-1450" y="-514" on="1"/>
        <pt x="-850" y="-427" on="1"/>
        <pt x="-850" y="-590" on="1"/>
        <pt x="-850" y="-700" on="0"/>
        <pt x="-996" y="-700" on="1"/>
        <pt x="-1256" y="-700" on="1"/>
        <pt x="-1190" y="-645" on="1"/>
        <pt x="-1190" y="-590" on="1"/>
        <pt x="-1411" y="-645" on="1"/>
        <pt x="-1750" y="-645" on="1"/>
        <pt x="-1750" y="-318" on="1"/>
        <pt x="-1325" y="-277" on="1"/>
      </contour>
    </TTGlyph>
    <TTGlyph name="glyph240" xMin="-1750" yMin="-700" xMax="-850" yMax="-100">
      <contour>
        <pt x="-1120" y="-100" on="1"/>
        <pt x="-850" y="-100" on="1"/>
        <pt x="-850" y="-400" on="1"/>
        <pt x="-850" y="-476" on="0"/>
        <pt x="-969" y="-552" on="0"/>
        <pt x="-1134" y="-552" on="1"/>
        <pt x="-1244" y="-518" on="1"/>
        <pt x="-1244" y="-580" on="0"/>
        <pt x="-1300" y="-640" on="1"/>
        <pt x="-1354" y="-700" on="0"/>
        <pt x="-1464" y="-700" on="1"/>
        <pt x="-1750" y="-700" on="1"/>
        <pt x="-1750" y="-326" on="1"/>
        <pt x="-1464" y="-258" on="0"/>
        <pt x="-1120" y="-145" on="0"/>
      </contour>
      <contour>
        <pt x="-1280" y="-372" on="1"/>
        <pt x="-1120" y="-409" on="1"/>
        <pt x="-1120" y="-280" on="1"/>
      </contour>
      <contour>
        <pt x="-1464" y="-475" on="1"/>
        <pt x="-1464" y="-580" on="1"/>
        <pt x="-1409" y="-580" on="0"/>
        <pt x="-1381" y="-550" on="1"/>
        <pt x="-1354" y="-521" on="0"/>
        <pt x="-1354" y="-462" on="1"/>
        <pt x="-1354" y="-427" on="1"/>
      </contour>
    </TTGlyph>
    <TTGlyph name="glyph241" xMin="-1775" yMin="-700" xMax="-825" yMax="-100">
      <contour>
        <pt x="-1775" y="-600" on="0"/>
        <pt x="-1775" y="-500" on="1"/>
        <pt x="-1775" y="-300" on="1"/>
        <pt x="-1775" y="-200" on="0"/>
        <pt x="-1625" y="-200" on="1"/>
        <pt x="-1225" y="-200" on="1"/>
        <pt x="-1225" y="-100" on="1"/>
        <pt x="-925" y="-100" on="1"/>
        <pt x="-925" y="-200" on="1"/>
        <pt x="-825" y="-200" on="1"/>
        <pt x="-825" y="-350" on="1"/>
        <pt x="-925" y="-350" on="1"/>
        <pt x="-925" y="-450" on="1"/>
        <pt x="-825" y="-450" on="1"/>
        <pt x="-825" y="-700" on="1"/>
        <pt x="-1225" y="-700" on="1"/>
        <pt x="-1225" y="-600" on="1"/>
        <pt x="-1625" y="-600" on="1"/>
      </contour>
      <contour>
        <pt x="-1475" y="-450" on="1"/>
        <pt x="-1225" y="-450" on="1"/>
        <pt x="-1225" y="-350" on="1"/>
        <pt x="-1475" y="-350" on="1"/>
      </contour>
    </TTGlyph>
    <TTGlyph name="glyph242" xMin="-1750" yMin="-700" xMax="-850" yMax="-100">
      <contour>
        <pt x="-850" y="-700" on="1"/>
        <pt x="-1150" y="-700" on="1"/>
        <pt x="-1300" y="-554" on="1"/>
        <pt x="-1450" y="-700" on="1"/>
        <pt x="-1750" y="-700" on="1"/>
        <pt x="-1750" y="-100" on="1"/>
        <pt x="-1450" y="-100" on="1"/>
        <pt x="-1450" y="-477" on="1"/>
        <pt x="-1300" y="-331" on="1"/>
        <pt x="-1150" y="-477" on="1"/>
        <pt x="-1150" y="-300" on="1"/>
        <pt x="-1250" y="-300" on="1"/>
        <pt x="-1250" y="-100" on="1"/>
        <pt x="-850" y="-100" on="1"/>
      </contour>
    </TTGlyph>
    <TTGlyph name="glyph243" xMin="-1750" yMin="-700" xMax="-850" yMax="-100">
      <contour>
        <pt x="-850" y="-700" on="1"/>
        <pt x="-1150" y="-700" on="1"/>
        <pt x="-1150" y="-295" on="1"/>
        <pt x="-1300" y="-392" on="1"/>
        <pt x="-1450" y="-295" on="1"/>
        <pt x="-1450" y="-500" on="1"/>
        <pt x="-1350" y="-500" on="1"/>
        <pt x="-1350" y="-700" on="1"/>
        <pt x="-1750" y="-700" on="1"/>
        <pt x="-1750" y="-100" on="1"/>
        <pt x="-1450" y="-100" on="1"/>
        <pt x="-1300" y="-197" on="1"/>
        <pt x="-1150" y="-100" on="1"/>
        <pt x="-850" y="-100" on="1"/>
      </contour>
    </TTGlyph>
    <TTGlyph name="glyph244" xMin="-1800" yMin="-700" xMax="-800" yMax="-100">
      <contour>
        <pt x="-1400" y="-700" on="1"/>
        <pt x="-1800" y="-700" on="1"/>
        <pt x="-1800" y="-500" on="1"/>
        <pt x="-1700" y="-500" on="1"/>
        <pt x="-1700" y="-250" on="1"/>
        <pt x="-1700" y="-100" on="0"/>
        <pt x="-1450" y="-100" on="1"/>
        <pt x="-1050" y="-100" on="1"/>
        <pt x="-800" y="-100" on="0"/>
        <pt x="-800" y="-250" on="1"/>
        <pt x="-800" y="-700" on="1"/>
        <pt x="-1100" y="-700" on="1"/>
        <pt x="-1100" y="-250" on="1"/>
        <pt x="-1400" y="-250" on="1"/>
      </contour>
    </TTGlyph>
    <TTGlyph name="glyph245" xMin="-1850" yMin="-700" xMax="-750" yMax="-50">
      <contour>
        <pt x="-1100" y="-300" on="1"/>
        <pt x="-1100" y="-50" on="1"/>
        <pt x="-800" y="-50" on="1"/>
        <pt x="-800" y="-238" on="1"/>
        <pt x="-923" y="-301" on="1"/>
        <pt x="-886" y="-306" on="0"/>
        <pt x="-851" y="-325" on="1"/>
        <pt x="-804" y="-351" on="0"/>
        <pt x="-750" y="-447" on="0"/>
        <pt x="-750" y="-500" on="1"/>
        <pt x="-750" y="-700" on="0"/>
        <pt x="-918" y="-700" on="1"/>
        <pt x="-1086" y="-700" on="0"/>
        <pt x="-1093" y="-549" on="1"/>
        <pt x="-1850" y="-550" on="1"/>
        <pt x="-1850" y="-300" on="1"/>
      </contour>
    </TTGlyph>
    <TTGlyph name="glyph246" xMin="-1750" yMin="-650" xMax="-850" yMax="-150">
      <contour>
        <pt x="-1150" y="-650" on="1"/>
        <pt x="-1450" y="-400" on="1"/>
        <pt x="-1450" y="-650" on="1"/>
        <pt x="-1750" y="-650" on="1"/>
        <pt x="-1750" y="-150" on="1"/>
        <pt x="-1450" y="-150" on="1"/>
        <pt x="-1150" y="-399" on="1"/>
        <pt x="-1150" y="-150" on="1"/>
        <pt x="-850" y="-150" on="1"/>
        <pt x="-850" y="-650" on="1"/>
      </contour>
    </TTGlyph>
    <TTGlyph name="glyph247" xMin="-1750" yMin="-700" xMax="-850" yMax="-100">
      <contour>
        <pt x="-1361" y="-700" on="1"/>
        <pt x="-1605" y="-700" on="0"/>
        <pt x="-1750" y="-570" on="0"/>
        <pt x="-1750" y="-451" on="1"/>
        <pt x="-1750" y="-350" on="1"/>
        <pt x="-1636" y="-324" on="0"/>
        <pt x="-1452" y="-262" on="1"/>
        <pt x="-1269" y="-199" on="0"/>
        <pt x="-1150" y="-100" on="1"/>
        <pt x="-850" y="-100" on="1"/>
        <pt x="-850" y="-201" on="1"/>
        <pt x="-850" y="-448" on="0"/>
        <pt x="-1152" y="-700" on="0"/>
      </contour>
      <contour>
        <pt x="-1450" y="-447" on="1"/>
        <pt x="-1450" y="-497" on="0"/>
        <pt x="-1422" y="-524" on="1"/>
        <pt x="-1395" y="-549" on="0"/>
        <pt x="-1340" y="-549" on="1"/>
        <pt x="-1229" y="-549" on="0"/>
        <pt x="-1189" y="-483" on="1"/>
        <pt x="-1150" y="-417" on="0"/>
        <pt x="-1150" y="-276" on="1"/>
        <pt x="-1202" y="-338" on="0"/>
        <pt x="-1285" y="-381" on="1"/>
        <pt x="-1367" y="-423" on="0"/>
      </contour>
    </TTGlyph>
    <TTGlyph name="glyph248" xMin="-1750" yMin="-650" xMax="-850" yMax="-150">
      <contour>
        <pt x="-1500" y="-500" on="1"/>
        <pt x="-1390" y="-500" on="1"/>
        <pt x="-1390" y="-150" on="1"/>
        <pt x="-1015" y="-150" on="1"/>
        <pt x="-932" y="-150" on="0"/>
        <pt x="-891" y="-188" on="1"/>
        <pt x="-850" y="-225" on="0"/>
        <pt x="-850" y="-275" on="1"/>
        <pt x="-850" y="-650" on="1"/>
        <pt x="-1100" y="-650" on="1"/>
        <pt x="-1100" y="-300" on="1"/>
        <pt x="-1210" y="-300" on="1"/>
        <pt x="-1210" y="-650" on="1"/>
        <pt x="-1585" y="-650" on="1"/>
        <pt x="-1667" y="-650" on="0"/>
        <pt x="-1708" y="-612" on="1"/>
        <pt x="-1750" y="-575" on="0"/>
        <pt x="-1750" y="-525" on="1"/>
        <pt x="-1750" y="-150" on="1"/>
        <pt x="-1500" y="-150" on="1"/>
      </contour>
    </TTGlyph>
    <TTGlyph name="glyph249" xMin="-1800" yMin="-700" xMax="-800" yMax="-100">
      <contour>
        <pt x="-1400" y="-100" on="1"/>
        <pt x="-1400" y="-700" on="1"/>
        <pt x="-1800" y="-700" on="1"/>
        <pt x="-1800" y="-550" on="1"/>
        <pt x="-1700" y="-550" on="1"/>
        <pt x="-1700" y="-100" on="1"/>
      </contour>
      <contour>
        <pt x="-1100" y="-250" on="1"/>
        <pt x="-1100" y="-100" on="1"/>
        <pt x="-800" y="-100" on="1"/>
        <pt x="-800" y="-700" on="1"/>
        <pt x="-1200" y="-700" on="1"/>
        <pt x="-1200" y="-550" on="1"/>
        <pt x="-1100" y="-550" on="1"/>
        <pt x="-1100" y="-400" on="1"/>
        <pt x="-1350" y="-400" on="1"/>
        <pt x="-1350" y="-250" on="1"/>
      </contour>
    </TTGlyph>
    <TTGlyph name="glyph250" xMin="-1575" yMin="1650" xMax="-1025" yMax="2250">
      <contour>
        <pt x="-1575" y="1650" on="1"/>
        <pt x="-1575" y="2250" on="1"/>
        <pt x="-1375" y="2250" on="1"/>
        <pt x="-1375" y="1650" on="1"/>
      </contour>
      <contour>
        <pt x="-1225" y="1650" on="1"/>
        <pt x="-1225" y="2250" on="1"/>
        <pt x="-1025" y="2250" on="1"/>
        <pt x="-1025" y="1650" on="1"/>
      </contour>
    </TTGlyph>
    <TTGlyph name="glyph251" xMin="-1800" yMin="1600" xMax="-800" yMax="1850">
      <contour>
        <pt x="-1800" y="1600" on="1"/>
        <pt x="-1800" y="1850" on="1"/>
        <pt x="-1377" y="1850" on="1"/>
        <pt x="-1300" y="1800" on="1"/>
        <pt x="-1222" y="1850" on="1"/>
        <pt x="-800" y="1850" on="1"/>
        <pt x="-800" y="1600" on="1"/>
      </contour>
    </TTGlyph>
    <TTGlyph name="glyph252" xMin="-1750" yMin="1650" xMax="-850" yMax="2100">
      <contour>
        <pt x="-1440" y="1760" on="1"/>
        <pt x="-850" y="1760" on="1"/>
        <pt x="-850" y="1650" on="1"/>
        <pt x="-1750" y="1650" on="1"/>
        <pt x="-1750" y="1950" on="1"/>
        <pt x="-1313" y="1950" on="1"/>
        <pt x="-1159" y="1950" on="0"/>
        <pt x="-1159" y="2100" on="1"/>
        <pt x="-850" y="2100" on="1"/>
        <pt x="-850" y="1950" on="1"/>
        <pt x="-850" y="1850" on="0"/>
        <pt x="-1131" y="1850" on="1"/>
        <pt x="-1440" y="1850" on="1"/>
      </contour>
    </TTGlyph>
    <TTGlyph name="glyph253" xMin="-1600" yMin="1650" xMax="-1000" yMax="2250">
      <contour>
        <pt x="-1200" y="2050" on="1"/>
        <pt x="-1000" y="2050" on="1"/>
        <pt x="-1000" y="1850" on="1"/>
        <pt x="-1200" y="1850" on="1"/>
        <pt x="-1200" y="1650" on="1"/>
        <pt x="-1400" y="1650" on="1"/>
        <pt x="-1400" y="1850" on="1"/>
        <pt x="-1600" y="1850" on="1"/>
        <pt x="-1600" y="2050" on="1"/>
        <pt x="-1400" y="2050" on="1"/>
        <pt x="-1400" y="2250" on="1"/>
        <pt x="-1200" y="2250" on="1"/>
      </contour>
    </TTGlyph>
    <TTGlyph name="glyph254" xMin="0" yMin="0" xMax="1800" yMax="1500">
      <contour>
        <pt x="800" y="1250" on="1"/>
        <pt x="800" y="1500" on="1"/>
        <pt x="1800" y="1500" on="1"/>
        <pt x="1800" y="1250" on="1"/>
      </contour>
      <contour>
        <pt x="1450" y="0" on="1"/>
        <pt x="1450" y="850" on="1"/>
        <pt x="1150" y="850" on="1"/>
        <pt x="1150" y="0" on="1"/>
        <pt x="800" y="0" on="1"/>
        <pt x="800" y="850" on="1"/>
        <pt x="800" y="1100" on="0"/>
        <pt x="1050" y="1100" on="1"/>
        <pt x="1550" y="1100" on="1"/>
        <pt x="1800" y="1100" on="0"/>
        <pt x="1800" y="850" on="1"/>
        <pt x="1800" y="0" on="1"/>
      </contour>
      <contour>
        <pt x="150" y="1000" on="1"/>
        <pt x="0" y="1157" on="1"/>
        <pt x="200" y="1500" on="1"/>
        <pt x="500" y="1500" on="1"/>
        <pt x="500" y="1250" on="1"/>
        <pt x="210" y="1250" on="1"/>
        <pt x="500" y="1000" on="1"/>
        <pt x="500" y="250" on="1"/>
        <pt x="600" y="250" on="1"/>
        <pt x="600" y="0" on="1"/>
        <pt x="150" y="0" on="1"/>
      </contour>
    </TTGlyph>
    <TTGlyph name="glyph255" xMin="0" yMin="0" xMax="1800" yMax="1500">
      <contour>
        <pt x="1450" y="600" on="1"/>
        <pt x="1800" y="600" on="1"/>
        <pt x="1800" y="250" on="1"/>
        <pt x="1800" y="0" on="0"/>
        <pt x="1550" y="0" on="1"/>
        <pt x="1050" y="0" on="1"/>
        <pt x="800" y="0" on="0"/>
        <pt x="800" y="250" on="1"/>
        <pt x="800" y="669" on="1"/>
        <pt x="1150" y="771" on="1"/>
        <pt x="1450" y="873" on="0"/>
        <pt x="1450" y="1050" on="1"/>
        <pt x="1450" y="1250" on="1"/>
        <pt x="1150" y="1250" on="1"/>
        <pt x="1150" y="1100" on="1"/>
        <pt x="1200" y="1100" on="1"/>
        <pt x="1200" y="900" on="1"/>
        <pt x="950" y="900" on="1"/>
        <pt x="800" y="900" on="0"/>
        <pt x="800" y="1000" on="1"/>
        <pt x="800" y="1250" on="1"/>
        <pt x="800" y="1500" on="0"/>
        <pt x="1050" y="1500" on="1"/>
        <pt x="1550" y="1500" on="1"/>
        <pt x="1800" y="1500" on="0"/>
        <pt x="1800" y="1250" on="1"/>
        <pt x="1800" y="1050" on="1"/>
        <pt x="1779" y="756" on="0"/>
        <pt x="1225" y="585" on="1"/>
        <pt x="1150" y="559" on="1"/>
        <pt x="1150" y="250" on="1"/>
        <pt x="1450" y="250" on="1"/>
      </contour>
      <contour>
        <pt x="150" y="1000" on="1"/>
        <pt x="0" y="1157" on="1"/>
        <pt x="200" y="1500" on="1"/>
        <pt x="500" y="1500" on="1"/>
        <pt x="500" y="1250" on="1"/>
        <pt x="210" y="1250" on="1"/>
        <pt x="500" y="1000" on="1"/>
        <pt x="500" y="250" on="1"/>
        <pt x="600" y="250" on="1"/>
        <pt x="600" y="0" on="1"/>
        <pt x="150" y="0" on="1"/>
      </contour>
    </TTGlyph>
    <TTGlyph name="glyph256" xMin="0" yMin="0" xMax="1800" yMax="1500">
      <contour>
        <pt x="800" y="1250" on="1"/>
        <pt x="800" y="1500" on="1"/>
        <pt x="1800" y="1500" on="1"/>
        <pt x="1800" y="1250" on="1"/>
      </contour>
      <contour>
        <pt x="1800" y="0" on="1"/>
        <pt x="1450" y="0" on="1"/>
        <pt x="1450" y="850" on="1"/>
        <pt x="1150" y="850" on="1"/>
        <pt x="1150" y="343" on="1"/>
        <pt x="1249" y="526" on="1"/>
        <pt x="1381" y="454" on="1"/>
        <pt x="1150" y="27" on="1"/>
        <pt x="1150" y="0" on="1"/>
        <pt x="800" y="0" on="1"/>
        <pt x="800" y="850" on="1"/>
        <pt x="800" y="1100" on="0"/>
        <pt x="1050" y="1100" on="1"/>
        <pt x="1550" y="1100" on="1"/>
        <pt x="1800" y="1100" on="0"/>
        <pt x="1800" y="850" on="1"/>
      </contour>
      <contour>
        <pt x="150" y="1000" on="1"/>
        <pt x="0" y="1157" on="1"/>
        <pt x="200" y="1500" on="1"/>
        <pt x="500" y="1500" on="1"/>
        <pt x="500" y="1250" on="1"/>
        <pt x="210" y="1250" on="1"/>
        <pt x="500" y="1000" on="1"/>
        <pt x="500" y="250" on="1"/>
        <pt x="600" y="250" on="1"/>
        <pt x="600" y="0" on="1"/>
        <pt x="150" y="0" on="1"/>
      </contour>
    </TTGlyph>
    <TTGlyph name="glyph257" xMin="0" yMin="0" xMax="2450" yMax="1500">
      <contour>
        <pt x="800" y="1250" on="1"/>
        <pt x="700" y="1250" on="1"/>
        <pt x="700" y="1500" on="1"/>
        <pt x="1150" y="1500" on="1"/>
        <pt x="1150" y="250" on="1"/>
        <pt x="1450" y="250" on="1"/>
        <pt x="1450" y="1000" on="1"/>
        <pt x="1300" y="1157" on="1"/>
        <pt x="1500" y="1500" on="1"/>
        <pt x="1800" y="1500" on="1"/>
        <pt x="1800" y="1250" on="1"/>
        <pt x="1510" y="1250" on="1"/>
        <pt x="1800" y="1000" on="1"/>
        <pt x="1800" y="250" on="1"/>
        <pt x="2100" y="250" on="1"/>
        <pt x="2100" y="1000" on="1"/>
        <pt x="1950" y="1157" on="1"/>
        <pt x="2150" y="1500" on="1"/>
        <pt x="2450" y="1500" on="1"/>
        <pt x="2450" y="1250" on="1"/>
        <pt x="2160" y="1250" on="1"/>
        <pt x="2450" y="1000" on="1"/>
        <pt x="2450" y="250" on="1"/>
        <pt x="2450" y="0" on="0"/>
        <pt x="2200" y="0" on="1"/>
        <pt x="1050" y="0" on="1"/>
        <pt x="800" y="0" on="0"/>
        <pt x="800" y="250" on="1"/>
      </contour>
      <contour>
        <pt x="150" y="1000" on="1"/>
        <pt x="0" y="1157" on="1"/>
        <pt x="200" y="1500" on="1"/>
        <pt x="500" y="1500" on="1"/>
        <pt x="500" y="1250" on="1"/>
        <pt x="210" y="1250" on="1"/>
        <pt x="500" y="1000" on="1"/>
        <pt x="500" y="250" on="1"/>
        <pt x="600" y="250" on="1"/>
        <pt x="600" y="0" on="1"/>
        <pt x="150" y="0" on="1"/>
      </contour>
    </TTGlyph>
    <TTGlyph name="glyph258" xMin="0" yMin="0" xMax="1800" yMax="1600">
      <contour>
        <pt x="1050" y="1100" on="1"/>
        <pt x="800" y="1100" on="0"/>
        <pt x="800" y="1300" on="1"/>
        <pt x="800" y="1600" on="1"/>
        <pt x="1150" y="1600" on="1"/>
        <pt x="1150" y="1300" on="1"/>
        <pt x="1440" y="1300" on="1"/>
        <pt x="1440" y="1500" on="1"/>
        <pt x="1800" y="1500" on="1"/>
        <pt x="1800" y="1300" on="1"/>
        <pt x="1800" y="1248" on="0"/>
        <pt x="1741" y="1153" on="0"/>
        <pt x="1687" y="1127" on="1"/>
        <pt x="1659" y="1113" on="0"/>
        <pt x="1631" y="1106" on="1"/>
        <pt x="1800" y="1000" on="1"/>
        <pt x="1800" y="0" on="1"/>
        <pt x="1450" y="0" on="1"/>
        <pt x="1300" y="146" on="1"/>
        <pt x="1150" y="0" on="1"/>
        <pt x="800" y="0" on="1"/>
        <pt x="800" y="800" on="1"/>
        <pt x="750" y="800" on="1"/>
        <pt x="750" y="1000" on="1"/>
        <pt x="1150" y="1000" on="1"/>
        <pt x="1150" y="293" on="1"/>
        <pt x="1300" y="439" on="1"/>
        <pt x="1450" y="293" on="1"/>
        <pt x="1450" y="1100" on="1"/>
      </contour>
      <contour>
        <pt x="150" y="1000" on="1"/>
        <pt x="0" y="1157" on="1"/>
        <pt x="200" y="1500" on="1"/>
        <pt x="500" y="1500" on="1"/>
        <pt x="500" y="1250" on="1"/>
        <pt x="210" y="1250" on="1"/>
        <pt x="500" y="1000" on="1"/>
        <pt x="500" y="250" on="1"/>
        <pt x="600" y="250" on="1"/>
        <pt x="600" y="0" on="1"/>
        <pt x="150" y="0" on="1"/>
      </contour>
    </TTGlyph>
    <TTGlyph name="glyph259" xMin="0" yMin="0" xMax="1800" yMax="1500">
      <contour>
        <pt x="800" y="1000" on="1"/>
        <pt x="650" y="1157" on="1"/>
        <pt x="850" y="1500" on="1"/>
        <pt x="1800" y="1500" on="1"/>
        <pt x="1800" y="1250" on="1"/>
        <pt x="860" y="1250" on="1"/>
        <pt x="1150" y="1000" on="1"/>
        <pt x="1150" y="250" on="1"/>
        <pt x="1450" y="250" on="1"/>
        <pt x="1450" y="900" on="1"/>
        <pt x="1350" y="900" on="1"/>
        <pt x="1350" y="1100" on="1"/>
        <pt x="1800" y="1100" on="1"/>
        <pt x="1800" y="250" on="1"/>
        <pt x="1800" y="0" on="0"/>
        <pt x="1550" y="0" on="1"/>
        <pt x="1050" y="0" on="1"/>
        <pt x="800" y="0" on="0"/>
        <pt x="800" y="250" on="1"/>
      </contour>
      <contour>
        <pt x="150" y="1000" on="1"/>
        <pt x="0" y="1157" on="1"/>
        <pt x="200" y="1500" on="1"/>
        <pt x="500" y="1500" on="1"/>
        <pt x="500" y="1250" on="1"/>
        <pt x="210" y="1250" on="1"/>
        <pt x="500" y="1000" on="1"/>
        <pt x="500" y="250" on="1"/>
        <pt x="600" y="250" on="1"/>
        <pt x="600" y="0" on="1"/>
        <pt x="150" y="0" on="1"/>
      </contour>
    </TTGlyph>
    <TTGlyph name="glyph260" xMin="0" yMin="0" xMax="1800" yMax="1500">
      <contour>
        <pt x="800" y="1000" on="1"/>
        <pt x="650" y="1157" on="1"/>
        <pt x="850" y="1500" on="1"/>
        <pt x="1800" y="1500" on="1"/>
        <pt x="1800" y="1250" on="1"/>
        <pt x="860" y="1250" on="1"/>
        <pt x="1150" y="1000" on="1"/>
        <pt x="1150" y="500" on="1"/>
        <pt x="1450" y="270" on="1"/>
        <pt x="1450" y="900" on="1"/>
        <pt x="1350" y="900" on="1"/>
        <pt x="1350" y="1100" on="1"/>
        <pt x="1800" y="1100" on="1"/>
        <pt x="1800" y="0" on="1"/>
        <pt x="1450" y="0" on="1"/>
        <pt x="1150" y="230" on="1"/>
        <pt x="1150" y="0" on="1"/>
        <pt x="800" y="0" on="1"/>
        <pt x="800" y="250" on="1"/>
        <pt x="700" y="250" on="1"/>
        <pt x="700" y="500" on="1"/>
        <pt x="800" y="500" on="1"/>
      </contour>
      <contour>
        <pt x="150" y="1000" on="1"/>
        <pt x="0" y="1157" on="1"/>
        <pt x="200" y="1500" on="1"/>
        <pt x="500" y="1500" on="1"/>
        <pt x="500" y="1250" on="1"/>
        <pt x="210" y="1250" on="1"/>
        <pt x="500" y="1000" on="1"/>
        <pt x="500" y="250" on="1"/>
        <pt x="600" y="250" on="1"/>
        <pt x="600" y="0" on="1"/>
        <pt x="150" y="0" on="1"/>
      </contour>
    </TTGlyph>
    <TTGlyph name="glyph261" xMin="0" yMin="0" xMax="1800" yMax="1600">
      <contour>
        <pt x="1450" y="1100" on="1"/>
        <pt x="1800" y="1100" on="1"/>
        <pt x="1800" y="0" on="1"/>
        <pt x="1450" y="0" on="1"/>
        <pt x="1300" y="146" on="1"/>
        <pt x="1150" y="0" on="1"/>
        <pt x="800" y="0" on="1"/>
        <pt x="800" y="1000" on="1"/>
        <pt x="650" y="1157" on="1"/>
        <pt x="850" y="1500" on="1"/>
        <pt x="1450" y="1500" on="1"/>
        <pt x="1450" y="1600" on="1"/>
        <pt x="1800" y="1600" on="1"/>
        <pt x="1800" y="1250" on="1"/>
        <pt x="860" y="1250" on="1"/>
        <pt x="1150" y="1000" on="1"/>
        <pt x="1150" y="293" on="1"/>
        <pt x="1300" y="439" on="1"/>
        <pt x="1450" y="293" on="1"/>
      </contour>
      <contour>
        <pt x="150" y="1000" on="1"/>
        <pt x="0" y="1157" on="1"/>
        <pt x="200" y="1500" on="1"/>
        <pt x="500" y="1500" on="1"/>
        <pt x="500" y="1250" on="1"/>
        <pt x="210" y="1250" on="1"/>
        <pt x="500" y="1000" on="1"/>
        <pt x="500" y="250" on="1"/>
        <pt x="600" y="250" on="1"/>
        <pt x="600" y="0" on="1"/>
        <pt x="150" y="0" on="1"/>
      </contour>
    </TTGlyph>
    <TTGlyph name="glyph262" xMin="0" yMin="0" xMax="3100" yMax="1500">
      <contour>
        <pt x="1800" y="250" on="1"/>
        <pt x="2100" y="250" on="1"/>
        <pt x="2100" y="1000" on="1"/>
        <pt x="1950" y="1157" on="1"/>
        <pt x="2150" y="1500" on="1"/>
        <pt x="2450" y="1500" on="1"/>
        <pt x="2450" y="1250" on="1"/>
        <pt x="2160" y="1250" on="1"/>
        <pt x="2450" y="1000" on="1"/>
        <pt x="2450" y="250" on="1"/>
        <pt x="2750" y="250" on="1"/>
        <pt x="2750" y="1000" on="1"/>
        <pt x="2600" y="1157" on="1"/>
        <pt x="2800" y="1500" on="1"/>
        <pt x="3100" y="1500" on="1"/>
        <pt x="3100" y="1250" on="1"/>
        <pt x="2810" y="1250" on="1"/>
        <pt x="3100" y="1000" on="1"/>
        <pt x="3100" y="250" on="1"/>
        <pt x="3100" y="0" on="0"/>
        <pt x="2850" y="0" on="1"/>
        <pt x="1700" y="0" on="1"/>
        <pt x="1450" y="0" on="0"/>
        <pt x="1450" y="250" on="1"/>
        <pt x="1450" y="1250" on="1"/>
        <pt x="1150" y="1250" on="1"/>
        <pt x="1150" y="250" on="1"/>
        <pt x="1250" y="250" on="1"/>
        <pt x="1250" y="0" on="1"/>
        <pt x="800" y="0" on="1"/>
        <pt x="800" y="1250" on="1"/>
        <pt x="800" y="1500" on="0"/>
        <pt x="1050" y="1500" on="1"/>
        <pt x="1550" y="1500" on="1"/>
        <pt x="1800" y="1500" on="0"/>
        <pt x="1800" y="1250" on="1"/>
      </contour>
      <contour>
        <pt x="150" y="1000" on="1"/>
        <pt x="0" y="1157" on="1"/>
        <pt x="200" y="1500" on="1"/>
        <pt x="500" y="1500" on="1"/>
        <pt x="500" y="1250" on="1"/>
        <pt x="210" y="1250" on="1"/>
        <pt x="500" y="1000" on="1"/>
        <pt x="500" y="250" on="1"/>
        <pt x="600" y="250" on="1"/>
        <pt x="600" y="0" on="1"/>
        <pt x="150" y="0" on="1"/>
      </contour>
    </TTGlyph>
    <TTGlyph name="glyph263" xMin="0" yMin="-700" xMax="2450" yMax="1500">
      <contour>
        <pt x="800" y="-200" on="1"/>
        <pt x="1050" y="-200" on="1"/>
        <pt x="1398" y="-200" on="0"/>
        <pt x="1804" y="-500" on="1"/>
        <pt x="2100" y="-500" on="1"/>
        <pt x="2100" y="-350" on="1"/>
        <pt x="1950" y="-350" on="1"/>
        <pt x="1950" y="-100" on="1"/>
        <pt x="2250" y="-100" on="1"/>
        <pt x="2450" y="-100" on="0"/>
        <pt x="2450" y="-300" on="1"/>
        <pt x="2450" y="-500" on="1"/>
        <pt x="2450" y="-700" on="0"/>
        <pt x="2250" y="-700" on="1"/>
        <pt x="1662" y="-700" on="1"/>
        <pt x="1297" y="-450" on="0"/>
        <pt x="1050" y="-450" on="1"/>
        <pt x="800" y="-450" on="1"/>
      </contour>
      <contour>
        <pt x="2100" y="0" on="1"/>
        <pt x="2100" y="1250" on="1"/>
        <pt x="1850" y="1250" on="1"/>
        <pt x="1850" y="1500" on="1"/>
        <pt x="2450" y="1500" on="1"/>
        <pt x="2450" y="0" on="1"/>
      </contour>
      <contour>
        <pt x="1150" y="250" on="1"/>
        <pt x="1250" y="250" on="1"/>
        <pt x="1250" y="0" on="1"/>
        <pt x="800" y="0" on="1"/>
        <pt x="800" y="1500" on="1"/>
        <pt x="1150" y="1500" on="1"/>
        <pt x="1300" y="1354" on="1"/>
        <pt x="1450" y="1500" on="1"/>
        <pt x="1800" y="1500" on="1"/>
        <pt x="1800" y="0" on="1"/>
        <pt x="1450" y="0" on="1"/>
        <pt x="1450" y="1207" on="1"/>
        <pt x="1300" y="1061" on="1"/>
        <pt x="1150" y="1207" on="1"/>
      </contour>
      <contour>
        <pt x="150" y="1000" on="1"/>
        <pt x="0" y="1157" on="1"/>
        <pt x="200" y="1500" on="1"/>
        <pt x="500" y="1500" on="1"/>
        <pt x="500" y="1250" on="1"/>
        <pt x="210" y="1250" on="1"/>
        <pt x="500" y="1000" on="1"/>
        <pt x="500" y="250" on="1"/>
        <pt x="600" y="250" on="1"/>
        <pt x="600" y="0" on="1"/>
        <pt x="150" y="0" on="1"/>
      </contour>
    </TTGlyph>
    <TTGlyph name="glyph264" xMin="0" yMin="0" xMax="1800" yMax="1600">
      <contour>
        <pt x="800" y="1500" on="1"/>
        <pt x="1200" y="1500" on="1"/>
        <pt x="1200" y="1400" on="1"/>
        <pt x="1150" y="1400" on="1"/>
        <pt x="1150" y="1350" on="1"/>
        <pt x="1450" y="1350" on="1"/>
        <pt x="1450" y="1600" on="1"/>
        <pt x="1800" y="1600" on="1"/>
        <pt x="1800" y="1300" on="1"/>
        <pt x="1800" y="1150" on="0"/>
        <pt x="1600" y="1150" on="1"/>
        <pt x="800" y="1150" on="1"/>
      </contour>
      <contour>
        <pt x="1150" y="1050" on="1"/>
        <pt x="1150" y="293" on="1"/>
        <pt x="1300" y="439" on="1"/>
        <pt x="1450" y="293" on="1"/>
        <pt x="1450" y="1050" on="1"/>
        <pt x="1800" y="1050" on="1"/>
        <pt x="1800" y="0" on="1"/>
        <pt x="1450" y="0" on="1"/>
        <pt x="1300" y="146" on="1"/>
        <pt x="1150" y="0" on="1"/>
        <pt x="800" y="0" on="1"/>
        <pt x="800" y="1050" on="1"/>
      </contour>
      <contour>
        <pt x="150" y="1000" on="1"/>
        <pt x="0" y="1157" on="1"/>
        <pt x="200" y="1500" on="1"/>
        <pt x="500" y="1500" on="1"/>
        <pt x="500" y="1250" on="1"/>
        <pt x="210" y="1250" on="1"/>
        <pt x="500" y="1000" on="1"/>
        <pt x="500" y="250" on="1"/>
        <pt x="600" y="250" on="1"/>
        <pt x="600" y="0" on="1"/>
        <pt x="150" y="0" on="1"/>
      </contour>
    </TTGlyph>
    <TTGlyph name="glyph265" xMin="0" yMin="0" xMax="1800" yMax="1600">
      <contour>
        <pt x="1800" y="250" on="1"/>
        <pt x="1800" y="0" on="0"/>
        <pt x="1550" y="0" on="1"/>
        <pt x="1050" y="0" on="1"/>
        <pt x="800" y="0" on="0"/>
        <pt x="800" y="250" on="1"/>
        <pt x="800" y="1250" on="1"/>
        <pt x="700" y="1250" on="1"/>
        <pt x="700" y="1500" on="1"/>
        <pt x="1150" y="1500" on="1"/>
        <pt x="1150" y="250" on="1"/>
        <pt x="1450" y="250" on="1"/>
        <pt x="1450" y="1000" on="1"/>
        <pt x="1300" y="1157" on="1"/>
        <pt x="1500" y="1500" on="1"/>
        <pt x="1650" y="1500" on="1"/>
        <pt x="1650" y="1600" on="1"/>
        <pt x="1800" y="1600" on="1"/>
        <pt x="1800" y="1250" on="1"/>
        <pt x="1510" y="1250" on="1"/>
        <pt x="1800" y="1000" on="1"/>
      </contour>
      <contour>
        <pt x="150" y="1000" on="1"/>
        <pt x="0" y="1157" on="1"/>
        <pt x="200" y="1500" on="1"/>
        <pt x="500" y="1500" on="1"/>
        <pt x="500" y="1250" on="1"/>
        <pt x="210" y="1250" on="1"/>
        <pt x="500" y="1000" on="1"/>
        <pt x="500" y="250" on="1"/>
        <pt x="600" y="250" on="1"/>
        <pt x="600" y="0" on="1"/>
        <pt x="150" y="0" on="1"/>
      </contour>
    </TTGlyph>
    <TTGlyph name="glyph266" xMin="0" yMin="0" xMax="1800" yMax="1500">
      <contour>
        <pt x="1450" y="1207" on="1"/>
        <pt x="1300" y="1061" on="1"/>
        <pt x="1150" y="1207" on="1"/>
        <pt x="1150" y="1050" on="1"/>
        <pt x="1200" y="1050" on="1"/>
        <pt x="1200" y="900" on="1"/>
        <pt x="800" y="900" on="1"/>
        <pt x="800" y="1500" on="1"/>
        <pt x="1150" y="1500" on="1"/>
        <pt x="1300" y="1354" on="1"/>
        <pt x="1450" y="1500" on="1"/>
        <pt x="1800" y="1500" on="1"/>
        <pt x="1800" y="1050" on="1"/>
        <pt x="1779" y="756" on="0"/>
        <pt x="1225" y="585" on="1"/>
        <pt x="1150" y="559" on="1"/>
        <pt x="1150" y="200" on="1"/>
        <pt x="1450" y="350" on="1"/>
        <pt x="1450" y="600" on="1"/>
        <pt x="1800" y="600" on="1"/>
        <pt x="1800" y="0" on="1"/>
        <pt x="1450" y="0" on="1"/>
        <pt x="1450" y="150" on="1"/>
        <pt x="1150" y="0" on="1"/>
        <pt x="800" y="0" on="1"/>
        <pt x="800" y="669" on="1"/>
        <pt x="1150" y="771" on="1"/>
        <pt x="1450" y="873" on="0"/>
        <pt x="1450" y="1050" on="1"/>
      </contour>
      <contour>
        <pt x="150" y="1000" on="1"/>
        <pt x="0" y="1157" on="1"/>
        <pt x="200" y="1500" on="1"/>
        <pt x="500" y="1500" on="1"/>
        <pt x="500" y="1250" on="1"/>
        <pt x="210" y="1250" on="1"/>
        <pt x="500" y="1000" on="1"/>
        <pt x="500" y="250" on="1"/>
        <pt x="600" y="250" on="1"/>
        <pt x="600" y="0" on="1"/>
        <pt x="150" y="0" on="1"/>
      </contour>
    </TTGlyph>
    <TTGlyph name="glyph267" xMin="0" yMin="0" xMax="2450" yMax="1500">
      <contour>
        <pt x="2450" y="0" on="1"/>
        <pt x="2100" y="0" on="1"/>
        <pt x="1800" y="230" on="1"/>
        <pt x="1800" y="0" on="1"/>
        <pt x="1450" y="0" on="1"/>
        <pt x="1450" y="250" on="1"/>
        <pt x="1350" y="250" on="1"/>
        <pt x="1350" y="500" on="1"/>
        <pt x="1450" y="500" on="1"/>
        <pt x="1450" y="1207" on="1"/>
        <pt x="1300" y="1061" on="1"/>
        <pt x="1150" y="1207" on="1"/>
        <pt x="1150" y="250" on="1"/>
        <pt x="1250" y="250" on="1"/>
        <pt x="1250" y="0" on="1"/>
        <pt x="800" y="0" on="1"/>
        <pt x="800" y="1500" on="1"/>
        <pt x="1150" y="1500" on="1"/>
        <pt x="1300" y="1354" on="1"/>
        <pt x="1450" y="1500" on="1"/>
        <pt x="1800" y="1500" on="1"/>
        <pt x="1800" y="500" on="1"/>
        <pt x="2100" y="270" on="1"/>
        <pt x="2100" y="1000" on="1"/>
        <pt x="1950" y="1157" on="1"/>
        <pt x="2150" y="1500" on="1"/>
        <pt x="2450" y="1500" on="1"/>
        <pt x="2450" y="1250" on="1"/>
        <pt x="2160" y="1250" on="1"/>
        <pt x="2450" y="1000" on="1"/>
      </contour>
      <contour>
        <pt x="150" y="1000" on="1"/>
        <pt x="0" y="1157" on="1"/>
        <pt x="200" y="1500" on="1"/>
        <pt x="500" y="1500" on="1"/>
        <pt x="500" y="1250" on="1"/>
        <pt x="210" y="1250" on="1"/>
        <pt x="500" y="1000" on="1"/>
        <pt x="500" y="250" on="1"/>
        <pt x="600" y="250" on="1"/>
        <pt x="600" y="0" on="1"/>
        <pt x="150" y="0" on="1"/>
      </contour>
    </TTGlyph>
    <TTGlyph name="glyph268" xMin="0" yMin="0" xMax="3100" yMax="1500">
      <contour>
        <pt x="1450" y="1250" on="1"/>
        <pt x="1150" y="1250" on="1"/>
        <pt x="1150" y="250" on="1"/>
        <pt x="1250" y="250" on="1"/>
        <pt x="1250" y="0" on="1"/>
        <pt x="800" y="0" on="1"/>
        <pt x="800" y="1250" on="1"/>
        <pt x="800" y="1500" on="0"/>
        <pt x="1050" y="1500" on="1"/>
        <pt x="1550" y="1500" on="1"/>
        <pt x="1800" y="1500" on="0"/>
        <pt x="1800" y="1250" on="1"/>
        <pt x="1800" y="293" on="1"/>
        <pt x="1950" y="439" on="1"/>
        <pt x="2100" y="293" on="1"/>
        <pt x="2100" y="1250" on="1"/>
        <pt x="2100" y="1500" on="0"/>
        <pt x="2350" y="1500" on="1"/>
        <pt x="2850" y="1500" on="1"/>
        <pt x="3100" y="1500" on="0"/>
        <pt x="3100" y="1250" on="1"/>
        <pt x="3100" y="0" on="1"/>
        <pt x="2750" y="0" on="1"/>
        <pt x="2750" y="1250" on="1"/>
        <pt x="2450" y="1250" on="1"/>
        <pt x="2450" y="0" on="1"/>
        <pt x="2100" y="0" on="1"/>
        <pt x="1950" y="146" on="1"/>
        <pt x="1800" y="0" on="1"/>
        <pt x="1450" y="0" on="1"/>
      </contour>
      <contour>
        <pt x="150" y="1000" on="1"/>
        <pt x="0" y="1157" on="1"/>
        <pt x="200" y="1500" on="1"/>
        <pt x="500" y="1500" on="1"/>
        <pt x="500" y="1250" on="1"/>
        <pt x="210" y="1250" on="1"/>
        <pt x="500" y="1000" on="1"/>
        <pt x="500" y="250" on="1"/>
        <pt x="600" y="250" on="1"/>
        <pt x="600" y="0" on="1"/>
        <pt x="150" y="0" on="1"/>
      </contour>
    </TTGlyph>
    <TTGlyph name="glyph269" xMin="0" yMin="0" xMax="1800" yMax="1500">
      <contour>
        <pt x="800" y="1250" on="1"/>
        <pt x="800" y="1500" on="1"/>
        <pt x="1800" y="1500" on="1"/>
        <pt x="1800" y="1250" on="1"/>
      </contour>
      <contour>
        <pt x="800" y="850" on="1"/>
        <pt x="800" y="1100" on="0"/>
        <pt x="1050" y="1100" on="1"/>
        <pt x="1550" y="1100" on="1"/>
        <pt x="1800" y="1100" on="0"/>
        <pt x="1800" y="850" on="1"/>
        <pt x="1800" y="0" on="1"/>
        <pt x="1450" y="0" on="1"/>
        <pt x="1450" y="850" on="1"/>
        <pt x="1150" y="850" on="1"/>
        <pt x="1150" y="250" on="1"/>
        <pt x="1250" y="250" on="1"/>
        <pt x="1250" y="0" on="1"/>
        <pt x="800" y="0" on="1"/>
      </contour>
      <contour>
        <pt x="150" y="1000" on="1"/>
        <pt x="0" y="1157" on="1"/>
        <pt x="200" y="1500" on="1"/>
        <pt x="500" y="1500" on="1"/>
        <pt x="500" y="1250" on="1"/>
        <pt x="210" y="1250" on="1"/>
        <pt x="500" y="1000" on="1"/>
        <pt x="500" y="250" on="1"/>
        <pt x="600" y="250" on="1"/>
        <pt x="600" y="0" on="1"/>
        <pt x="150" y="0" on="1"/>
      </contour>
    </TTGlyph>
    <TTGlyph name="glyph270" xMin="0" yMin="0" xMax="1800" yMax="1600">
      <contour>
        <pt x="860" y="1250" on="1"/>
        <pt x="1150" y="1000" on="1"/>
        <pt x="1150" y="250" on="1"/>
        <pt x="1450" y="250" on="1"/>
        <pt x="1450" y="900" on="1"/>
        <pt x="1350" y="900" on="1"/>
        <pt x="1350" y="1100" on="1"/>
        <pt x="1800" y="1100" on="1"/>
        <pt x="1800" y="250" on="1"/>
        <pt x="1800" y="0" on="0"/>
        <pt x="1550" y="0" on="1"/>
        <pt x="1050" y="0" on="1"/>
        <pt x="800" y="0" on="0"/>
        <pt x="800" y="250" on="1"/>
        <pt x="800" y="1000" on="1"/>
        <pt x="650" y="1157" on="1"/>
        <pt x="850" y="1500" on="1"/>
        <pt x="1450" y="1500" on="1"/>
        <pt x="1450" y="1600" on="1"/>
        <pt x="1800" y="1600" on="1"/>
        <pt x="1800" y="1250" on="1"/>
      </contour>
      <contour>
        <pt x="150" y="1000" on="1"/>
        <pt x="0" y="1157" on="1"/>
        <pt x="200" y="1500" on="1"/>
        <pt x="500" y="1500" on="1"/>
        <pt x="500" y="1250" on="1"/>
        <pt x="210" y="1250" on="1"/>
        <pt x="500" y="1000" on="1"/>
        <pt x="500" y="250" on="1"/>
        <pt x="600" y="250" on="1"/>
        <pt x="600" y="0" on="1"/>
        <pt x="150" y="0" on="1"/>
      </contour>
    </TTGlyph>
    <TTGlyph name="glyph271" xMin="0" yMin="0" xMax="1800" yMax="1500">
      <contour>
        <pt x="1800" y="1050" on="1"/>
        <pt x="1800" y="950" on="0"/>
        <pt x="1650" y="950" on="1"/>
        <pt x="1400" y="950" on="1"/>
        <pt x="1400" y="1150" on="1"/>
        <pt x="1450" y="1150" on="1"/>
        <pt x="1450" y="1250" on="1"/>
        <pt x="1150" y="1250" on="1"/>
        <pt x="1150" y="1000" on="1"/>
        <pt x="1150" y="872" on="0"/>
        <pt x="1366" y="822" on="1"/>
        <pt x="1503" y="790" on="1"/>
        <pt x="1523" y="813" on="0"/>
        <pt x="1569" y="850" on="1"/>
        <pt x="1800" y="850" on="1"/>
        <pt x="1800" y="644" on="1"/>
        <pt x="1800" y="572" on="0"/>
        <pt x="1697" y="539" on="1"/>
        <pt x="1800" y="490" on="1"/>
        <pt x="1800" y="250" on="1"/>
        <pt x="1800" y="0" on="0"/>
        <pt x="1550" y="0" on="1"/>
        <pt x="1050" y="0" on="1"/>
        <pt x="800" y="0" on="0"/>
        <pt x="800" y="250" on="1"/>
        <pt x="800" y="620" on="1"/>
        <pt x="1150" y="550" on="1"/>
        <pt x="1150" y="250" on="1"/>
        <pt x="1450" y="250" on="1"/>
        <pt x="1450" y="585" on="1"/>
        <pt x="1151" y="660" on="1"/>
        <pt x="800" y="738" on="0"/>
        <pt x="800" y="1000" on="1"/>
        <pt x="800" y="1250" on="1"/>
        <pt x="800" y="1500" on="0"/>
        <pt x="1050" y="1500" on="1"/>
        <pt x="1550" y="1500" on="1"/>
        <pt x="1800" y="1500" on="0"/>
        <pt x="1800" y="1250" on="1"/>
      </contour>
      <contour>
        <pt x="150" y="1000" on="1"/>
        <pt x="0" y="1157" on="1"/>
        <pt x="200" y="1500" on="1"/>
        <pt x="500" y="1500" on="1"/>
        <pt x="500" y="1250" on="1"/>
        <pt x="210" y="1250" on="1"/>
        <pt x="500" y="1000" on="1"/>
        <pt x="500" y="250" on="1"/>
        <pt x="600" y="250" on="1"/>
        <pt x="600" y="0" on="1"/>
        <pt x="150" y="0" on="1"/>
      </contour>
    </TTGlyph>
    <TTGlyph name="glyph272" xMin="0" yMin="0" xMax="1800" yMax="1500">
      <contour>
        <pt x="1450" y="900" on="1"/>
        <pt x="1350" y="900" on="1"/>
        <pt x="1350" y="1100" on="1"/>
        <pt x="1800" y="1100" on="1"/>
        <pt x="1800" y="0" on="1"/>
        <pt x="1450" y="0" on="1"/>
        <pt x="1300" y="146" on="1"/>
        <pt x="1150" y="0" on="1"/>
        <pt x="800" y="0" on="1"/>
        <pt x="800" y="1000" on="1"/>
        <pt x="650" y="1157" on="1"/>
        <pt x="850" y="1500" on="1"/>
        <pt x="1800" y="1500" on="1"/>
        <pt x="1800" y="1250" on="1"/>
        <pt x="860" y="1250" on="1"/>
        <pt x="1150" y="1000" on="1"/>
        <pt x="1150" y="293" on="1"/>
        <pt x="1300" y="439" on="1"/>
        <pt x="1450" y="293" on="1"/>
      </contour>
      <contour>
        <pt x="150" y="1000" on="1"/>
        <pt x="0" y="1157" on="1"/>
        <pt x="200" y="1500" on="1"/>
        <pt x="500" y="1500" on="1"/>
        <pt x="500" y="1250" on="1"/>
        <pt x="210" y="1250" on="1"/>
        <pt x="500" y="1000" on="1"/>
        <pt x="500" y="250" on="1"/>
        <pt x="600" y="250" on="1"/>
        <pt x="600" y="0" on="1"/>
        <pt x="150" y="0" on="1"/>
      </contour>
    </TTGlyph>
    <TTGlyph name="glyph273" xMin="0" yMin="0" xMax="1800" yMax="1500">
      <contour>
        <pt x="1150" y="1000" on="1"/>
        <pt x="1150" y="863" on="0"/>
        <pt x="1450" y="781" on="1"/>
        <pt x="1800" y="699" on="1"/>
        <pt x="1800" y="0" on="1"/>
        <pt x="1450" y="0" on="1"/>
        <pt x="1300" y="146" on="1"/>
        <pt x="1150" y="0" on="1"/>
        <pt x="800" y="0" on="1"/>
        <pt x="800" y="600" on="1"/>
        <pt x="1150" y="600" on="1"/>
        <pt x="1150" y="293" on="1"/>
        <pt x="1300" y="439" on="1"/>
        <pt x="1450" y="293" on="1"/>
        <pt x="1450" y="576" on="1"/>
        <pt x="1375" y="595" on="1"/>
        <pt x="800" y="753" on="0"/>
        <pt x="800" y="1000" on="1"/>
        <pt x="800" y="1250" on="1"/>
        <pt x="800" y="1500" on="0"/>
        <pt x="1050" y="1500" on="1"/>
        <pt x="1550" y="1500" on="1"/>
        <pt x="1800" y="1500" on="0"/>
        <pt x="1800" y="1250" on="1"/>
        <pt x="1800" y="900" on="1"/>
        <pt x="1400" y="900" on="1"/>
        <pt x="1400" y="1100" on="1"/>
        <pt x="1450" y="1100" on="1"/>
        <pt x="1450" y="1250" on="1"/>
        <pt x="1150" y="1250" on="1"/>
      </contour>
      <contour>
        <pt x="150" y="1000" on="1"/>
        <pt x="0" y="1157" on="1"/>
        <pt x="200" y="1500" on="1"/>
        <pt x="500" y="1500" on="1"/>
        <pt x="500" y="1250" on="1"/>
        <pt x="210" y="1250" on="1"/>
        <pt x="500" y="1000" on="1"/>
        <pt x="500" y="250" on="1"/>
        <pt x="600" y="250" on="1"/>
        <pt x="600" y="0" on="1"/>
        <pt x="150" y="0" on="1"/>
      </contour>
    </TTGlyph>
    <TTGlyph name="glyph274" xMin="0" yMin="0" xMax="1800" yMax="1500">
      <contour>
        <pt x="1450" y="1000" on="1"/>
        <pt x="1300" y="1157" on="1"/>
        <pt x="1500" y="1500" on="1"/>
        <pt x="1800" y="1500" on="1"/>
        <pt x="1800" y="1250" on="1"/>
        <pt x="1510" y="1250" on="1"/>
        <pt x="1800" y="1000" on="1"/>
        <pt x="1800" y="250" on="1"/>
        <pt x="1800" y="0" on="0"/>
        <pt x="1550" y="0" on="1"/>
        <pt x="1050" y="0" on="1"/>
        <pt x="800" y="0" on="0"/>
        <pt x="800" y="250" on="1"/>
        <pt x="800" y="1000" on="1"/>
        <pt x="650" y="1157" on="1"/>
        <pt x="850" y="1500" on="1"/>
        <pt x="1150" y="1500" on="1"/>
        <pt x="1150" y="1250" on="1"/>
        <pt x="860" y="1250" on="1"/>
        <pt x="1150" y="1000" on="1"/>
        <pt x="1150" y="250" on="1"/>
        <pt x="1450" y="250" on="1"/>
      </contour>
      <contour>
        <pt x="150" y="1000" on="1"/>
        <pt x="0" y="1157" on="1"/>
        <pt x="200" y="1500" on="1"/>
        <pt x="500" y="1500" on="1"/>
        <pt x="500" y="1250" on="1"/>
        <pt x="210" y="1250" on="1"/>
        <pt x="500" y="1000" on="1"/>
        <pt x="500" y="250" on="1"/>
        <pt x="600" y="250" on="1"/>
        <pt x="600" y="0" on="1"/>
        <pt x="150" y="0" on="1"/>
      </contour>
    </TTGlyph>
    <TTGlyph name="glyph275" xMin="0" yMin="0" xMax="1800" yMax="1600">
      <contour>
        <pt x="860" y="1250" on="1"/>
        <pt x="1150" y="1000" on="1"/>
        <pt x="1150" y="293" on="1"/>
        <pt x="1300" y="439" on="1"/>
        <pt x="1450" y="293" on="1"/>
        <pt x="1450" y="900" on="1"/>
        <pt x="1350" y="900" on="1"/>
        <pt x="1350" y="1100" on="1"/>
        <pt x="1800" y="1100" on="1"/>
        <pt x="1800" y="0" on="1"/>
        <pt x="1450" y="0" on="1"/>
        <pt x="1300" y="146" on="1"/>
        <pt x="1150" y="0" on="1"/>
        <pt x="800" y="0" on="1"/>
        <pt x="800" y="1000" on="1"/>
        <pt x="650" y="1157" on="1"/>
        <pt x="850" y="1500" on="1"/>
        <pt x="1450" y="1500" on="1"/>
        <pt x="1450" y="1600" on="1"/>
        <pt x="1800" y="1600" on="1"/>
        <pt x="1800" y="1250" on="1"/>
      </contour>
      <contour>
        <pt x="150" y="1000" on="1"/>
        <pt x="0" y="1157" on="1"/>
        <pt x="200" y="1500" on="1"/>
        <pt x="500" y="1500" on="1"/>
        <pt x="500" y="1250" on="1"/>
        <pt x="210" y="1250" on="1"/>
        <pt x="500" y="1000" on="1"/>
        <pt x="500" y="250" on="1"/>
        <pt x="600" y="250" on="1"/>
        <pt x="600" y="0" on="1"/>
        <pt x="150" y="0" on="1"/>
      </contour>
    </TTGlyph>
    <TTGlyph name="glyph276" xMin="0" yMin="0" xMax="1800" yMax="1500">
      <contour>
        <pt x="1150" y="250" on="1"/>
        <pt x="1250" y="250" on="1"/>
        <pt x="1250" y="0" on="1"/>
        <pt x="800" y="0" on="1"/>
        <pt x="800" y="1500" on="1"/>
        <pt x="1150" y="1500" on="1"/>
        <pt x="1300" y="1354" on="1"/>
        <pt x="1450" y="1500" on="1"/>
        <pt x="1800" y="1500" on="1"/>
        <pt x="1800" y="0" on="1"/>
        <pt x="1450" y="0" on="1"/>
        <pt x="1450" y="1207" on="1"/>
        <pt x="1300" y="1061" on="1"/>
        <pt x="1150" y="1207" on="1"/>
      </contour>
      <contour>
        <pt x="150" y="1000" on="1"/>
        <pt x="0" y="1157" on="1"/>
        <pt x="200" y="1500" on="1"/>
        <pt x="500" y="1500" on="1"/>
        <pt x="500" y="1250" on="1"/>
        <pt x="210" y="1250" on="1"/>
        <pt x="500" y="1000" on="1"/>
        <pt x="500" y="250" on="1"/>
        <pt x="600" y="250" on="1"/>
        <pt x="600" y="0" on="1"/>
        <pt x="150" y="0" on="1"/>
      </contour>
    </TTGlyph>
    <TTGlyph name="glyph277" xMin="0" yMin="0" xMax="1800" yMax="1500">
      <contour>
        <pt x="800" y="1250" on="1"/>
        <pt x="800" y="1500" on="1"/>
        <pt x="1800" y="1500" on="1"/>
        <pt x="1800" y="1250" on="1"/>
      </contour>
      <contour>
        <pt x="1150" y="0" on="1"/>
        <pt x="700" y="0" on="1"/>
        <pt x="700" y="250" on="1"/>
        <pt x="800" y="250" on="1"/>
        <pt x="800" y="850" on="1"/>
        <pt x="800" y="1100" on="0"/>
        <pt x="1050" y="1100" on="1"/>
        <pt x="1550" y="1100" on="1"/>
        <pt x="1800" y="1100" on="0"/>
        <pt x="1800" y="850" on="1"/>
        <pt x="1800" y="0" on="1"/>
        <pt x="1450" y="0" on="1"/>
        <pt x="1450" y="850" on="1"/>
        <pt x="1150" y="850" on="1"/>
      </contour>
      <contour>
        <pt x="150" y="1000" on="1"/>
        <pt x="0" y="1157" on="1"/>
        <pt x="200" y="1500" on="1"/>
        <pt x="500" y="1500" on="1"/>
        <pt x="500" y="1250" on="1"/>
        <pt x="210" y="1250" on="1"/>
        <pt x="500" y="1000" on="1"/>
        <pt x="500" y="250" on="1"/>
        <pt x="600" y="250" on="1"/>
        <pt x="600" y="0" on="1"/>
        <pt x="150" y="0" on="1"/>
      </contour>
    </TTGlyph>
    <TTGlyph name="glyph278" xMin="0" yMin="0" xMax="1800" yMax="1500">
      <contour>
        <pt x="1450" y="850" on="1"/>
        <pt x="1450" y="1000" on="1"/>
        <pt x="1300" y="1157" on="1"/>
        <pt x="1500" y="1500" on="1"/>
        <pt x="1800" y="1500" on="1"/>
        <pt x="1800" y="1250" on="1"/>
        <pt x="1510" y="1250" on="1"/>
        <pt x="1800" y="1000" on="1"/>
        <pt x="1800" y="250" on="1"/>
        <pt x="1800" y="0" on="0"/>
        <pt x="1550" y="0" on="1"/>
        <pt x="1050" y="0" on="1"/>
        <pt x="800" y="0" on="0"/>
        <pt x="800" y="250" on="1"/>
        <pt x="800" y="1000" on="1"/>
        <pt x="650" y="1157" on="1"/>
        <pt x="850" y="1500" on="1"/>
        <pt x="1150" y="1500" on="1"/>
        <pt x="1150" y="1250" on="1"/>
        <pt x="860" y="1250" on="1"/>
        <pt x="1150" y="1000" on="1"/>
        <pt x="1150" y="250" on="1"/>
        <pt x="1450" y="250" on="1"/>
        <pt x="1450" y="600" on="1"/>
        <pt x="1200" y="600" on="1"/>
        <pt x="1200" y="850" on="1"/>
      </contour>
      <contour>
        <pt x="150" y="1000" on="1"/>
        <pt x="0" y="1157" on="1"/>
        <pt x="200" y="1500" on="1"/>
        <pt x="500" y="1500" on="1"/>
        <pt x="500" y="1250" on="1"/>
        <pt x="210" y="1250" on="1"/>
        <pt x="500" y="1000" on="1"/>
        <pt x="500" y="250" on="1"/>
        <pt x="600" y="250" on="1"/>
        <pt x="600" y="0" on="1"/>
        <pt x="150" y="0" on="1"/>
      </contour>
    </TTGlyph>
    <TTGlyph name="glyph279" xMin="0" yMin="0" xMax="2450" yMax="1500">
      <contour>
        <pt x="1150" y="250" on="1"/>
        <pt x="1450" y="250" on="1"/>
        <pt x="1450" y="1000" on="1"/>
        <pt x="1300" y="1157" on="1"/>
        <pt x="1500" y="1500" on="1"/>
        <pt x="1800" y="1500" on="1"/>
        <pt x="1800" y="1250" on="1"/>
        <pt x="1510" y="1250" on="1"/>
        <pt x="1800" y="1000" on="1"/>
        <pt x="1800" y="250" on="1"/>
        <pt x="2100" y="250" on="1"/>
        <pt x="2100" y="1000" on="1"/>
        <pt x="1950" y="1157" on="1"/>
        <pt x="2150" y="1500" on="1"/>
        <pt x="2450" y="1500" on="1"/>
        <pt x="2450" y="1250" on="1"/>
        <pt x="2160" y="1250" on="1"/>
        <pt x="2450" y="1000" on="1"/>
        <pt x="2450" y="250" on="1"/>
        <pt x="2450" y="0" on="0"/>
        <pt x="2200" y="0" on="1"/>
        <pt x="1050" y="0" on="1"/>
        <pt x="800" y="0" on="0"/>
        <pt x="800" y="250" on="1"/>
        <pt x="800" y="1500" on="1"/>
        <pt x="1250" y="1500" on="1"/>
        <pt x="1250" y="1250" on="1"/>
        <pt x="1150" y="1250" on="1"/>
      </contour>
      <contour>
        <pt x="150" y="1000" on="1"/>
        <pt x="0" y="1157" on="1"/>
        <pt x="200" y="1500" on="1"/>
        <pt x="500" y="1500" on="1"/>
        <pt x="500" y="1250" on="1"/>
        <pt x="210" y="1250" on="1"/>
        <pt x="500" y="1000" on="1"/>
        <pt x="500" y="250" on="1"/>
        <pt x="600" y="250" on="1"/>
        <pt x="600" y="0" on="1"/>
        <pt x="150" y="0" on="1"/>
      </contour>
    </TTGlyph>
    <TTGlyph name="glyph280" xMin="0" yMin="0" xMax="1150" yMax="1500">
      <contour>
        <pt x="700" y="250" on="1"/>
        <pt x="800" y="250" on="1"/>
        <pt x="800" y="1000" on="1"/>
        <pt x="650" y="1157" on="1"/>
        <pt x="850" y="1500" on="1"/>
        <pt x="1150" y="1500" on="1"/>
        <pt x="1150" y="1250" on="1"/>
        <pt x="860" y="1250" on="1"/>
        <pt x="1150" y="1000" on="1"/>
        <pt x="1150" y="0" on="1"/>
        <pt x="700" y="0" on="1"/>
      </contour>
      <contour>
        <pt x="150" y="1000" on="1"/>
        <pt x="0" y="1157" on="1"/>
        <pt x="200" y="1500" on="1"/>
        <pt x="500" y="1500" on="1"/>
        <pt x="500" y="1250" on="1"/>
        <pt x="210" y="1250" on="1"/>
        <pt x="500" y="1000" on="1"/>
        <pt x="500" y="250" on="1"/>
        <pt x="600" y="250" on="1"/>
        <pt x="600" y="0" on="1"/>
        <pt x="150" y="0" on="1"/>
      </contour>
    </TTGlyph>
    <TTGlyph name="glyph281" xMin="0" yMin="0" xMax="2450" yMax="1500">
      <contour>
        <pt x="1800" y="250" on="1"/>
        <pt x="2100" y="250" on="1"/>
        <pt x="2100" y="1000" on="1"/>
        <pt x="1950" y="1157" on="1"/>
        <pt x="2150" y="1500" on="1"/>
        <pt x="2450" y="1500" on="1"/>
        <pt x="2450" y="1250" on="1"/>
        <pt x="2160" y="1250" on="1"/>
        <pt x="2450" y="1000" on="1"/>
        <pt x="2450" y="250" on="1"/>
        <pt x="2450" y="0" on="0"/>
        <pt x="2200" y="0" on="1"/>
        <pt x="1700" y="0" on="1"/>
        <pt x="1450" y="0" on="0"/>
        <pt x="1450" y="250" on="1"/>
        <pt x="1450" y="1250" on="1"/>
        <pt x="1150" y="1250" on="1"/>
        <pt x="1150" y="250" on="1"/>
        <pt x="1250" y="250" on="1"/>
        <pt x="1250" y="0" on="1"/>
        <pt x="800" y="0" on="1"/>
        <pt x="800" y="1250" on="1"/>
        <pt x="800" y="1500" on="0"/>
        <pt x="1050" y="1500" on="1"/>
        <pt x="1550" y="1500" on="1"/>
        <pt x="1800" y="1500" on="0"/>
        <pt x="1800" y="1250" on="1"/>
      </contour>
      <contour>
        <pt x="150" y="1000" on="1"/>
        <pt x="0" y="1157" on="1"/>
        <pt x="200" y="1500" on="1"/>
        <pt x="500" y="1500" on="1"/>
        <pt x="500" y="1250" on="1"/>
        <pt x="210" y="1250" on="1"/>
        <pt x="500" y="1000" on="1"/>
        <pt x="500" y="250" on="1"/>
        <pt x="600" y="250" on="1"/>
        <pt x="600" y="0" on="1"/>
        <pt x="150" y="0" on="1"/>
      </contour>
    </TTGlyph>
    <TTGlyph name="glyph282" xMin="0" yMin="0" xMax="1150" yMax="1600">
      <contour>
        <pt x="700" y="250" on="1"/>
        <pt x="800" y="250" on="1"/>
        <pt x="800" y="1000" on="1"/>
        <pt x="650" y="1157" on="1"/>
        <pt x="850" y="1500" on="1"/>
        <pt x="1000" y="1500" on="1"/>
        <pt x="1000" y="1600" on="1"/>
        <pt x="1150" y="1600" on="1"/>
        <pt x="1150" y="1250" on="1"/>
        <pt x="860" y="1250" on="1"/>
        <pt x="1150" y="1000" on="1"/>
        <pt x="1150" y="0" on="1"/>
        <pt x="700" y="0" on="1"/>
      </contour>
      <contour>
        <pt x="150" y="1000" on="1"/>
        <pt x="0" y="1157" on="1"/>
        <pt x="200" y="1500" on="1"/>
        <pt x="500" y="1500" on="1"/>
        <pt x="500" y="1250" on="1"/>
        <pt x="210" y="1250" on="1"/>
        <pt x="500" y="1000" on="1"/>
        <pt x="500" y="250" on="1"/>
        <pt x="600" y="250" on="1"/>
        <pt x="600" y="0" on="1"/>
        <pt x="150" y="0" on="1"/>
      </contour>
    </TTGlyph>
    <TTGlyph name="glyph283" xMin="0" yMin="0" xMax="1900" yMax="1500">
      <contour>
        <pt x="800" y="1250" on="1"/>
        <pt x="800" y="1500" on="1"/>
        <pt x="1800" y="1500" on="1"/>
        <pt x="1800" y="1250" on="1"/>
      </contour>
      <contour>
        <pt x="1450" y="650" on="1"/>
        <pt x="1450" y="850" on="1"/>
        <pt x="1150" y="850" on="1"/>
        <pt x="1150" y="343" on="1"/>
        <pt x="1249" y="526" on="1"/>
        <pt x="1300" y="498" on="1"/>
        <pt x="1300" y="650" on="1"/>
      </contour>
      <contour>
        <pt x="1800" y="450" on="1"/>
        <pt x="1800" y="0" on="1"/>
        <pt x="1450" y="0" on="1"/>
        <pt x="1450" y="450" on="1"/>
        <pt x="1379" y="450" on="1"/>
        <pt x="1150" y="27" on="1"/>
        <pt x="1150" y="0" on="1"/>
        <pt x="800" y="0" on="1"/>
        <pt x="800" y="850" on="1"/>
        <pt x="800" y="1100" on="0"/>
        <pt x="1050" y="1100" on="1"/>
        <pt x="1550" y="1100" on="1"/>
        <pt x="1800" y="1100" on="0"/>
        <pt x="1800" y="850" on="1"/>
        <pt x="1800" y="650" on="1"/>
        <pt x="1900" y="650" on="1"/>
        <pt x="1900" y="450" on="1"/>
      </contour>
      <contour>
        <pt x="150" y="1000" on="1"/>
        <pt x="0" y="1157" on="1"/>
        <pt x="200" y="1500" on="1"/>
        <pt x="500" y="1500" on="1"/>
        <pt x="500" y="1250" on="1"/>
        <pt x="210" y="1250" on="1"/>
        <pt x="500" y="1000" on="1"/>
        <pt x="500" y="250" on="1"/>
        <pt x="600" y="250" on="1"/>
        <pt x="600" y="0" on="1"/>
        <pt x="150" y="0" on="1"/>
      </contour>
    </TTGlyph>
    <TTGlyph name="glyph284" xMin="0" yMin="0" xMax="1900" yMax="1500">
      <contour>
        <pt x="1450" y="850" on="1"/>
        <pt x="1450" y="1000" on="1"/>
        <pt x="1300" y="1157" on="1"/>
        <pt x="1500" y="1500" on="1"/>
        <pt x="1800" y="1500" on="1"/>
        <pt x="1800" y="1250" on="1"/>
        <pt x="1510" y="1250" on="1"/>
        <pt x="1800" y="1000" on="1"/>
        <pt x="1800" y="850" on="1"/>
        <pt x="1900" y="850" on="1"/>
        <pt x="1900" y="650" on="1"/>
        <pt x="1800" y="650" on="1"/>
        <pt x="1800" y="250" on="1"/>
        <pt x="1800" y="0" on="0"/>
        <pt x="1550" y="0" on="1"/>
        <pt x="1050" y="0" on="1"/>
        <pt x="800" y="0" on="0"/>
        <pt x="800" y="250" on="1"/>
        <pt x="800" y="1000" on="1"/>
        <pt x="650" y="1157" on="1"/>
        <pt x="850" y="1500" on="1"/>
        <pt x="1150" y="1500" on="1"/>
        <pt x="1150" y="1250" on="1"/>
        <pt x="860" y="1250" on="1"/>
        <pt x="1150" y="1000" on="1"/>
        <pt x="1150" y="250" on="1"/>
        <pt x="1450" y="250" on="1"/>
        <pt x="1450" y="650" on="1"/>
        <pt x="1300" y="650" on="1"/>
        <pt x="1300" y="850" on="1"/>
      </contour>
      <contour>
        <pt x="150" y="1000" on="1"/>
        <pt x="0" y="1157" on="1"/>
        <pt x="200" y="1500" on="1"/>
        <pt x="500" y="1500" on="1"/>
        <pt x="500" y="1250" on="1"/>
        <pt x="210" y="1250" on="1"/>
        <pt x="500" y="1000" on="1"/>
        <pt x="500" y="250" on="1"/>
        <pt x="600" y="250" on="1"/>
        <pt x="600" y="0" on="1"/>
        <pt x="150" y="0" on="1"/>
      </contour>
    </TTGlyph>
    <TTGlyph name="glyph285" xMin="0" yMin="0" xMax="2450" yMax="1500">
      <contour>
        <pt x="1234" y="1100" on="1"/>
        <pt x="1550" y="1100" on="1"/>
        <pt x="1800" y="1100" on="0"/>
        <pt x="1800" y="850" on="1"/>
        <pt x="1800" y="250" on="1"/>
        <pt x="2100" y="250" on="1"/>
        <pt x="2100" y="1000" on="1"/>
        <pt x="1950" y="1157" on="1"/>
        <pt x="2150" y="1500" on="1"/>
        <pt x="2450" y="1500" on="1"/>
        <pt x="2450" y="1250" on="1"/>
        <pt x="2160" y="1250" on="1"/>
        <pt x="2450" y="1000" on="1"/>
        <pt x="2450" y="250" on="1"/>
        <pt x="2450" y="0" on="0"/>
        <pt x="2200" y="0" on="1"/>
        <pt x="1700" y="0" on="1"/>
        <pt x="1450" y="0" on="0"/>
        <pt x="1450" y="250" on="1"/>
        <pt x="1450" y="850" on="1"/>
        <pt x="1150" y="850" on="1"/>
        <pt x="1150" y="250" on="1"/>
        <pt x="1250" y="250" on="1"/>
        <pt x="1250" y="0" on="1"/>
        <pt x="800" y="0" on="1"/>
        <pt x="800" y="850" on="1"/>
        <pt x="800" y="1048" on="0"/>
        <pt x="956" y="1089" on="1"/>
        <pt x="800" y="1237" on="1"/>
        <pt x="950" y="1500" on="1"/>
        <pt x="1650" y="1500" on="1"/>
        <pt x="1650" y="1250" on="1"/>
        <pt x="1060" y="1250" on="1"/>
      </contour>
      <contour>
        <pt x="150" y="1000" on="1"/>
        <pt x="0" y="1157" on="1"/>
        <pt x="200" y="1500" on="1"/>
        <pt x="500" y="1500" on="1"/>
        <pt x="500" y="1250" on="1"/>
        <pt x="210" y="1250" on="1"/>
        <pt x="500" y="1000" on="1"/>
        <pt x="500" y="250" on="1"/>
        <pt x="600" y="250" on="1"/>
        <pt x="600" y="0" on="1"/>
        <pt x="150" y="0" on="1"/>
      </contour>
    </TTGlyph>
    <TTGlyph name="glyph286" xMin="0" yMin="0" xMax="2450" yMax="1500">
      <contour>
        <pt x="150" y="1000" on="1"/>
        <pt x="0" y="1157" on="1"/>
        <pt x="200" y="1500" on="1"/>
        <pt x="500" y="1500" on="1"/>
        <pt x="500" y="1250" on="1"/>
        <pt x="210" y="1250" on="1"/>
        <pt x="500" y="1000" on="1"/>
        <pt x="500" y="250" on="1"/>
        <pt x="600" y="250" on="1"/>
        <pt x="600" y="0" on="1"/>
        <pt x="150" y="0" on="1"/>
      </contour>
      <contour>
        <pt x="1800" y="250" on="1"/>
        <pt x="1800" y="0" on="0"/>
        <pt x="1550" y="0" on="1"/>
        <pt x="1050" y="0" on="1"/>
        <pt x="800" y="0" on="0"/>
        <pt x="800" y="250" on="1"/>
        <pt x="800" y="1000" on="1"/>
        <pt x="650" y="1157" on="1"/>
        <pt x="850" y="1500" on="1"/>
        <pt x="1150" y="1500" on="1"/>
        <pt x="1150" y="1250" on="1"/>
        <pt x="860" y="1250" on="1"/>
        <pt x="1150" y="1000" on="1"/>
        <pt x="1150" y="250" on="1"/>
        <pt x="1450" y="250" on="1"/>
        <pt x="1450" y="1250" on="1"/>
        <pt x="1450" y="1500" on="0"/>
        <pt x="1700" y="1500" on="1"/>
        <pt x="2200" y="1500" on="1"/>
        <pt x="2450" y="1500" on="0"/>
        <pt x="2450" y="1250" on="1"/>
        <pt x="2450" y="0" on="1"/>
        <pt x="2100" y="0" on="1"/>
        <pt x="2100" y="1250" on="1"/>
        <pt x="1800" y="1250" on="1"/>
      </contour>
    </TTGlyph>
    <TTGlyph name="glyph287" xMin="0" yMin="-700" xMax="2450" yMax="1500">
      <contour>
        <pt x="1800" y="1050" on="1"/>
        <pt x="1800" y="950" on="0"/>
        <pt x="1650" y="950" on="1"/>
        <pt x="1400" y="950" on="1"/>
        <pt x="1400" y="1150" on="1"/>
        <pt x="1450" y="1150" on="1"/>
        <pt x="1450" y="1250" on="1"/>
        <pt x="1150" y="1250" on="1"/>
        <pt x="1150" y="1000" on="1"/>
        <pt x="1150" y="872" on="0"/>
        <pt x="1366" y="822" on="1"/>
        <pt x="1503" y="790" on="1"/>
        <pt x="1523" y="813" on="0"/>
        <pt x="1569" y="850" on="1"/>
        <pt x="1800" y="850" on="1"/>
        <pt x="1800" y="644" on="1"/>
        <pt x="1800" y="572" on="0"/>
        <pt x="1697" y="539" on="1"/>
        <pt x="1800" y="490" on="1"/>
        <pt x="1800" y="250" on="1"/>
        <pt x="1800" y="0" on="0"/>
        <pt x="1550" y="0" on="1"/>
        <pt x="1050" y="0" on="1"/>
        <pt x="800" y="0" on="0"/>
        <pt x="800" y="250" on="1"/>
        <pt x="800" y="620" on="1"/>
        <pt x="1150" y="550" on="1"/>
        <pt x="1150" y="250" on="1"/>
        <pt x="1450" y="250" on="1"/>
        <pt x="1450" y="585" on="1"/>
        <pt x="1151" y="660" on="1"/>
        <pt x="800" y="738" on="0"/>
        <pt x="800" y="1000" on="1"/>
        <pt x="800" y="1250" on="1"/>
        <pt x="800" y="1500" on="0"/>
        <pt x="1050" y="1500" on="1"/>
        <pt x="1550" y="1500" on="1"/>
        <pt x="1800" y="1500" on="0"/>
        <pt x="1800" y="1250" on="1"/>
      </contour>
      <contour>
        <pt x="2450" y="-700" on="1"/>
        <pt x="2100" y="-700" on="1"/>
        <pt x="1950" y="-554" on="1"/>
        <pt x="1800" y="-700" on="1"/>
        <pt x="1450" y="-700" on="1"/>
        <pt x="1450" y="-300" on="1"/>
        <pt x="1400" y="-300" on="1"/>
        <pt x="1400" y="-100" on="1"/>
        <pt x="1800" y="-100" on="1"/>
        <pt x="1800" y="-407" on="1"/>
        <pt x="1950" y="-261" on="1"/>
        <pt x="2100" y="-407" on="1"/>
        <pt x="2100" y="1000" on="1"/>
        <pt x="1950" y="1157" on="1"/>
        <pt x="2150" y="1500" on="1"/>
        <pt x="2450" y="1500" on="1"/>
        <pt x="2450" y="1250" on="1"/>
        <pt x="2160" y="1250" on="1"/>
        <pt x="2450" y="1000" on="1"/>
      </contour>
      <contour>
        <pt x="150" y="1000" on="1"/>
        <pt x="0" y="1157" on="1"/>
        <pt x="200" y="1500" on="1"/>
        <pt x="500" y="1500" on="1"/>
        <pt x="500" y="1250" on="1"/>
        <pt x="210" y="1250" on="1"/>
        <pt x="500" y="1000" on="1"/>
        <pt x="500" y="250" on="1"/>
        <pt x="600" y="250" on="1"/>
        <pt x="600" y="0" on="1"/>
        <pt x="150" y="0" on="1"/>
      </contour>
    </TTGlyph>
    <TTGlyph name="glyph288" xMin="0" yMin="0" xMax="1800" yMax="1500">
      <contour>
        <pt x="1450" y="600" on="1"/>
        <pt x="1200" y="600" on="1"/>
        <pt x="1200" y="850" on="1"/>
        <pt x="1450" y="850" on="1"/>
        <pt x="1450" y="1000" on="1"/>
        <pt x="1300" y="1157" on="1"/>
        <pt x="1500" y="1500" on="1"/>
        <pt x="1800" y="1500" on="1"/>
        <pt x="1800" y="1250" on="1"/>
        <pt x="1510" y="1250" on="1"/>
        <pt x="1800" y="1000" on="1"/>
        <pt x="1800" y="0" on="1"/>
        <pt x="1350" y="0" on="1"/>
        <pt x="1350" y="250" on="1"/>
        <pt x="1450" y="250" on="1"/>
      </contour>
      <contour>
        <pt x="800" y="1000" on="1"/>
        <pt x="650" y="1157" on="1"/>
        <pt x="850" y="1500" on="1"/>
        <pt x="1150" y="1500" on="1"/>
        <pt x="1150" y="1250" on="1"/>
        <pt x="860" y="1250" on="1"/>
        <pt x="1150" y="1000" on="1"/>
        <pt x="1150" y="0" on="1"/>
        <pt x="700" y="0" on="1"/>
        <pt x="700" y="250" on="1"/>
        <pt x="800" y="250" on="1"/>
      </contour>
      <contour>
        <pt x="150" y="1000" on="1"/>
        <pt x="0" y="1157" on="1"/>
        <pt x="200" y="1500" on="1"/>
        <pt x="500" y="1500" on="1"/>
        <pt x="500" y="1250" on="1"/>
        <pt x="210" y="1250" on="1"/>
        <pt x="500" y="1000" on="1"/>
        <pt x="500" y="250" on="1"/>
        <pt x="600" y="250" on="1"/>
        <pt x="600" y="0" on="1"/>
        <pt x="150" y="0" on="1"/>
      </contour>
    </TTGlyph>
    <TTGlyph name="glyph289" xMin="0" yMin="0" xMax="2450" yMax="1500">
      <contour>
        <pt x="2100" y="0" on="1"/>
        <pt x="2100" y="1250" on="1"/>
        <pt x="1850" y="1250" on="1"/>
        <pt x="1850" y="1500" on="1"/>
        <pt x="2450" y="1500" on="1"/>
        <pt x="2450" y="0" on="1"/>
      </contour>
      <contour>
        <pt x="1150" y="250" on="1"/>
        <pt x="1250" y="250" on="1"/>
        <pt x="1250" y="0" on="1"/>
        <pt x="800" y="0" on="1"/>
        <pt x="800" y="1500" on="1"/>
        <pt x="1150" y="1500" on="1"/>
        <pt x="1300" y="1354" on="1"/>
        <pt x="1450" y="1500" on="1"/>
        <pt x="1800" y="1500" on="1"/>
        <pt x="1800" y="0" on="1"/>
        <pt x="1450" y="0" on="1"/>
        <pt x="1450" y="1207" on="1"/>
        <pt x="1300" y="1061" on="1"/>
        <pt x="1150" y="1207" on="1"/>
      </contour>
      <contour>
        <pt x="150" y="1000" on="1"/>
        <pt x="0" y="1157" on="1"/>
        <pt x="200" y="1500" on="1"/>
        <pt x="500" y="1500" on="1"/>
        <pt x="500" y="1250" on="1"/>
        <pt x="210" y="1250" on="1"/>
        <pt x="500" y="1000" on="1"/>
        <pt x="500" y="250" on="1"/>
        <pt x="600" y="250" on="1"/>
        <pt x="600" y="0" on="1"/>
        <pt x="150" y="0" on="1"/>
      </contour>
    </TTGlyph>
    <TTGlyph name="glyph290" xMin="0" yMin="0" xMax="1800" yMax="2050">
      <contour>
        <pt x="800" y="1250" on="1"/>
        <pt x="800" y="1500" on="1"/>
        <pt x="1800" y="1500" on="1"/>
        <pt x="1800" y="1250" on="1"/>
      </contour>
      <contour>
        <pt x="1450" y="0" on="1"/>
        <pt x="1450" y="850" on="1"/>
        <pt x="1150" y="850" on="1"/>
        <pt x="1150" y="0" on="1"/>
        <pt x="800" y="0" on="1"/>
        <pt x="800" y="850" on="1"/>
        <pt x="800" y="1100" on="0"/>
        <pt x="1050" y="1100" on="1"/>
        <pt x="1550" y="1100" on="1"/>
        <pt x="1800" y="1100" on="0"/>
        <pt x="1800" y="850" on="1"/>
        <pt x="1800" y="0" on="1"/>
      </contour>
      <contour>
        <pt x="150" y="1000" on="1"/>
        <pt x="0" y="1157" on="1"/>
        <pt x="200" y="1500" on="1"/>
        <pt x="500" y="1500" on="1"/>
        <pt x="500" y="1250" on="1"/>
        <pt x="210" y="1250" on="1"/>
        <pt x="500" y="1000" on="1"/>
        <pt x="500" y="250" on="1"/>
        <pt x="600" y="250" on="1"/>
        <pt x="600" y="0" on="1"/>
        <pt x="150" y="0" on="1"/>
      </contour>
      <contour>
        <pt x="0" y="2050" on="1"/>
        <pt x="381" y="2050" on="1"/>
        <pt x="381" y="1850" on="1"/>
        <pt x="300" y="1850" on="1"/>
        <pt x="300" y="1780" on="1"/>
        <pt x="380" y="1780" on="1"/>
        <pt x="500" y="1780" on="0"/>
        <pt x="500" y="2049" on="1"/>
        <pt x="650" y="2049" on="1"/>
        <pt x="650" y="1600" on="0"/>
        <pt x="380" y="1600" on="1"/>
        <pt x="0" y="1600" on="1"/>
      </contour>
    </TTGlyph>
    <TTGlyph name="glyph291" xMin="0" yMin="0" xMax="1800" yMax="2050">
      <contour>
        <pt x="1450" y="600" on="1"/>
        <pt x="1800" y="600" on="1"/>
        <pt x="1800" y="250" on="1"/>
        <pt x="1800" y="0" on="0"/>
        <pt x="1550" y="0" on="1"/>
        <pt x="1050" y="0" on="1"/>
        <pt x="800" y="0" on="0"/>
        <pt x="800" y="250" on="1"/>
        <pt x="800" y="669" on="1"/>
        <pt x="1150" y="771" on="1"/>
        <pt x="1450" y="873" on="0"/>
        <pt x="1450" y="1050" on="1"/>
        <pt x="1450" y="1250" on="1"/>
        <pt x="1150" y="1250" on="1"/>
        <pt x="1150" y="1100" on="1"/>
        <pt x="1200" y="1100" on="1"/>
        <pt x="1200" y="900" on="1"/>
        <pt x="950" y="900" on="1"/>
        <pt x="800" y="900" on="0"/>
        <pt x="800" y="1000" on="1"/>
        <pt x="800" y="1250" on="1"/>
        <pt x="800" y="1500" on="0"/>
        <pt x="1050" y="1500" on="1"/>
        <pt x="1550" y="1500" on="1"/>
        <pt x="1800" y="1500" on="0"/>
        <pt x="1800" y="1250" on="1"/>
        <pt x="1800" y="1050" on="1"/>
        <pt x="1779" y="756" on="0"/>
        <pt x="1225" y="585" on="1"/>
        <pt x="1150" y="559" on="1"/>
        <pt x="1150" y="250" on="1"/>
        <pt x="1450" y="250" on="1"/>
      </contour>
      <contour>
        <pt x="150" y="1000" on="1"/>
        <pt x="0" y="1157" on="1"/>
        <pt x="200" y="1500" on="1"/>
        <pt x="500" y="1500" on="1"/>
        <pt x="500" y="1250" on="1"/>
        <pt x="210" y="1250" on="1"/>
        <pt x="500" y="1000" on="1"/>
        <pt x="500" y="250" on="1"/>
        <pt x="600" y="250" on="1"/>
        <pt x="600" y="0" on="1"/>
        <pt x="150" y="0" on="1"/>
      </contour>
      <contour>
        <pt x="0" y="2050" on="1"/>
        <pt x="381" y="2050" on="1"/>
        <pt x="381" y="1850" on="1"/>
        <pt x="300" y="1850" on="1"/>
        <pt x="300" y="1780" on="1"/>
        <pt x="380" y="1780" on="1"/>
        <pt x="500" y="1780" on="0"/>
        <pt x="500" y="2049" on="1"/>
        <pt x="650" y="2049" on="1"/>
        <pt x="650" y="1600" on="0"/>
        <pt x="380" y="1600" on="1"/>
        <pt x="0" y="1600" on="1"/>
      </contour>
    </TTGlyph>
    <TTGlyph name="glyph292" xMin="0" yMin="0" xMax="1800" yMax="2050">
      <contour>
        <pt x="800" y="1250" on="1"/>
        <pt x="800" y="1500" on="1"/>
        <pt x="1800" y="1500" on="1"/>
        <pt x="1800" y="1250" on="1"/>
      </contour>
      <contour>
        <pt x="1800" y="0" on="1"/>
        <pt x="1450" y="0" on="1"/>
        <pt x="1450" y="850" on="1"/>
        <pt x="1150" y="850" on="1"/>
        <pt x="1150" y="343" on="1"/>
        <pt x="1249" y="526" on="1"/>
        <pt x="1381" y="454" on="1"/>
        <pt x="1150" y="27" on="1"/>
        <pt x="1150" y="0" on="1"/>
        <pt x="800" y="0" on="1"/>
        <pt x="800" y="850" on="1"/>
        <pt x="800" y="1100" on="0"/>
        <pt x="1050" y="1100" on="1"/>
        <pt x="1550" y="1100" on="1"/>
        <pt x="1800" y="1100" on="0"/>
        <pt x="1800" y="850" on="1"/>
      </contour>
      <contour>
        <pt x="150" y="1000" on="1"/>
        <pt x="0" y="1157" on="1"/>
        <pt x="200" y="1500" on="1"/>
        <pt x="500" y="1500" on="1"/>
        <pt x="500" y="1250" on="1"/>
        <pt x="210" y="1250" on="1"/>
        <pt x="500" y="1000" on="1"/>
        <pt x="500" y="250" on="1"/>
        <pt x="600" y="250" on="1"/>
        <pt x="600" y="0" on="1"/>
        <pt x="150" y="0" on="1"/>
      </contour>
      <contour>
        <pt x="0" y="2050" on="1"/>
        <pt x="381" y="2050" on="1"/>
        <pt x="381" y="1850" on="1"/>
        <pt x="300" y="1850" on="1"/>
        <pt x="300" y="1780" on="1"/>
        <pt x="380" y="1780" on="1"/>
        <pt x="500" y="1780" on="0"/>
        <pt x="500" y="2049" on="1"/>
        <pt x="650" y="2049" on="1"/>
        <pt x="650" y="1600" on="0"/>
        <pt x="380" y="1600" on="1"/>
        <pt x="0" y="1600" on="1"/>
      </contour>
    </TTGlyph>
    <TTGlyph name="glyph293" xMin="0" yMin="0" xMax="2450" yMax="2050">
      <contour>
        <pt x="800" y="1250" on="1"/>
        <pt x="700" y="1250" on="1"/>
        <pt x="700" y="1500" on="1"/>
        <pt x="1150" y="1500" on="1"/>
        <pt x="1150" y="250" on="1"/>
        <pt x="1450" y="250" on="1"/>
        <pt x="1450" y="1000" on="1"/>
        <pt x="1300" y="1157" on="1"/>
        <pt x="1500" y="1500" on="1"/>
        <pt x="1800" y="1500" on="1"/>
        <pt x="1800" y="1250" on="1"/>
        <pt x="1510" y="1250" on="1"/>
        <pt x="1800" y="1000" on="1"/>
        <pt x="1800" y="250" on="1"/>
        <pt x="2100" y="250" on="1"/>
        <pt x="2100" y="1000" on="1"/>
        <pt x="1950" y="1157" on="1"/>
        <pt x="2150" y="1500" on="1"/>
        <pt x="2450" y="1500" on="1"/>
        <pt x="2450" y="1250" on="1"/>
        <pt x="2160" y="1250" on="1"/>
        <pt x="2450" y="1000" on="1"/>
        <pt x="2450" y="250" on="1"/>
        <pt x="2450" y="0" on="0"/>
        <pt x="2200" y="0" on="1"/>
        <pt x="1050" y="0" on="1"/>
        <pt x="800" y="0" on="0"/>
        <pt x="800" y="250" on="1"/>
      </contour>
      <contour>
        <pt x="150" y="1000" on="1"/>
        <pt x="0" y="1157" on="1"/>
        <pt x="200" y="1500" on="1"/>
        <pt x="500" y="1500" on="1"/>
        <pt x="500" y="1250" on="1"/>
        <pt x="210" y="1250" on="1"/>
        <pt x="500" y="1000" on="1"/>
        <pt x="500" y="250" on="1"/>
        <pt x="600" y="250" on="1"/>
        <pt x="600" y="0" on="1"/>
        <pt x="150" y="0" on="1"/>
      </contour>
      <contour>
        <pt x="0" y="2050" on="1"/>
        <pt x="381" y="2050" on="1"/>
        <pt x="381" y="1850" on="1"/>
        <pt x="300" y="1850" on="1"/>
        <pt x="300" y="1780" on="1"/>
        <pt x="380" y="1780" on="1"/>
        <pt x="500" y="1780" on="0"/>
        <pt x="500" y="2049" on="1"/>
        <pt x="650" y="2049" on="1"/>
        <pt x="650" y="1600" on="0"/>
        <pt x="380" y="1600" on="1"/>
        <pt x="0" y="1600" on="1"/>
      </contour>
    </TTGlyph>
    <TTGlyph name="glyph294" xMin="0" yMin="0" xMax="1800" yMax="2050">
      <contour>
        <pt x="1050" y="1100" on="1"/>
        <pt x="800" y="1100" on="0"/>
        <pt x="800" y="1300" on="1"/>
        <pt x="800" y="1600" on="1"/>
        <pt x="1150" y="1600" on="1"/>
        <pt x="1150" y="1300" on="1"/>
        <pt x="1440" y="1300" on="1"/>
        <pt x="1440" y="1500" on="1"/>
        <pt x="1800" y="1500" on="1"/>
        <pt x="1800" y="1300" on="1"/>
        <pt x="1800" y="1248" on="0"/>
        <pt x="1741" y="1153" on="0"/>
        <pt x="1687" y="1127" on="1"/>
        <pt x="1659" y="1113" on="0"/>
        <pt x="1631" y="1106" on="1"/>
        <pt x="1800" y="1000" on="1"/>
        <pt x="1800" y="0" on="1"/>
        <pt x="1450" y="0" on="1"/>
        <pt x="1300" y="146" on="1"/>
        <pt x="1150" y="0" on="1"/>
        <pt x="800" y="0" on="1"/>
        <pt x="800" y="800" on="1"/>
        <pt x="750" y="800" on="1"/>
        <pt x="750" y="1000" on="1"/>
        <pt x="1150" y="1000" on="1"/>
        <pt x="1150" y="293" on="1"/>
        <pt x="1300" y="439" on="1"/>
        <pt x="1450" y="293" on="1"/>
        <pt x="1450" y="1100" on="1"/>
      </contour>
      <contour>
        <pt x="150" y="1000" on="1"/>
        <pt x="0" y="1157" on="1"/>
        <pt x="200" y="1500" on="1"/>
        <pt x="500" y="1500" on="1"/>
        <pt x="500" y="1250" on="1"/>
        <pt x="210" y="1250" on="1"/>
        <pt x="500" y="1000" on="1"/>
        <pt x="500" y="250" on="1"/>
        <pt x="600" y="250" on="1"/>
        <pt x="600" y="0" on="1"/>
        <pt x="150" y="0" on="1"/>
      </contour>
      <contour>
        <pt x="0" y="2050" on="1"/>
        <pt x="381" y="2050" on="1"/>
        <pt x="381" y="1850" on="1"/>
        <pt x="300" y="1850" on="1"/>
        <pt x="300" y="1780" on="1"/>
        <pt x="380" y="1780" on="1"/>
        <pt x="500" y="1780" on="0"/>
        <pt x="500" y="2049" on="1"/>
        <pt x="650" y="2049" on="1"/>
        <pt x="650" y="1600" on="0"/>
        <pt x="380" y="1600" on="1"/>
        <pt x="0" y="1600" on="1"/>
      </contour>
    </TTGlyph>
    <TTGlyph name="glyph295" xMin="0" yMin="0" xMax="1800" yMax="2050">
      <contour>
        <pt x="800" y="1000" on="1"/>
        <pt x="650" y="1157" on="1"/>
        <pt x="850" y="1500" on="1"/>
        <pt x="1800" y="1500" on="1"/>
        <pt x="1800" y="1250" on="1"/>
        <pt x="860" y="1250" on="1"/>
        <pt x="1150" y="1000" on="1"/>
        <pt x="1150" y="250" on="1"/>
        <pt x="1450" y="250" on="1"/>
        <pt x="1450" y="900" on="1"/>
        <pt x="1350" y="900" on="1"/>
        <pt x="1350" y="1100" on="1"/>
        <pt x="1800" y="1100" on="1"/>
        <pt x="1800" y="250" on="1"/>
        <pt x="1800" y="0" on="0"/>
        <pt x="1550" y="0" on="1"/>
        <pt x="1050" y="0" on="1"/>
        <pt x="800" y="0" on="0"/>
        <pt x="800" y="250" on="1"/>
      </contour>
      <contour>
        <pt x="150" y="1000" on="1"/>
        <pt x="0" y="1157" on="1"/>
        <pt x="200" y="1500" on="1"/>
        <pt x="500" y="1500" on="1"/>
        <pt x="500" y="1250" on="1"/>
        <pt x="210" y="1250" on="1"/>
        <pt x="500" y="1000" on="1"/>
        <pt x="500" y="250" on="1"/>
        <pt x="600" y="250" on="1"/>
        <pt x="600" y="0" on="1"/>
        <pt x="150" y="0" on="1"/>
      </contour>
      <contour>
        <pt x="0" y="2050" on="1"/>
        <pt x="381" y="2050" on="1"/>
        <pt x="381" y="1850" on="1"/>
        <pt x="300" y="1850" on="1"/>
        <pt x="300" y="1780" on="1"/>
        <pt x="380" y="1780" on="1"/>
        <pt x="500" y="1780" on="0"/>
        <pt x="500" y="2049" on="1"/>
        <pt x="650" y="2049" on="1"/>
        <pt x="650" y="1600" on="0"/>
        <pt x="380" y="1600" on="1"/>
        <pt x="0" y="1600" on="1"/>
      </contour>
    </TTGlyph>
    <TTGlyph name="glyph296" xMin="0" yMin="0" xMax="1800" yMax="2050">
      <contour>
        <pt x="800" y="1000" on="1"/>
        <pt x="650" y="1157" on="1"/>
        <pt x="850" y="1500" on="1"/>
        <pt x="1800" y="1500" on="1"/>
        <pt x="1800" y="1250" on="1"/>
        <pt x="860" y="1250" on="1"/>
        <pt x="1150" y="1000" on="1"/>
        <pt x="1150" y="500" on="1"/>
        <pt x="1450" y="270" on="1"/>
        <pt x="1450" y="900" on="1"/>
        <pt x="1350" y="900" on="1"/>
        <pt x="1350" y="1100" on="1"/>
        <pt x="1800" y="1100" on="1"/>
        <pt x="1800" y="0" on="1"/>
        <pt x="1450" y="0" on="1"/>
        <pt x="1150" y="230" on="1"/>
        <pt x="1150" y="0" on="1"/>
        <pt x="800" y="0" on="1"/>
        <pt x="800" y="250" on="1"/>
        <pt x="700" y="250" on="1"/>
        <pt x="700" y="500" on="1"/>
        <pt x="800" y="500" on="1"/>
      </contour>
      <contour>
        <pt x="150" y="1000" on="1"/>
        <pt x="0" y="1157" on="1"/>
        <pt x="200" y="1500" on="1"/>
        <pt x="500" y="1500" on="1"/>
        <pt x="500" y="1250" on="1"/>
        <pt x="210" y="1250" on="1"/>
        <pt x="500" y="1000" on="1"/>
        <pt x="500" y="250" on="1"/>
        <pt x="600" y="250" on="1"/>
        <pt x="600" y="0" on="1"/>
        <pt x="150" y="0" on="1"/>
      </contour>
      <contour>
        <pt x="0" y="2050" on="1"/>
        <pt x="381" y="2050" on="1"/>
        <pt x="381" y="1850" on="1"/>
        <pt x="300" y="1850" on="1"/>
        <pt x="300" y="1780" on="1"/>
        <pt x="380" y="1780" on="1"/>
        <pt x="500" y="1780" on="0"/>
        <pt x="500" y="2049" on="1"/>
        <pt x="650" y="2049" on="1"/>
        <pt x="650" y="1600" on="0"/>
        <pt x="380" y="1600" on="1"/>
        <pt x="0" y="1600" on="1"/>
      </contour>
    </TTGlyph>
    <TTGlyph name="glyph297" xMin="0" yMin="0" xMax="1800" yMax="2050">
      <contour>
        <pt x="1450" y="1100" on="1"/>
        <pt x="1800" y="1100" on="1"/>
        <pt x="1800" y="0" on="1"/>
        <pt x="1450" y="0" on="1"/>
        <pt x="1300" y="146" on="1"/>
        <pt x="1150" y="0" on="1"/>
        <pt x="800" y="0" on="1"/>
        <pt x="800" y="1000" on="1"/>
        <pt x="650" y="1157" on="1"/>
        <pt x="850" y="1500" on="1"/>
        <pt x="1450" y="1500" on="1"/>
        <pt x="1450" y="1600" on="1"/>
        <pt x="1800" y="1600" on="1"/>
        <pt x="1800" y="1250" on="1"/>
        <pt x="860" y="1250" on="1"/>
        <pt x="1150" y="1000" on="1"/>
        <pt x="1150" y="293" on="1"/>
        <pt x="1300" y="439" on="1"/>
        <pt x="1450" y="293" on="1"/>
      </contour>
      <contour>
        <pt x="150" y="1000" on="1"/>
        <pt x="0" y="1157" on="1"/>
        <pt x="200" y="1500" on="1"/>
        <pt x="500" y="1500" on="1"/>
        <pt x="500" y="1250" on="1"/>
        <pt x="210" y="1250" on="1"/>
        <pt x="500" y="1000" on="1"/>
        <pt x="500" y="250" on="1"/>
        <pt x="600" y="250" on="1"/>
        <pt x="600" y="0" on="1"/>
        <pt x="150" y="0" on="1"/>
      </contour>
      <contour>
        <pt x="0" y="2050" on="1"/>
        <pt x="381" y="2050" on="1"/>
        <pt x="381" y="1850" on="1"/>
        <pt x="300" y="1850" on="1"/>
        <pt x="300" y="1780" on="1"/>
        <pt x="380" y="1780" on="1"/>
        <pt x="500" y="1780" on="0"/>
        <pt x="500" y="2049" on="1"/>
        <pt x="650" y="2049" on="1"/>
        <pt x="650" y="1600" on="0"/>
        <pt x="380" y="1600" on="1"/>
        <pt x="0" y="1600" on="1"/>
      </contour>
    </TTGlyph>
    <TTGlyph name="glyph298" xMin="0" yMin="0" xMax="3100" yMax="2050">
      <contour>
        <pt x="1800" y="250" on="1"/>
        <pt x="2100" y="250" on="1"/>
        <pt x="2100" y="1000" on="1"/>
        <pt x="1950" y="1157" on="1"/>
        <pt x="2150" y="1500" on="1"/>
        <pt x="2450" y="1500" on="1"/>
        <pt x="2450" y="1250" on="1"/>
        <pt x="2160" y="1250" on="1"/>
        <pt x="2450" y="1000" on="1"/>
        <pt x="2450" y="250" on="1"/>
        <pt x="2750" y="250" on="1"/>
        <pt x="2750" y="1000" on="1"/>
        <pt x="2600" y="1157" on="1"/>
        <pt x="2800" y="1500" on="1"/>
        <pt x="3100" y="1500" on="1"/>
        <pt x="3100" y="1250" on="1"/>
        <pt x="2810" y="1250" on="1"/>
        <pt x="3100" y="1000" on="1"/>
        <pt x="3100" y="250" on="1"/>
        <pt x="3100" y="0" on="0"/>
        <pt x="2850" y="0" on="1"/>
        <pt x="1700" y="0" on="1"/>
        <pt x="1450" y="0" on="0"/>
        <pt x="1450" y="250" on="1"/>
        <pt x="1450" y="1250" on="1"/>
        <pt x="1150" y="1250" on="1"/>
        <pt x="1150" y="250" on="1"/>
        <pt x="1250" y="250" on="1"/>
        <pt x="1250" y="0" on="1"/>
        <pt x="800" y="0" on="1"/>
        <pt x="800" y="1250" on="1"/>
        <pt x="800" y="1500" on="0"/>
        <pt x="1050" y="1500" on="1"/>
        <pt x="1550" y="1500" on="1"/>
        <pt x="1800" y="1500" on="0"/>
        <pt x="1800" y="1250" on="1"/>
      </contour>
      <contour>
        <pt x="150" y="1000" on="1"/>
        <pt x="0" y="1157" on="1"/>
        <pt x="200" y="1500" on="1"/>
        <pt x="500" y="1500" on="1"/>
        <pt x="500" y="1250" on="1"/>
        <pt x="210" y="1250" on="1"/>
        <pt x="500" y="1000" on="1"/>
        <pt x="500" y="250" on="1"/>
        <pt x="600" y="250" on="1"/>
        <pt x="600" y="0" on="1"/>
        <pt x="150" y="0" on="1"/>
      </contour>
      <contour>
        <pt x="0" y="2050" on="1"/>
        <pt x="381" y="2050" on="1"/>
        <pt x="381" y="1850" on="1"/>
        <pt x="300" y="1850" on="1"/>
        <pt x="300" y="1780" on="1"/>
        <pt x="380" y="1780" on="1"/>
        <pt x="500" y="1780" on="0"/>
        <pt x="500" y="2049" on="1"/>
        <pt x="650" y="2049" on="1"/>
        <pt x="650" y="1600" on="0"/>
        <pt x="380" y="1600" on="1"/>
        <pt x="0" y="1600" on="1"/>
      </contour>
    </TTGlyph>
    <TTGlyph name="glyph299" xMin="0" yMin="-700" xMax="2450" yMax="2050">
      <contour>
        <pt x="800" y="-200" on="1"/>
        <pt x="1050" y="-200" on="1"/>
        <pt x="1398" y="-200" on="0"/>
        <pt x="1804" y="-500" on="1"/>
        <pt x="2100" y="-500" on="1"/>
        <pt x="2100" y="-350" on="1"/>
        <pt x="1950" y="-350" on="1"/>
        <pt x="1950" y="-100" on="1"/>
        <pt x="2250" y="-100" on="1"/>
        <pt x="2450" y="-100" on="0"/>
        <pt x="2450" y="-300" on="1"/>
        <pt x="2450" y="-500" on="1"/>
        <pt x="2450" y="-700" on="0"/>
        <pt x="2250" y="-700" on="1"/>
        <pt x="1662" y="-700" on="1"/>
        <pt x="1297" y="-450" on="0"/>
        <pt x="1050" y="-450" on="1"/>
        <pt x="800" y="-450" on="1"/>
      </contour>
      <contour>
        <pt x="2100" y="0" on="1"/>
        <pt x="2100" y="1250" on="1"/>
        <pt x="1850" y="1250" on="1"/>
        <pt x="1850" y="1500" on="1"/>
        <pt x="2450" y="1500" on="1"/>
        <pt x="2450" y="0" on="1"/>
      </contour>
      <contour>
        <pt x="1150" y="250" on="1"/>
        <pt x="1250" y="250" on="1"/>
        <pt x="1250" y="0" on="1"/>
        <pt x="800" y="0" on="1"/>
        <pt x="800" y="1500" on="1"/>
        <pt x="1150" y="1500" on="1"/>
        <pt x="1300" y="1354" on="1"/>
        <pt x="1450" y="1500" on="1"/>
        <pt x="1800" y="1500" on="1"/>
        <pt x="1800" y="0" on="1"/>
        <pt x="1450" y="0" on="1"/>
        <pt x="1450" y="1207" on="1"/>
        <pt x="1300" y="1061" on="1"/>
        <pt x="1150" y="1207" on="1"/>
      </contour>
      <contour>
        <pt x="150" y="1000" on="1"/>
        <pt x="0" y="1157" on="1"/>
        <pt x="200" y="1500" on="1"/>
        <pt x="500" y="1500" on="1"/>
        <pt x="500" y="1250" on="1"/>
        <pt x="210" y="1250" on="1"/>
        <pt x="500" y="1000" on="1"/>
        <pt x="500" y="250" on="1"/>
        <pt x="600" y="250" on="1"/>
        <pt x="600" y="0" on="1"/>
        <pt x="150" y="0" on="1"/>
      </contour>
      <contour>
        <pt x="0" y="2050" on="1"/>
        <pt x="381" y="2050" on="1"/>
        <pt x="381" y="1850" on="1"/>
        <pt x="300" y="1850" on="1"/>
        <pt x="300" y="1780" on="1"/>
        <pt x="380" y="1780" on="1"/>
        <pt x="500" y="1780" on="0"/>
        <pt x="500" y="2049" on="1"/>
        <pt x="650" y="2049" on="1"/>
        <pt x="650" y="1600" on="0"/>
        <pt x="380" y="1600" on="1"/>
        <pt x="0" y="1600" on="1"/>
      </contour>
    </TTGlyph>
    <TTGlyph name="glyph300" xMin="0" yMin="0" xMax="1800" yMax="2050">
      <contour>
        <pt x="800" y="1500" on="1"/>
        <pt x="1200" y="1500" on="1"/>
        <pt x="1200" y="1400" on="1"/>
        <pt x="1150" y="1400" on="1"/>
        <pt x="1150" y="1350" on="1"/>
        <pt x="1450" y="1350" on="1"/>
        <pt x="1450" y="1600" on="1"/>
        <pt x="1800" y="1600" on="1"/>
        <pt x="1800" y="1300" on="1"/>
        <pt x="1800" y="1150" on="0"/>
        <pt x="1600" y="1150" on="1"/>
        <pt x="800" y="1150" on="1"/>
      </contour>
      <contour>
        <pt x="1150" y="1050" on="1"/>
        <pt x="1150" y="293" on="1"/>
        <pt x="1300" y="439" on="1"/>
        <pt x="1450" y="293" on="1"/>
        <pt x="1450" y="1050" on="1"/>
        <pt x="1800" y="1050" on="1"/>
        <pt x="1800" y="0" on="1"/>
        <pt x="1450" y="0" on="1"/>
        <pt x="1300" y="146" on="1"/>
        <pt x="1150" y="0" on="1"/>
        <pt x="800" y="0" on="1"/>
        <pt x="800" y="1050" on="1"/>
      </contour>
      <contour>
        <pt x="150" y="1000" on="1"/>
        <pt x="0" y="1157" on="1"/>
        <pt x="200" y="1500" on="1"/>
        <pt x="500" y="1500" on="1"/>
        <pt x="500" y="1250" on="1"/>
        <pt x="210" y="1250" on="1"/>
        <pt x="500" y="1000" on="1"/>
        <pt x="500" y="250" on="1"/>
        <pt x="600" y="250" on="1"/>
        <pt x="600" y="0" on="1"/>
        <pt x="150" y="0" on="1"/>
      </contour>
      <contour>
        <pt x="0" y="2050" on="1"/>
        <pt x="381" y="2050" on="1"/>
        <pt x="381" y="1850" on="1"/>
        <pt x="300" y="1850" on="1"/>
        <pt x="300" y="1780" on="1"/>
        <pt x="380" y="1780" on="1"/>
        <pt x="500" y="1780" on="0"/>
        <pt x="500" y="2049" on="1"/>
        <pt x="650" y="2049" on="1"/>
        <pt x="650" y="1600" on="0"/>
        <pt x="380" y="1600" on="1"/>
        <pt x="0" y="1600" on="1"/>
      </contour>
    </TTGlyph>
    <TTGlyph name="glyph301" xMin="0" yMin="0" xMax="1800" yMax="2050">
      <contour>
        <pt x="1800" y="250" on="1"/>
        <pt x="1800" y="0" on="0"/>
        <pt x="1550" y="0" on="1"/>
        <pt x="1050" y="0" on="1"/>
        <pt x="800" y="0" on="0"/>
        <pt x="800" y="250" on="1"/>
        <pt x="800" y="1250" on="1"/>
        <pt x="700" y="1250" on="1"/>
        <pt x="700" y="1500" on="1"/>
        <pt x="1150" y="1500" on="1"/>
        <pt x="1150" y="250" on="1"/>
        <pt x="1450" y="250" on="1"/>
        <pt x="1450" y="1000" on="1"/>
        <pt x="1300" y="1157" on="1"/>
        <pt x="1500" y="1500" on="1"/>
        <pt x="1650" y="1500" on="1"/>
        <pt x="1650" y="1600" on="1"/>
        <pt x="1800" y="1600" on="1"/>
        <pt x="1800" y="1250" on="1"/>
        <pt x="1510" y="1250" on="1"/>
        <pt x="1800" y="1000" on="1"/>
      </contour>
      <contour>
        <pt x="150" y="1000" on="1"/>
        <pt x="0" y="1157" on="1"/>
        <pt x="200" y="1500" on="1"/>
        <pt x="500" y="1500" on="1"/>
        <pt x="500" y="1250" on="1"/>
        <pt x="210" y="1250" on="1"/>
        <pt x="500" y="1000" on="1"/>
        <pt x="500" y="250" on="1"/>
        <pt x="600" y="250" on="1"/>
        <pt x="600" y="0" on="1"/>
        <pt x="150" y="0" on="1"/>
      </contour>
      <contour>
        <pt x="0" y="2050" on="1"/>
        <pt x="381" y="2050" on="1"/>
        <pt x="381" y="1850" on="1"/>
        <pt x="300" y="1850" on="1"/>
        <pt x="300" y="1780" on="1"/>
        <pt x="380" y="1780" on="1"/>
        <pt x="500" y="1780" on="0"/>
        <pt x="500" y="2049" on="1"/>
        <pt x="650" y="2049" on="1"/>
        <pt x="650" y="1600" on="0"/>
        <pt x="380" y="1600" on="1"/>
        <pt x="0" y="1600" on="1"/>
      </contour>
    </TTGlyph>
    <TTGlyph name="glyph302" xMin="0" yMin="0" xMax="1800" yMax="2050">
      <contour>
        <pt x="1450" y="1207" on="1"/>
        <pt x="1300" y="1061" on="1"/>
        <pt x="1150" y="1207" on="1"/>
        <pt x="1150" y="1050" on="1"/>
        <pt x="1200" y="1050" on="1"/>
        <pt x="1200" y="900" on="1"/>
        <pt x="800" y="900" on="1"/>
        <pt x="800" y="1500" on="1"/>
        <pt x="1150" y="1500" on="1"/>
        <pt x="1300" y="1354" on="1"/>
        <pt x="1450" y="1500" on="1"/>
        <pt x="1800" y="1500" on="1"/>
        <pt x="1800" y="1050" on="1"/>
        <pt x="1779" y="756" on="0"/>
        <pt x="1225" y="585" on="1"/>
        <pt x="1150" y="559" on="1"/>
        <pt x="1150" y="200" on="1"/>
        <pt x="1450" y="350" on="1"/>
        <pt x="1450" y="600" on="1"/>
        <pt x="1800" y="600" on="1"/>
        <pt x="1800" y="0" on="1"/>
        <pt x="1450" y="0" on="1"/>
        <pt x="1450" y="150" on="1"/>
        <pt x="1150" y="0" on="1"/>
        <pt x="800" y="0" on="1"/>
        <pt x="800" y="669" on="1"/>
        <pt x="1150" y="771" on="1"/>
        <pt x="1450" y="873" on="0"/>
        <pt x="1450" y="1050" on="1"/>
      </contour>
      <contour>
        <pt x="150" y="1000" on="1"/>
        <pt x="0" y="1157" on="1"/>
        <pt x="200" y="1500" on="1"/>
        <pt x="500" y="1500" on="1"/>
        <pt x="500" y="1250" on="1"/>
        <pt x="210" y="1250" on="1"/>
        <pt x="500" y="1000" on="1"/>
        <pt x="500" y="250" on="1"/>
        <pt x="600" y="250" on="1"/>
        <pt x="600" y="0" on="1"/>
        <pt x="150" y="0" on="1"/>
      </contour>
      <contour>
        <pt x="0" y="2050" on="1"/>
        <pt x="381" y="2050" on="1"/>
        <pt x="381" y="1850" on="1"/>
        <pt x="300" y="1850" on="1"/>
        <pt x="300" y="1780" on="1"/>
        <pt x="380" y="1780" on="1"/>
        <pt x="500" y="1780" on="0"/>
        <pt x="500" y="2049" on="1"/>
        <pt x="650" y="2049" on="1"/>
        <pt x="650" y="1600" on="0"/>
        <pt x="380" y="1600" on="1"/>
        <pt x="0" y="1600" on="1"/>
      </contour>
    </TTGlyph>
    <TTGlyph name="glyph303" xMin="0" yMin="0" xMax="2450" yMax="2050">
      <contour>
        <pt x="2450" y="0" on="1"/>
        <pt x="2100" y="0" on="1"/>
        <pt x="1800" y="230" on="1"/>
        <pt x="1800" y="0" on="1"/>
        <pt x="1450" y="0" on="1"/>
        <pt x="1450" y="250" on="1"/>
        <pt x="1350" y="250" on="1"/>
        <pt x="1350" y="500" on="1"/>
        <pt x="1450" y="500" on="1"/>
        <pt x="1450" y="1207" on="1"/>
        <pt x="1300" y="1061" on="1"/>
        <pt x="1150" y="1207" on="1"/>
        <pt x="1150" y="250" on="1"/>
        <pt x="1250" y="250" on="1"/>
        <pt x="1250" y="0" on="1"/>
        <pt x="800" y="0" on="1"/>
        <pt x="800" y="1500" on="1"/>
        <pt x="1150" y="1500" on="1"/>
        <pt x="1300" y="1354" on="1"/>
        <pt x="1450" y="1500" on="1"/>
        <pt x="1800" y="1500" on="1"/>
        <pt x="1800" y="500" on="1"/>
        <pt x="2100" y="270" on="1"/>
        <pt x="2100" y="1000" on="1"/>
        <pt x="1950" y="1157" on="1"/>
        <pt x="2150" y="1500" on="1"/>
        <pt x="2450" y="1500" on="1"/>
        <pt x="2450" y="1250" on="1"/>
        <pt x="2160" y="1250" on="1"/>
        <pt x="2450" y="1000" on="1"/>
      </contour>
      <contour>
        <pt x="150" y="1000" on="1"/>
        <pt x="0" y="1157" on="1"/>
        <pt x="200" y="1500" on="1"/>
        <pt x="500" y="1500" on="1"/>
        <pt x="500" y="1250" on="1"/>
        <pt x="210" y="1250" on="1"/>
        <pt x="500" y="1000" on="1"/>
        <pt x="500" y="250" on="1"/>
        <pt x="600" y="250" on="1"/>
        <pt x="600" y="0" on="1"/>
        <pt x="150" y="0" on="1"/>
      </contour>
      <contour>
        <pt x="0" y="2050" on="1"/>
        <pt x="381" y="2050" on="1"/>
        <pt x="381" y="1850" on="1"/>
        <pt x="300" y="1850" on="1"/>
        <pt x="300" y="1780" on="1"/>
        <pt x="380" y="1780" on="1"/>
        <pt x="500" y="1780" on="0"/>
        <pt x="500" y="2049" on="1"/>
        <pt x="650" y="2049" on="1"/>
        <pt x="650" y="1600" on="0"/>
        <pt x="380" y="1600" on="1"/>
        <pt x="0" y="1600" on="1"/>
      </contour>
    </TTGlyph>
    <TTGlyph name="glyph304" xMin="0" yMin="0" xMax="3100" yMax="2050">
      <contour>
        <pt x="1450" y="1250" on="1"/>
        <pt x="1150" y="1250" on="1"/>
        <pt x="1150" y="250" on="1"/>
        <pt x="1250" y="250" on="1"/>
        <pt x="1250" y="0" on="1"/>
        <pt x="800" y="0" on="1"/>
        <pt x="800" y="1250" on="1"/>
        <pt x="800" y="1500" on="0"/>
        <pt x="1050" y="1500" on="1"/>
        <pt x="1550" y="1500" on="1"/>
        <pt x="1800" y="1500" on="0"/>
        <pt x="1800" y="1250" on="1"/>
        <pt x="1800" y="293" on="1"/>
        <pt x="1950" y="439" on="1"/>
        <pt x="2100" y="293" on="1"/>
        <pt x="2100" y="1250" on="1"/>
        <pt x="2100" y="1500" on="0"/>
        <pt x="2350" y="1500" on="1"/>
        <pt x="2850" y="1500" on="1"/>
        <pt x="3100" y="1500" on="0"/>
        <pt x="3100" y="1250" on="1"/>
        <pt x="3100" y="0" on="1"/>
        <pt x="2750" y="0" on="1"/>
        <pt x="2750" y="1250" on="1"/>
        <pt x="2450" y="1250" on="1"/>
        <pt x="2450" y="0" on="1"/>
        <pt x="2100" y="0" on="1"/>
        <pt x="1950" y="146" on="1"/>
        <pt x="1800" y="0" on="1"/>
        <pt x="1450" y="0" on="1"/>
      </contour>
      <contour>
        <pt x="150" y="1000" on="1"/>
        <pt x="0" y="1157" on="1"/>
        <pt x="200" y="1500" on="1"/>
        <pt x="500" y="1500" on="1"/>
        <pt x="500" y="1250" on="1"/>
        <pt x="210" y="1250" on="1"/>
        <pt x="500" y="1000" on="1"/>
        <pt x="500" y="250" on="1"/>
        <pt x="600" y="250" on="1"/>
        <pt x="600" y="0" on="1"/>
        <pt x="150" y="0" on="1"/>
      </contour>
      <contour>
        <pt x="0" y="2050" on="1"/>
        <pt x="381" y="2050" on="1"/>
        <pt x="381" y="1850" on="1"/>
        <pt x="300" y="1850" on="1"/>
        <pt x="300" y="1780" on="1"/>
        <pt x="380" y="1780" on="1"/>
        <pt x="500" y="1780" on="0"/>
        <pt x="500" y="2049" on="1"/>
        <pt x="650" y="2049" on="1"/>
        <pt x="650" y="1600" on="0"/>
        <pt x="380" y="1600" on="1"/>
        <pt x="0" y="1600" on="1"/>
      </contour>
    </TTGlyph>
    <TTGlyph name="glyph305" xMin="0" yMin="0" xMax="1800" yMax="2050">
      <contour>
        <pt x="800" y="1250" on="1"/>
        <pt x="800" y="1500" on="1"/>
        <pt x="1800" y="1500" on="1"/>
        <pt x="1800" y="1250" on="1"/>
      </contour>
      <contour>
        <pt x="800" y="850" on="1"/>
        <pt x="800" y="1100" on="0"/>
        <pt x="1050" y="1100" on="1"/>
        <pt x="1550" y="1100" on="1"/>
        <pt x="1800" y="1100" on="0"/>
        <pt x="1800" y="850" on="1"/>
        <pt x="1800" y="0" on="1"/>
        <pt x="1450" y="0" on="1"/>
        <pt x="1450" y="850" on="1"/>
        <pt x="1150" y="850" on="1"/>
        <pt x="1150" y="250" on="1"/>
        <pt x="1250" y="250" on="1"/>
        <pt x="1250" y="0" on="1"/>
        <pt x="800" y="0" on="1"/>
      </contour>
      <contour>
        <pt x="150" y="1000" on="1"/>
        <pt x="0" y="1157" on="1"/>
        <pt x="200" y="1500" on="1"/>
        <pt x="500" y="1500" on="1"/>
        <pt x="500" y="1250" on="1"/>
        <pt x="210" y="1250" on="1"/>
        <pt x="500" y="1000" on="1"/>
        <pt x="500" y="250" on="1"/>
        <pt x="600" y="250" on="1"/>
        <pt x="600" y="0" on="1"/>
        <pt x="150" y="0" on="1"/>
      </contour>
      <contour>
        <pt x="0" y="2050" on="1"/>
        <pt x="381" y="2050" on="1"/>
        <pt x="381" y="1850" on="1"/>
        <pt x="300" y="1850" on="1"/>
        <pt x="300" y="1780" on="1"/>
        <pt x="380" y="1780" on="1"/>
        <pt x="500" y="1780" on="0"/>
        <pt x="500" y="2049" on="1"/>
        <pt x="650" y="2049" on="1"/>
        <pt x="650" y="1600" on="0"/>
        <pt x="380" y="1600" on="1"/>
        <pt x="0" y="1600" on="1"/>
      </contour>
    </TTGlyph>
    <TTGlyph name="glyph306" xMin="0" yMin="0" xMax="1800" yMax="2050">
      <contour>
        <pt x="860" y="1250" on="1"/>
        <pt x="1150" y="1000" on="1"/>
        <pt x="1150" y="250" on="1"/>
        <pt x="1450" y="250" on="1"/>
        <pt x="1450" y="900" on="1"/>
        <pt x="1350" y="900" on="1"/>
        <pt x="1350" y="1100" on="1"/>
        <pt x="1800" y="1100" on="1"/>
        <pt x="1800" y="250" on="1"/>
        <pt x="1800" y="0" on="0"/>
        <pt x="1550" y="0" on="1"/>
        <pt x="1050" y="0" on="1"/>
        <pt x="800" y="0" on="0"/>
        <pt x="800" y="250" on="1"/>
        <pt x="800" y="1000" on="1"/>
        <pt x="650" y="1157" on="1"/>
        <pt x="850" y="1500" on="1"/>
        <pt x="1450" y="1500" on="1"/>
        <pt x="1450" y="1600" on="1"/>
        <pt x="1800" y="1600" on="1"/>
        <pt x="1800" y="1250" on="1"/>
      </contour>
      <contour>
        <pt x="150" y="1000" on="1"/>
        <pt x="0" y="1157" on="1"/>
        <pt x="200" y="1500" on="1"/>
        <pt x="500" y="1500" on="1"/>
        <pt x="500" y="1250" on="1"/>
        <pt x="210" y="1250" on="1"/>
        <pt x="500" y="1000" on="1"/>
        <pt x="500" y="250" on="1"/>
        <pt x="600" y="250" on="1"/>
        <pt x="600" y="0" on="1"/>
        <pt x="150" y="0" on="1"/>
      </contour>
      <contour>
        <pt x="0" y="2050" on="1"/>
        <pt x="381" y="2050" on="1"/>
        <pt x="381" y="1850" on="1"/>
        <pt x="300" y="1850" on="1"/>
        <pt x="300" y="1780" on="1"/>
        <pt x="380" y="1780" on="1"/>
        <pt x="500" y="1780" on="0"/>
        <pt x="500" y="2049" on="1"/>
        <pt x="650" y="2049" on="1"/>
        <pt x="650" y="1600" on="0"/>
        <pt x="380" y="1600" on="1"/>
        <pt x="0" y="1600" on="1"/>
      </contour>
    </TTGlyph>
    <TTGlyph name="glyph307" xMin="0" yMin="0" xMax="1800" yMax="2050">
      <contour>
        <pt x="1800" y="1050" on="1"/>
        <pt x="1800" y="950" on="0"/>
        <pt x="1650" y="950" on="1"/>
        <pt x="1400" y="950" on="1"/>
        <pt x="1400" y="1150" on="1"/>
        <pt x="1450" y="1150" on="1"/>
        <pt x="1450" y="1250" on="1"/>
        <pt x="1150" y="1250" on="1"/>
        <pt x="1150" y="1000" on="1"/>
        <pt x="1150" y="872" on="0"/>
        <pt x="1366" y="822" on="1"/>
        <pt x="1503" y="790" on="1"/>
        <pt x="1523" y="813" on="0"/>
        <pt x="1569" y="850" on="1"/>
        <pt x="1800" y="850" on="1"/>
        <pt x="1800" y="644" on="1"/>
        <pt x="1800" y="572" on="0"/>
        <pt x="1697" y="539" on="1"/>
        <pt x="1800" y="490" on="1"/>
        <pt x="1800" y="250" on="1"/>
        <pt x="1800" y="0" on="0"/>
        <pt x="1550" y="0" on="1"/>
        <pt x="1050" y="0" on="1"/>
        <pt x="800" y="0" on="0"/>
        <pt x="800" y="250" on="1"/>
        <pt x="800" y="620" on="1"/>
        <pt x="1150" y="550" on="1"/>
        <pt x="1150" y="250" on="1"/>
        <pt x="1450" y="250" on="1"/>
        <pt x="1450" y="585" on="1"/>
        <pt x="1151" y="660" on="1"/>
        <pt x="800" y="738" on="0"/>
        <pt x="800" y="1000" on="1"/>
        <pt x="800" y="1250" on="1"/>
        <pt x="800" y="1500" on="0"/>
        <pt x="1050" y="1500" on="1"/>
        <pt x="1550" y="1500" on="1"/>
        <pt x="1800" y="1500" on="0"/>
        <pt x="1800" y="1250" on="1"/>
      </contour>
      <contour>
        <pt x="150" y="1000" on="1"/>
        <pt x="0" y="1157" on="1"/>
        <pt x="200" y="1500" on="1"/>
        <pt x="500" y="1500" on="1"/>
        <pt x="500" y="1250" on="1"/>
        <pt x="210" y="1250" on="1"/>
        <pt x="500" y="1000" on="1"/>
        <pt x="500" y="250" on="1"/>
        <pt x="600" y="250" on="1"/>
        <pt x="600" y="0" on="1"/>
        <pt x="150" y="0" on="1"/>
      </contour>
      <contour>
        <pt x="0" y="2050" on="1"/>
        <pt x="381" y="2050" on="1"/>
        <pt x="381" y="1850" on="1"/>
        <pt x="300" y="1850" on="1"/>
        <pt x="300" y="1780" on="1"/>
        <pt x="380" y="1780" on="1"/>
        <pt x="500" y="1780" on="0"/>
        <pt x="500" y="2049" on="1"/>
        <pt x="650" y="2049" on="1"/>
        <pt x="650" y="1600" on="0"/>
        <pt x="380" y="1600" on="1"/>
        <pt x="0" y="1600" on="1"/>
      </contour>
    </TTGlyph>
    <TTGlyph name="glyph308" xMin="0" yMin="0" xMax="1800" yMax="2050">
      <contour>
        <pt x="1450" y="900" on="1"/>
        <pt x="1350" y="900" on="1"/>
        <pt x="1350" y="1100" on="1"/>
        <pt x="1800" y="1100" on="1"/>
        <pt x="1800" y="0" on="1"/>
        <pt x="1450" y="0" on="1"/>
        <pt x="1300" y="146" on="1"/>
        <pt x="1150" y="0" on="1"/>
        <pt x="800" y="0" on="1"/>
        <pt x="800" y="1000" on="1"/>
        <pt x="650" y="1157" on="1"/>
        <pt x="850" y="1500" on="1"/>
        <pt x="1800" y="1500" on="1"/>
        <pt x="1800" y="1250" on="1"/>
        <pt x="860" y="1250" on="1"/>
        <pt x="1150" y="1000" on="1"/>
        <pt x="1150" y="293" on="1"/>
        <pt x="1300" y="439" on="1"/>
        <pt x="1450" y="293" on="1"/>
      </contour>
      <contour>
        <pt x="150" y="1000" on="1"/>
        <pt x="0" y="1157" on="1"/>
        <pt x="200" y="1500" on="1"/>
        <pt x="500" y="1500" on="1"/>
        <pt x="500" y="1250" on="1"/>
        <pt x="210" y="1250" on="1"/>
        <pt x="500" y="1000" on="1"/>
        <pt x="500" y="250" on="1"/>
        <pt x="600" y="250" on="1"/>
        <pt x="600" y="0" on="1"/>
        <pt x="150" y="0" on="1"/>
      </contour>
      <contour>
        <pt x="0" y="2050" on="1"/>
        <pt x="381" y="2050" on="1"/>
        <pt x="381" y="1850" on="1"/>
        <pt x="300" y="1850" on="1"/>
        <pt x="300" y="1780" on="1"/>
        <pt x="380" y="1780" on="1"/>
        <pt x="500" y="1780" on="0"/>
        <pt x="500" y="2049" on="1"/>
        <pt x="650" y="2049" on="1"/>
        <pt x="650" y="1600" on="0"/>
        <pt x="380" y="1600" on="1"/>
        <pt x="0" y="1600" on="1"/>
      </contour>
    </TTGlyph>
    <TTGlyph name="glyph309" xMin="0" yMin="0" xMax="1800" yMax="2050">
      <contour>
        <pt x="1150" y="1000" on="1"/>
        <pt x="1150" y="863" on="0"/>
        <pt x="1450" y="781" on="1"/>
        <pt x="1800" y="699" on="1"/>
        <pt x="1800" y="0" on="1"/>
        <pt x="1450" y="0" on="1"/>
        <pt x="1300" y="146" on="1"/>
        <pt x="1150" y="0" on="1"/>
        <pt x="800" y="0" on="1"/>
        <pt x="800" y="600" on="1"/>
        <pt x="1150" y="600" on="1"/>
        <pt x="1150" y="293" on="1"/>
        <pt x="1300" y="439" on="1"/>
        <pt x="1450" y="293" on="1"/>
        <pt x="1450" y="576" on="1"/>
        <pt x="1375" y="595" on="1"/>
        <pt x="800" y="753" on="0"/>
        <pt x="800" y="1000" on="1"/>
        <pt x="800" y="1250" on="1"/>
        <pt x="800" y="1500" on="0"/>
        <pt x="1050" y="1500" on="1"/>
        <pt x="1550" y="1500" on="1"/>
        <pt x="1800" y="1500" on="0"/>
        <pt x="1800" y="1250" on="1"/>
        <pt x="1800" y="900" on="1"/>
        <pt x="1400" y="900" on="1"/>
        <pt x="1400" y="1100" on="1"/>
        <pt x="1450" y="1100" on="1"/>
        <pt x="1450" y="1250" on="1"/>
        <pt x="1150" y="1250" on="1"/>
      </contour>
      <contour>
        <pt x="150" y="1000" on="1"/>
        <pt x="0" y="1157" on="1"/>
        <pt x="200" y="1500" on="1"/>
        <pt x="500" y="1500" on="1"/>
        <pt x="500" y="1250" on="1"/>
        <pt x="210" y="1250" on="1"/>
        <pt x="500" y="1000" on="1"/>
        <pt x="500" y="250" on="1"/>
        <pt x="600" y="250" on="1"/>
        <pt x="600" y="0" on="1"/>
        <pt x="150" y="0" on="1"/>
      </contour>
      <contour>
        <pt x="0" y="2050" on="1"/>
        <pt x="381" y="2050" on="1"/>
        <pt x="381" y="1850" on="1"/>
        <pt x="300" y="1850" on="1"/>
        <pt x="300" y="1780" on="1"/>
        <pt x="380" y="1780" on="1"/>
        <pt x="500" y="1780" on="0"/>
        <pt x="500" y="2049" on="1"/>
        <pt x="650" y="2049" on="1"/>
        <pt x="650" y="1600" on="0"/>
        <pt x="380" y="1600" on="1"/>
        <pt x="0" y="1600" on="1"/>
      </contour>
    </TTGlyph>
    <TTGlyph name="glyph310" xMin="0" yMin="0" xMax="1800" yMax="2050">
      <contour>
        <pt x="1450" y="1000" on="1"/>
        <pt x="1300" y="1157" on="1"/>
        <pt x="1500" y="1500" on="1"/>
        <pt x="1800" y="1500" on="1"/>
        <pt x="1800" y="1250" on="1"/>
        <pt x="1510" y="1250" on="1"/>
        <pt x="1800" y="1000" on="1"/>
        <pt x="1800" y="250" on="1"/>
        <pt x="1800" y="0" on="0"/>
        <pt x="1550" y="0" on="1"/>
        <pt x="1050" y="0" on="1"/>
        <pt x="800" y="0" on="0"/>
        <pt x="800" y="250" on="1"/>
        <pt x="800" y="1000" on="1"/>
        <pt x="650" y="1157" on="1"/>
        <pt x="850" y="1500" on="1"/>
        <pt x="1150" y="1500" on="1"/>
        <pt x="1150" y="1250" on="1"/>
        <pt x="860" y="1250" on="1"/>
        <pt x="1150" y="1000" on="1"/>
        <pt x="1150" y="250" on="1"/>
        <pt x="1450" y="250" on="1"/>
      </contour>
      <contour>
        <pt x="150" y="1000" on="1"/>
        <pt x="0" y="1157" on="1"/>
        <pt x="200" y="1500" on="1"/>
        <pt x="500" y="1500" on="1"/>
        <pt x="500" y="1250" on="1"/>
        <pt x="210" y="1250" on="1"/>
        <pt x="500" y="1000" on="1"/>
        <pt x="500" y="250" on="1"/>
        <pt x="600" y="250" on="1"/>
        <pt x="600" y="0" on="1"/>
        <pt x="150" y="0" on="1"/>
      </contour>
      <contour>
        <pt x="0" y="2050" on="1"/>
        <pt x="381" y="2050" on="1"/>
        <pt x="381" y="1850" on="1"/>
        <pt x="300" y="1850" on="1"/>
        <pt x="300" y="1780" on="1"/>
        <pt x="380" y="1780" on="1"/>
        <pt x="500" y="1780" on="0"/>
        <pt x="500" y="2049" on="1"/>
        <pt x="650" y="2049" on="1"/>
        <pt x="650" y="1600" on="0"/>
        <pt x="380" y="1600" on="1"/>
        <pt x="0" y="1600" on="1"/>
      </contour>
    </TTGlyph>
    <TTGlyph name="glyph311" xMin="0" yMin="0" xMax="1800" yMax="2050">
      <contour>
        <pt x="860" y="1250" on="1"/>
        <pt x="1150" y="1000" on="1"/>
        <pt x="1150" y="293" on="1"/>
        <pt x="1300" y="439" on="1"/>
        <pt x="1450" y="293" on="1"/>
        <pt x="1450" y="900" on="1"/>
        <pt x="1350" y="900" on="1"/>
        <pt x="1350" y="1100" on="1"/>
        <pt x="1800" y="1100" on="1"/>
        <pt x="1800" y="0" on="1"/>
        <pt x="1450" y="0" on="1"/>
        <pt x="1300" y="146" on="1"/>
        <pt x="1150" y="0" on="1"/>
        <pt x="800" y="0" on="1"/>
        <pt x="800" y="1000" on="1"/>
        <pt x="650" y="1157" on="1"/>
        <pt x="850" y="1500" on="1"/>
        <pt x="1450" y="1500" on="1"/>
        <pt x="1450" y="1600" on="1"/>
        <pt x="1800" y="1600" on="1"/>
        <pt x="1800" y="1250" on="1"/>
      </contour>
      <contour>
        <pt x="150" y="1000" on="1"/>
        <pt x="0" y="1157" on="1"/>
        <pt x="200" y="1500" on="1"/>
        <pt x="500" y="1500" on="1"/>
        <pt x="500" y="1250" on="1"/>
        <pt x="210" y="1250" on="1"/>
        <pt x="500" y="1000" on="1"/>
        <pt x="500" y="250" on="1"/>
        <pt x="600" y="250" on="1"/>
        <pt x="600" y="0" on="1"/>
        <pt x="150" y="0" on="1"/>
      </contour>
      <contour>
        <pt x="0" y="2050" on="1"/>
        <pt x="381" y="2050" on="1"/>
        <pt x="381" y="1850" on="1"/>
        <pt x="300" y="1850" on="1"/>
        <pt x="300" y="1780" on="1"/>
        <pt x="380" y="1780" on="1"/>
        <pt x="500" y="1780" on="0"/>
        <pt x="500" y="2049" on="1"/>
        <pt x="650" y="2049" on="1"/>
        <pt x="650" y="1600" on="0"/>
        <pt x="380" y="1600" on="1"/>
        <pt x="0" y="1600" on="1"/>
      </contour>
    </TTGlyph>
    <TTGlyph name="glyph312" xMin="0" yMin="0" xMax="1800" yMax="2050">
      <contour>
        <pt x="1150" y="250" on="1"/>
        <pt x="1250" y="250" on="1"/>
        <pt x="1250" y="0" on="1"/>
        <pt x="800" y="0" on="1"/>
        <pt x="800" y="1500" on="1"/>
        <pt x="1150" y="1500" on="1"/>
        <pt x="1300" y="1354" on="1"/>
        <pt x="1450" y="1500" on="1"/>
        <pt x="1800" y="1500" on="1"/>
        <pt x="1800" y="0" on="1"/>
        <pt x="1450" y="0" on="1"/>
        <pt x="1450" y="1207" on="1"/>
        <pt x="1300" y="1061" on="1"/>
        <pt x="1150" y="1207" on="1"/>
      </contour>
      <contour>
        <pt x="150" y="1000" on="1"/>
        <pt x="0" y="1157" on="1"/>
        <pt x="200" y="1500" on="1"/>
        <pt x="500" y="1500" on="1"/>
        <pt x="500" y="1250" on="1"/>
        <pt x="210" y="1250" on="1"/>
        <pt x="500" y="1000" on="1"/>
        <pt x="500" y="250" on="1"/>
        <pt x="600" y="250" on="1"/>
        <pt x="600" y="0" on="1"/>
        <pt x="150" y="0" on="1"/>
      </contour>
      <contour>
        <pt x="0" y="2050" on="1"/>
        <pt x="381" y="2050" on="1"/>
        <pt x="381" y="1850" on="1"/>
        <pt x="300" y="1850" on="1"/>
        <pt x="300" y="1780" on="1"/>
        <pt x="380" y="1780" on="1"/>
        <pt x="500" y="1780" on="0"/>
        <pt x="500" y="2049" on="1"/>
        <pt x="650" y="2049" on="1"/>
        <pt x="650" y="1600" on="0"/>
        <pt x="380" y="1600" on="1"/>
        <pt x="0" y="1600" on="1"/>
      </contour>
    </TTGlyph>
</ttFont>
